<svg width="352" height="436" viewBox="0 0 352 436" fill="none" xmlns="http://www.w3.org/2000/svg">
<g filter="url(#filter0_d_93_62)">
<path d="M348 100.826V164.074C348 168.063 345.629 171.671 341.967 173.253L269.741 204.467C261.697 207.943 261.697 219.349 269.741 222.825L341.967 254.039C345.629 255.621 348 259.229 348 263.218V326.466C348 333.899 340.177 338.734 333.528 335.41L181.528 259.41C178.14 257.716 176 254.253 176 250.466V176.826C176 173.039 178.14 169.576 181.528 167.882L333.528 91.8821C340.177 88.5576 348 93.3925 348 100.826Z" fill="url(#paint0_linear_93_62)"/>
<path d="M4 90.9927C4 87.205 6.14002 83.7423 9.52787 82.0484L171.513 1.05573C174.329 -0.351909 177.642 -0.35191 180.458 1.05573L244.09 32.8717C251.46 36.557 251.46 47.075 244.09 50.7603L95.5206 125.045C92.1327 126.739 89.9927 130.201 89.9927 133.989V293.454C89.9927 297.241 92.1327 300.704 95.5206 302.398L244.09 376.682C251.46 380.368 251.46 390.886 244.09 394.571L180.458 426.387C177.642 427.795 174.329 427.795 171.513 426.387L9.52787 345.394C6.14002 343.7 4 340.238 4 336.45V90.9927Z" fill="url(#paint1_linear_93_62)"/>
</g>
<defs>
<filter id="filter0_d_93_62" x="0" y="0" width="352" height="435.443" filterUnits="userSpaceOnUse" color-interpolation-filters="sRGB">
<feFlood flood-opacity="0" result="BackgroundImageFix"/>
<feColorMatrix in="SourceAlpha" type="matrix" values="0 0 0 0 0 0 0 0 0 0 0 0 0 0 0 0 0 0 127 0" result="hardAlpha"/>
<feOffset dy="4"/>
<feGaussianBlur stdDeviation="2"/>
<feComposite in2="hardAlpha" operator="out"/>
<feColorMatrix type="matrix" values="0 0 0 0 0 0 0 0 0 0 0 0 0 0 0 0 0 0 0.25 0"/>
<feBlend mode="normal" in2="BackgroundImageFix" result="effect1_dropShadow_93_62"/>
<feBlend mode="normal" in="SourceGraphic" in2="effect1_dropShadow_93_62" result="shape"/>
</filter>
<linearGradient id="paint0_linear_93_62" x1="176" y1="0" x2="176" y2="427.443" gradientUnits="userSpaceOnUse">
<stop stop-color="#170CB4"/>
<stop offset="1" stop-color="#830AAF"/>
</linearGradient>
<linearGradient id="paint1_linear_93_62" x1="126.809" y1="-1.52588e-05" x2="126.809" y2="427.443" gradientUnits="userSpaceOnUse">
<stop stop-color="#170CB4"/>
<stop offset="1" stop-color="#830AAF"/>
</linearGradient>
</defs>
</svg>
