<?xml version="1.0" encoding="UTF-8"?>
<svg id="Layer_2" data-name="Layer 2" xmlns="http://www.w3.org/2000/svg" xmlns:xlink="http://www.w3.org/1999/xlink" viewBox="0 0 652.35 652.35">
  <defs>
    <style>
      .cls-1 {
        fill: url(#linear-gradient);
      }

      .cls-1, .cls-2, .cls-3 {
        stroke-width: 0px;
      }

      .cls-2 {
        fill: #f2f1f1;
      }

      .cls-3 {
        fill: url(#linear-gradient-2);
      }
    </style>
    <linearGradient id="linear-gradient" x1="412.18" y1="584.9" x2="412.18" y2="157.46" gradientTransform="translate(0 697.35) scale(1 -1)" gradientUnits="userSpaceOnUse">
      <stop offset="0" stop-color="#170cb4"/>
      <stop offset="1" stop-color="#830aaf"/>
    </linearGradient>
    <linearGradient id="linear-gradient-2" x1="276.98" y1="584.9" x2="276.98" y2="157.46" xlink:href="#linear-gradient"/>
  </defs>
  <g id="Layer_1-2" data-name="Layer 1">
    <circle class="cls-2" cx="326.18" cy="326.18" r="326.18"/>
    <g>
      <path class="cls-1" d="M498.18,213.28v63.25c0,3.99-2.37,7.6-6.03,9.18l-72.23,31.21c-8.04,3.48-8.04,14.88,0,18.36l72.23,31.21c3.66,1.58,6.03,5.19,6.03,9.18v63.25c0,7.43-7.82,12.27-14.47,8.94l-152-76c-3.39-1.69-5.53-5.16-5.53-8.94v-73.64c0-3.79,2.14-7.25,5.53-8.94l152-76c6.65-3.32,14.47,1.51,14.47,8.94Z"/>
      <path class="cls-3" d="M154.18,203.45c0-3.79,2.14-7.25,5.53-8.94l161.99-80.99c2.82-1.41,6.13-1.41,8.94,0l63.63,31.82c7.37,3.69,7.37,14.2,0,17.89l-148.57,74.28c-3.39,1.69-5.53,5.16-5.53,8.94v159.47c0,3.79,2.14,7.25,5.53,8.94l148.57,74.28c7.37,3.69,7.37,14.2,0,17.89l-63.63,31.82c-2.82,1.41-6.13,1.41-8.94,0l-161.99-80.99c-3.39-1.69-5.53-5.16-5.53-8.94v-245.46Z"/>
    </g>
  </g>
</svg>