<svg width="2500" height="2500" viewBox="0 0 2500 2500" fill="none" xmlns="http://www.w3.org/2000/svg">
<rect width="2500" height="2500" fill="white"/>
<path d="M400.102 101.887C407.62 101.869 415.138 101.851 422.884 101.833C448.26 101.787 473.635 101.823 499.011 101.859C517.129 101.844 535.247 101.823 553.365 101.798C602.71 101.746 652.054 101.766 701.399 101.803C752.922 101.831 804.445 101.805 855.969 101.787C942.51 101.766 1029.05 101.793 1115.59 101.848C1215.79 101.91 1316 101.89 1416.2 101.827C1502.07 101.775 1587.94 101.768 1673.81 101.798C1725.17 101.816 1776.52 101.818 1827.88 101.78C1876.15 101.747 1924.42 101.77 1972.69 101.836C1990.46 101.851 2008.23 101.847 2026 101.822C2050.15 101.791 2074.3 101.829 2098.45 101.887C2118.78 101.893 2118.78 101.893 2139.51 101.9C2169.63 103.338 2169.63 103.338 2181.06 114.771C2182.26 131.424 2182.66 148.134 2182.75 164.83C2182.87 181.051 2182.87 181.051 2182.99 197.6C2183.03 209.566 2183.06 221.532 2183.09 233.86C2183.16 246.392 2183.24 258.924 2183.32 271.835C2183.54 313.579 2183.68 355.323 2183.79 397.067C2183.84 411.334 2183.88 425.601 2183.93 440.3C2184.14 508.158 2184.31 576.015 2184.41 643.873C2184.52 721.847 2184.82 799.817 2185.28 877.79C2185.67 945.555 2185.8 1013.32 2185.85 1081.09C2185.9 1109.75 2186.04 1138.41 2186.25 1167.08C2188.01 1419.65 2172.55 1633.66 1990.59 1825.92C1910.75 1905.49 1823.56 1974.15 1733.79 2042.09C1694.14 2072.15 1654.65 2102.45 1615.13 2132.69C1598.58 2145.34 1582.02 2158 1565.47 2170.65C1529.17 2198.41 1492.88 2226.2 1456.65 2254.06C1438.54 2267.98 1420.39 2281.86 1402.24 2295.74C1380.87 2312.36 1359.74 2329.28 1338.91 2346.57C1329.85 2354.04 1320.78 2361.51 1311.44 2369.21C1303.77 2375.74 1296.09 2382.27 1288.18 2388.99C1266.43 2401.37 1266.43 2401.37 1244.79 2398.3C1218.07 2389.02 1201.29 2377.5 1179.25 2359.83C1171.29 2353.53 1163.33 2347.23 1155.13 2340.73C1146.58 2333.86 1138.04 2326.99 1129.23 2319.91C1110.71 2305.24 1092.18 2290.59 1073.63 2275.96C1064 2268.35 1054.36 2260.75 1044.44 2252.92C996.349 2215.4 947.377 2179.08 898.428 2142.69C802.178 2070.89 707.508 1997.44 614.748 1921.18C605.625 1913.71 596.502 1906.24 587.103 1898.54C440.814 1774.89 341.204 1622.39 317.49 1429.56C311.156 1329.18 313.212 1228.36 313.739 1127.84C313.774 1098.6 313.795 1069.36 313.804 1040.13C313.856 979.162 314.016 918.201 314.275 857.239C314.607 778.923 314.723 700.609 314.774 622.292C314.815 562.073 314.934 501.854 315.07 441.635C315.135 412.734 315.19 383.833 315.233 354.931C315.311 314.755 315.467 274.58 315.648 234.404C315.667 216.375 315.667 216.375 315.687 197.981C315.752 187.117 315.817 176.254 315.885 165.061C315.919 155.568 315.953 146.076 315.988 136.297C319.37 87.8388 360.332 101.899 400.102 101.887Z" fill="#FDFDFD"/>
<path d="M400.102 101.887C407.62 101.869 415.138 101.851 422.884 101.833C448.26 101.787 473.635 101.823 499.011 101.859C517.129 101.844 535.247 101.823 553.365 101.798C602.71 101.746 652.054 101.766 701.399 101.803C752.922 101.831 804.445 101.805 855.969 101.787C942.51 101.766 1029.05 101.793 1115.59 101.848C1215.79 101.91 1316 101.89 1416.2 101.827C1502.07 101.775 1587.94 101.768 1673.81 101.798C1725.17 101.816 1776.52 101.818 1827.88 101.78C1876.15 101.747 1924.42 101.77 1972.69 101.836C1990.46 101.851 2008.23 101.847 2026 101.822C2050.15 101.791 2074.3 101.829 2098.45 101.887C2118.78 101.893 2118.78 101.893 2139.51 101.9C2169.63 103.338 2169.63 103.338 2181.06 114.771C2182.26 131.424 2182.66 148.134 2182.75 164.83C2182.87 181.051 2182.87 181.051 2182.99 197.6C2183.03 209.566 2183.06 221.532 2183.09 233.86C2183.16 246.392 2183.24 258.924 2183.32 271.835C2183.54 313.579 2183.68 355.323 2183.79 397.067C2183.84 411.334 2183.88 425.601 2183.93 440.3C2184.14 508.158 2184.31 576.015 2184.41 643.873C2184.52 721.847 2184.82 799.817 2185.28 877.79C2185.67 945.555 2185.8 1013.32 2185.85 1081.09C2185.9 1109.75 2186.04 1138.41 2186.25 1167.08C2188.01 1419.65 2172.55 1633.66 1990.59 1825.92C1910.75 1905.49 1823.56 1974.15 1733.79 2042.09C1694.14 2072.15 1654.65 2102.45 1615.13 2132.69C1598.58 2145.34 1582.02 2158 1565.47 2170.65C1529.17 2198.41 1492.88 2226.2 1456.65 2254.06C1438.54 2267.98 1420.39 2281.86 1402.24 2295.74C1380.87 2312.36 1359.74 2329.28 1338.91 2346.57C1329.85 2354.04 1320.78 2361.51 1311.44 2369.21C1303.77 2375.74 1296.09 2382.27 1288.18 2388.99C1266.43 2401.37 1266.43 2401.37 1244.79 2398.3C1218.07 2389.02 1201.29 2377.5 1179.25 2359.83C1171.29 2353.53 1163.33 2347.23 1155.13 2340.73C1146.58 2333.86 1138.04 2326.99 1129.23 2319.91C1110.71 2305.24 1092.18 2290.59 1073.63 2275.96C1064 2268.35 1054.36 2260.75 1044.44 2252.92C996.349 2215.4 947.377 2179.08 898.428 2142.69C802.178 2070.89 707.508 1997.44 614.748 1921.18C605.625 1913.71 596.502 1906.24 587.103 1898.54C440.814 1774.89 341.204 1622.39 317.49 1429.56C311.156 1329.18 313.212 1228.36 313.739 1127.84C313.774 1098.6 313.795 1069.36 313.804 1040.13C313.856 979.162 314.016 918.201 314.275 857.239C314.607 778.923 314.723 700.609 314.774 622.292C314.815 562.073 314.934 501.854 315.07 441.635C315.135 412.734 315.19 383.833 315.233 354.931C315.311 314.755 315.467 274.58 315.648 234.404C315.667 216.375 315.667 216.375 315.687 197.981C315.752 187.117 315.817 176.254 315.885 165.061C315.919 155.568 315.953 146.076 315.988 136.297C319.37 87.8388 360.332 101.899 400.102 101.887ZM363.222 789.317C320.309 1340.27 320.309 1340.27 540.121 1802.03C626.266 1884.58 720.908 1955.94 816.516 2026.97C902.304 2090.73 986.395 2156.62 1070.64 2222.39C1128.06 2267.1 1185.82 2311.36 1243.56 2355.63C1316.16 2310.77 1382.25 2259.24 1448.46 2205.66C1503.84 2160.92 1559.93 2117.24 1616.56 2074.1C1624.72 2067.87 1632.88 2061.65 1641.28 2055.24C1678.66 2026.75 1716.1 1998.34 1753.62 1970.04C1953.84 1818.49 2079.6 1691.8 2135.33 1441C2135.33 1225.94 2135.33 1010.89 2135.33 789.317C1550.54 789.317 965.74 789.317 363.222 789.317Z" fill="#FCFCFC"/>
<path d="M1300.73 1006.54C1420.76 1012.35 1510.08 1058.15 1597.49 1140.3C1686.36 1240.38 1718.24 1357.48 1715.13 1488.74C1704.14 1614.85 1653.11 1722.95 1561.54 1810.42C1446.05 1906.96 1321.74 1930.44 1174.96 1921.18C1040.81 1898.44 934.667 1823.67 854.84 1715.39C781.87 1602.02 770.167 1467.06 796.246 1336.67C801.874 1311.57 801.874 1311.57 809.109 1292.37C816.654 1288.59 824.2 1284.82 831.974 1280.93C841.778 1331.17 844.431 1378.41 843.407 1429.56C862.272 1422.02 881.136 1414.47 900.572 1406.7C904.345 1421.79 908.118 1436.88 912.005 1452.43C885.595 1459.97 859.185 1467.52 831.974 1475.29C835.504 1495.79 839.087 1516.27 842.693 1536.75C845.677 1553.86 845.677 1553.86 848.722 1571.31C853.436 1600.7 853.436 1600.7 866.273 1623.92C873.819 1616.38 881.365 1608.83 889.139 1601.06C922.006 1601.56 953.657 1603.19 986.32 1606.06C1048.01 1614.68 1048.01 1614.68 1106.37 1601.06C1099.62 1538.08 1088.45 1479.31 1072.07 1418.13C1056.98 1414.36 1041.88 1410.58 1026.33 1406.7C1037.65 1399.15 1048.97 1391.61 1060.63 1383.83C1085.91 1366.48 1111.16 1349.1 1136.38 1331.67C1143.22 1326.96 1150.05 1322.25 1157.1 1317.4C1190.41 1295.33 1190.41 1295.33 1220.7 1269.5C1225.89 1242.19 1225.89 1242.19 1220.7 1212.34C1198.76 1189.31 1198.76 1189.31 1169.96 1170.89C1118.88 1135.56 1118.88 1135.56 1106.37 1098.01C1113.91 1086.69 1121.46 1075.37 1129.23 1063.71C1129.23 1075.03 1129.23 1086.35 1129.23 1098.01C1135.13 1100.84 1141.02 1103.67 1147.1 1106.58C1183.79 1125.4 1219.28 1146 1254.99 1166.6C1288.95 1143.97 1322.91 1121.33 1357.89 1098.01C1352.23 1075.37 1352.23 1075.37 1346.46 1052.27C1317.99 1037.45 1317.99 1037.45 1289.29 1029.41C1293.07 1021.86 1296.84 1014.32 1300.73 1006.54Z" fill="#4E4E4E"/>
<path d="M400.102 101.887C407.62 101.869 415.138 101.851 422.884 101.833C448.26 101.787 473.635 101.823 499.011 101.859C517.129 101.844 535.247 101.823 553.365 101.798C602.71 101.746 652.054 101.766 701.399 101.803C752.922 101.831 804.445 101.805 855.969 101.787C942.51 101.766 1029.05 101.793 1115.59 101.848C1215.79 101.91 1316 101.89 1416.2 101.827C1502.07 101.775 1587.94 101.768 1673.81 101.798C1725.17 101.816 1776.52 101.818 1827.88 101.78C1876.15 101.747 1924.42 101.77 1972.69 101.836C1990.46 101.851 2008.23 101.847 2026 101.822C2050.15 101.791 2074.3 101.829 2098.45 101.887C2118.78 101.893 2118.78 101.893 2139.51 101.9C2169.63 103.338 2169.63 103.338 2181.06 114.771C2182.26 131.424 2182.66 148.134 2182.75 164.83C2182.87 181.051 2182.87 181.051 2182.99 197.6C2183.03 209.566 2183.06 221.532 2183.09 233.86C2183.16 246.392 2183.24 258.924 2183.32 271.835C2183.54 313.579 2183.68 355.323 2183.79 397.067C2183.84 411.334 2183.88 425.601 2183.93 440.3C2184.14 508.158 2184.31 576.015 2184.41 643.873C2184.52 721.847 2184.82 799.817 2185.28 877.79C2185.67 945.555 2185.8 1013.32 2185.85 1081.09C2185.9 1109.75 2186.04 1138.41 2186.25 1167.08C2188.01 1419.65 2172.55 1633.66 1990.59 1825.92C1910.75 1905.49 1823.56 1974.15 1733.79 2042.09C1694.14 2072.15 1654.65 2102.45 1615.13 2132.69C1598.58 2145.34 1582.02 2158 1565.47 2170.65C1529.17 2198.41 1492.88 2226.2 1456.65 2254.06C1438.54 2267.98 1420.39 2281.86 1402.24 2295.74C1380.87 2312.36 1359.74 2329.28 1338.91 2346.57C1329.85 2354.04 1320.78 2361.51 1311.44 2369.21C1303.77 2375.74 1296.09 2382.27 1288.18 2388.99C1266.43 2401.37 1266.43 2401.37 1244.79 2398.3C1218.07 2389.02 1201.29 2377.5 1179.25 2359.83C1171.29 2353.53 1163.33 2347.23 1155.13 2340.73C1146.58 2333.86 1138.04 2326.99 1129.23 2319.91C1110.71 2305.24 1092.18 2290.59 1073.63 2275.96C1064 2268.35 1054.36 2260.75 1044.44 2252.92C996.349 2215.4 947.377 2179.08 898.428 2142.69C802.178 2070.89 707.508 1997.44 614.748 1921.18C605.625 1913.71 596.502 1906.24 587.103 1898.54C440.814 1774.89 341.204 1622.39 317.49 1429.56C311.156 1329.18 313.212 1228.36 313.739 1127.84C313.774 1098.6 313.795 1069.36 313.804 1040.13C313.856 979.162 314.016 918.201 314.275 857.239C314.607 778.923 314.723 700.609 314.774 622.292C314.815 562.073 314.934 501.854 315.07 441.635C315.135 412.734 315.19 383.833 315.233 354.931C315.311 314.755 315.467 274.58 315.648 234.404C315.667 216.375 315.667 216.375 315.687 197.981C315.752 187.117 315.817 176.254 315.885 165.061C315.919 155.568 315.953 146.076 315.988 136.297C319.37 87.8388 360.332 101.899 400.102 101.887ZM363.222 149.07C363.222 349.033 363.222 548.996 363.222 755.018C948.019 755.018 1532.82 755.018 2135.33 755.018C2135.33 555.055 2135.33 355.092 2135.33 149.07C1550.54 149.07 965.74 149.07 363.222 149.07ZM363.222 789.317C320.309 1340.27 320.309 1340.27 540.121 1802.03C626.266 1884.58 720.908 1955.94 816.516 2026.97C902.304 2090.73 986.395 2156.62 1070.64 2222.39C1128.06 2267.1 1185.82 2311.36 1243.56 2355.63C1316.16 2310.77 1382.25 2259.24 1448.46 2205.66C1503.84 2160.92 1559.93 2117.24 1616.56 2074.1C1624.72 2067.87 1632.88 2061.65 1641.28 2055.24C1678.66 2026.75 1716.1 1998.34 1753.62 1970.04C1953.84 1818.49 2079.6 1691.8 2135.33 1441C2135.33 1225.94 2135.33 1010.89 2135.33 789.317C1550.54 789.317 965.74 789.317 363.222 789.317Z" fill="#5E5E5E"/>
<path d="M1243.56 1303.8C1366.28 1383.21 1366.28 1383.21 1392.19 1418.13C1395.05 1449.57 1395.05 1449.57 1392.19 1475.29C1399.74 1463.98 1407.28 1452.66 1415.06 1441C1428.63 1420.99 1428.63 1420.99 1449.35 1406.7C1527.3 1406.7 1596.54 1444.13 1666.58 1475.29C1670.47 1538.75 1658.86 1578.11 1632.28 1635.36C1630.4 1648.09 1628.51 1660.82 1626.57 1673.94C1599.05 1740.44 1542.61 1778.92 1483.65 1818.28C1458.38 1828.33 1458.38 1828.33 1437.92 1829.72C1412.2 1807.57 1412.2 1807.57 1392.19 1783.98C1388.42 1802.85 1384.64 1821.71 1380.76 1841.15C1388.3 1844.92 1395.85 1848.7 1403.62 1852.58C1370.14 1871.68 1345.96 1878.37 1307.51 1878.49C1293.34 1878.53 1293.34 1878.53 1278.89 1878.57C1269.12 1878.49 1259.34 1878.4 1249.28 1878.31C1234.62 1878.44 1234.62 1878.44 1219.67 1878.57C1210.22 1878.55 1200.77 1878.52 1191.04 1878.49C1182.47 1878.46 1173.9 1878.43 1165.07 1878.41C1137.58 1875.08 1118.84 1866.22 1094.93 1852.58C1102.48 1845.04 1110.02 1837.49 1117.8 1829.72C1115.25 1791.01 1111.21 1753.07 1105.52 1714.72C1102.97 1690.47 1102.97 1690.47 1106.37 1646.79C1140.49 1618.12 1140.49 1618.12 1174.96 1601.06C1171.93 1594.69 1168.89 1588.32 1165.76 1581.76C1138.98 1523.89 1119.96 1469 1106.37 1406.7C1151.64 1372.74 1196.91 1338.79 1243.56 1303.8Z" fill="#515151"/>
<path d="M1252.14 994.395C1260.11 994.447 1268.08 994.499 1276.3 994.552C1295.87 994.686 1315.45 994.891 1335.02 995.11C1323.71 1006.43 1312.39 1017.75 1300.73 1029.41C1309.92 1032.24 1319.12 1035.07 1328.59 1037.98C1343.1 1045.06 1343.1 1045.06 1357.89 1052.27C1363.55 1074.91 1363.55 1074.91 1369.32 1098.01C1331.59 1124.42 1293.87 1150.83 1254.99 1178.04C1208.94 1151.85 1163.11 1125.47 1117.8 1098.01C1138.04 1147.54 1169.07 1165.34 1212.92 1193.36C1232.13 1212.34 1232.13 1212.34 1238.16 1240.2C1229.83 1280.66 1212.68 1291.42 1179.97 1315.95C1169.6 1323.74 1159.24 1331.54 1148.57 1339.57C1112.58 1364.59 1076.61 1386.43 1037.77 1406.7C1054.75 1412.36 1054.75 1412.36 1072.07 1418.13C1085.82 1447.25 1085.82 1447.25 1097.79 1483.87C1101.86 1495.84 1105.93 1507.8 1110.12 1520.13C1117.98 1556.15 1116.49 1577.45 1106.37 1612.49C1055.12 1630.49 1002.68 1620.45 949.877 1615.1C929.687 1613.37 909.401 1612.85 889.139 1612.49C881.593 1620.04 874.048 1627.58 866.273 1635.36C838.442 1578.54 828.017 1539.94 831.974 1475.29C858.384 1467.75 884.795 1460.2 912.005 1452.43C904.459 1441.11 896.914 1429.79 889.139 1418.13C866.502 1423.79 866.502 1423.79 843.407 1429.56C839.596 1402.89 835.785 1376.21 831.974 1349.53C828.437 1337.03 824.9 1324.54 821.256 1311.66C819.983 1236.55 863.361 1183.79 912.228 1129.54C1009.44 1036.7 1119.2 992.762 1252.14 994.395Z" fill="#4F4F4F"/>
<path d="M2158.2 789.317C2161.97 789.317 2165.74 789.317 2169.63 789.317C2170.7 879.368 2171.51 969.418 2172 1059.47C2172.24 1101.3 2172.56 1143.13 2173.08 1184.96C2173.58 1225.44 2173.85 1265.91 2173.97 1306.39C2174.09 1329.11 2174.45 1351.83 2174.81 1374.54C2174.86 1555.53 2109.02 1711.73 1981.7 1841.15C1909.91 1911.35 1829.6 1969.67 1748.58 2028.61C1704.65 2061.04 1661.71 2094.76 1618.7 2128.4C1601.41 2141.91 1584.11 2155.41 1566.81 2168.91C1558.55 2175.36 1550.3 2181.8 1541.79 2188.44C1495.34 2224.61 1448.64 2260.45 1401.84 2296.15C1380.6 2312.59 1359.63 2329.38 1338.95 2346.52C1329.88 2354.01 1320.8 2361.5 1311.44 2369.21C1303.77 2375.74 1296.09 2382.27 1288.18 2388.99C1266.43 2401.37 1266.43 2401.37 1244.79 2398.3C1218.07 2389.02 1201.29 2377.5 1179.25 2359.83C1171.29 2353.53 1163.33 2347.23 1155.13 2340.73C1146.58 2333.86 1138.03 2326.99 1129.23 2319.91C1110.71 2305.24 1092.18 2290.59 1073.63 2275.96C1064 2268.36 1054.36 2260.75 1044.44 2252.92C996.348 2215.4 947.376 2179.08 898.428 2142.69C802.178 2070.89 707.508 1997.45 614.747 1921.18C605.624 1913.71 596.502 1906.24 587.102 1898.54C475.229 1803.98 356.863 1673.98 340.356 1521.03C351.074 1477.44 351.074 1477.44 363.222 1441C366.995 1441 370.767 1441 374.655 1441C376.335 1449.31 378.015 1457.62 379.746 1466.18C431.828 1699.66 569.581 1827.33 751.943 1966.91C759.978 1973.1 768.014 1979.28 776.294 1985.65C825.275 2023.35 874.407 2060.84 923.605 2098.25C956.981 2123.67 990.238 2149.25 1023.48 2174.85C1035.13 2183.83 1046.79 2192.8 1058.8 2202.05C1076.69 2215.82 1076.69 2215.82 1094.93 2229.87C1122.8 2251.31 1150.67 2272.75 1178.54 2294.18C1191.11 2303.86 1203.69 2313.53 1216.27 2323.21C1225.28 2330.14 1234.28 2337.06 1243.56 2344.2C1316.16 2299.34 1382.25 2247.81 1448.46 2194.23C1503.84 2149.48 1559.93 2105.8 1616.56 2062.66C1624.72 2056.44 1632.88 2050.22 1641.28 2043.8C1678.66 2015.32 1716.1 1986.91 1753.62 1958.61C1963.23 1799.98 2097.61 1652.06 2135.33 1383.83C2138.6 1337.35 2139.29 1290.99 2139.66 1244.4C2139.86 1231.67 2140.05 1218.93 2140.25 1205.81C2140.86 1165.59 2141.32 1125.37 2141.76 1085.14C2142.27 1044.52 2142.8 1003.89 2143.4 963.26C2143.76 938.08 2144.07 912.9 2144.31 887.719C2144.54 870.819 2144.54 870.819 2144.78 853.577C2144.89 843.623 2145 833.67 2145.11 823.414C2146.77 800.75 2146.77 800.75 2158.2 789.317Z" fill="#565656"/>
<path d="M1300.73 1006.54C1317.17 1007.85 1333.6 1009.31 1350.03 1010.83C1363.76 1012.02 1363.76 1012.02 1377.76 1013.24C1403.62 1017.98 1403.62 1017.98 1437.92 1040.84C1434.15 1048.39 1430.38 1055.93 1426.49 1063.71C1418.94 1063.71 1411.4 1063.71 1403.62 1063.71C1409.28 1086.35 1409.28 1086.35 1415.06 1109.44C1405.15 1116.2 1395.25 1122.97 1385.04 1129.94C1372.17 1139.05 1359.31 1148.18 1346.46 1157.32C1336.64 1163.96 1336.64 1163.96 1326.63 1170.74C1297.43 1191.77 1279.78 1205.82 1269.46 1240.87C1281.73 1282.69 1309.45 1301.1 1343.6 1325.24C1349.76 1329.98 1355.92 1334.73 1362.27 1339.62C1398.64 1366.66 1398.64 1366.66 1442.39 1369.63C1448.46 1366.77 1454.53 1363.91 1460.79 1360.97C1462.04 1349.68 1463.29 1338.39 1464.58 1326.76C1466.4 1312.11 1468.21 1297.46 1470.08 1282.36C1471.8 1267.77 1473.52 1253.18 1475.3 1238.15C1483.65 1200.9 1483.65 1200.9 1517.95 1178.04C1529.27 1178.04 1540.59 1178.04 1552.25 1178.04C1557.91 1195.02 1557.91 1195.02 1563.68 1212.34C1546.71 1218 1546.71 1218 1529.38 1223.77C1521.84 1272.82 1514.29 1321.86 1506.52 1372.4C1514.06 1376.17 1521.61 1379.94 1529.38 1383.83C1452.21 1418.13 1452.21 1418.13 1426.49 1418.13C1418.94 1448.31 1411.4 1478.5 1403.62 1509.59C1380.76 1475.29 1380.76 1475.29 1383.26 1441.98C1384.53 1404.43 1384.53 1404.43 1353.25 1379.99C1341.57 1372.3 1329.9 1364.6 1317.87 1356.68C1306.2 1348.81 1294.53 1340.94 1282.5 1332.83C1273.43 1327.02 1264.35 1321.22 1254.99 1315.23C1238.53 1325.9 1222.1 1336.63 1205.69 1347.39C1196.54 1353.36 1187.38 1359.33 1177.95 1365.48C1155.26 1381.59 1136.67 1397.79 1117.8 1418.13C1124.85 1442.45 1132.02 1466.74 1139.23 1491.02C1143.21 1504.54 1147.19 1518.07 1151.29 1532.01C1160.98 1567.5 1160.98 1567.5 1186.4 1589.62C1213.44 1593.06 1240.64 1595.29 1267.86 1596.77C1282.5 1597.62 1297.15 1598.48 1312.25 1599.36C1323.54 1599.92 1334.83 1600.48 1346.46 1601.06C1346.46 1604.83 1346.46 1608.6 1346.46 1612.49C1333.09 1613.05 1319.72 1613.61 1305.95 1614.19C1288.25 1615.05 1270.55 1615.91 1252.85 1616.78C1244.06 1617.13 1235.27 1617.49 1226.21 1617.85C1176.82 1620.39 1140.95 1628.15 1094.93 1646.79C1063.33 1651.1 1031.74 1652.57 999.895 1653.93C991.428 1654.38 982.961 1654.82 974.238 1655.27C953.498 1656.35 932.751 1657.3 912.004 1658.22C908.231 1669.54 904.458 1680.86 900.571 1692.52C919.107 1715.81 938.17 1738.69 957.736 1761.12C957.736 1768.66 957.736 1776.21 957.736 1783.98C940.758 1789.64 940.758 1789.64 923.437 1795.42C821.507 1686.69 781.069 1575.5 784.009 1426.44C787.268 1380.94 792.951 1335.25 809.107 1292.37C816.653 1288.59 824.199 1284.82 831.973 1280.93C841.776 1331.17 844.43 1378.41 843.406 1429.56C862.271 1422.02 881.135 1414.47 900.571 1406.7C904.344 1421.79 908.117 1436.88 912.004 1452.43C885.594 1459.97 859.184 1467.52 831.973 1475.29C835.503 1495.79 839.086 1516.27 842.692 1536.75C845.676 1553.86 845.676 1553.86 848.721 1571.31C853.435 1600.7 853.435 1600.7 866.272 1623.92C873.818 1616.38 881.364 1608.83 889.138 1601.06C922.005 1601.56 953.656 1603.19 986.319 1606.06C1048.01 1614.68 1048.01 1614.68 1106.36 1601.06C1099.62 1538.08 1088.45 1479.31 1072.07 1418.13C1056.97 1414.36 1041.88 1410.58 1026.33 1406.7C1037.65 1399.15 1048.97 1391.61 1060.63 1383.83C1085.91 1366.48 1111.16 1349.1 1136.38 1331.67C1143.21 1326.96 1150.05 1322.25 1157.1 1317.4C1190.41 1295.33 1190.41 1295.33 1220.69 1269.5C1225.89 1242.19 1225.89 1242.19 1220.69 1212.34C1198.76 1189.31 1198.76 1189.31 1169.96 1170.89C1118.88 1135.56 1118.88 1135.56 1106.36 1098.01C1113.91 1086.69 1121.46 1075.37 1129.23 1063.71C1129.23 1075.03 1129.23 1086.35 1129.23 1098.01C1135.13 1100.84 1141.02 1103.67 1147.09 1106.58C1183.79 1125.4 1219.28 1146 1254.99 1166.6C1288.95 1143.97 1322.91 1121.33 1357.89 1098.01C1352.23 1075.37 1352.23 1075.37 1346.46 1052.27C1317.99 1037.45 1317.99 1037.45 1289.29 1029.41C1293.07 1021.86 1296.84 1014.32 1300.73 1006.54Z" fill="#4E4E4E"/>
<path d="M1249.28 1608.2C1257.96 1608.07 1266.64 1607.94 1275.58 1607.8C1311.64 1607.99 1342.06 1610.74 1375.67 1624.15C1401.97 1660.19 1393.1 1696.95 1387.9 1738.97C1384.48 1769.39 1382.16 1799.07 1380.76 1829.72C1388.3 1837.26 1395.85 1844.81 1403.62 1852.58C1370.14 1871.68 1345.96 1878.37 1307.51 1878.49C1293.34 1878.53 1293.34 1878.53 1278.89 1878.58C1269.12 1878.49 1259.34 1878.4 1249.28 1878.31C1239.51 1878.4 1229.74 1878.48 1219.67 1878.58C1210.22 1878.55 1200.77 1878.52 1191.04 1878.49C1182.47 1878.46 1173.9 1878.43 1165.07 1878.41C1137.58 1875.08 1118.84 1866.22 1094.93 1852.58C1102.48 1845.04 1110.02 1837.49 1117.8 1829.72C1116.01 1790.67 1112.33 1752.48 1107.53 1713.71C1101.75 1653.11 1101.75 1653.11 1122.89 1624.15C1164.8 1607.42 1204.88 1607.52 1249.28 1608.2Z" fill="#FAFAFA"/>
<path d="M351.789 149.07C355.562 149.07 359.334 149.07 363.222 149.07C363.222 349.032 363.222 548.995 363.222 755.017C948.018 755.017 1532.81 755.017 2135.33 755.017C2135.33 766.336 2135.33 777.654 2135.33 789.316C1904.67 789.583 1674.01 789.785 1443.35 789.908C1336.26 789.967 1229.17 790.048 1122.07 790.179C1028.76 790.292 935.444 790.366 842.129 790.392C792.695 790.407 743.261 790.442 693.827 790.525C647.339 790.602 600.851 790.626 554.363 790.609C537.264 790.612 520.164 790.635 503.065 790.679C479.793 790.736 456.52 790.715 433.248 790.691C413.677 790.707 413.677 790.707 393.711 790.723C363.222 789.316 363.222 789.316 340.356 777.883C344.129 570.375 347.901 362.866 351.789 149.07Z" fill="#464646"/>
<path d="M1243.56 1303.8C1347.68 1371.17 1347.68 1371.17 1392.19 1418.13C1384.85 1442.68 1377.46 1467.21 1370.04 1491.73C1365.93 1505.39 1361.81 1519.05 1357.58 1533.13C1346.46 1566.76 1346.46 1566.76 1335.03 1578.19C1306.09 1579.03 1277.48 1579.25 1248.56 1578.91C1240.44 1578.85 1232.31 1578.8 1223.93 1578.75C1203.8 1578.61 1183.66 1578.41 1163.53 1578.19C1137.53 1521.47 1120.24 1467.54 1106.37 1406.7C1151.64 1372.74 1196.91 1338.79 1243.56 1303.8Z" fill="#FBFBFB"/>
<path d="M1094.93 1635.36C1120 1697.19 1130.54 1763.05 1129.23 1829.72C1121.69 1837.26 1114.14 1844.81 1106.37 1852.58C1148.81 1866.73 1189.98 1868.09 1234.27 1870.45C1242.84 1870.94 1251.41 1871.43 1260.24 1871.94C1281.36 1873.15 1302.47 1874.31 1323.59 1875.45C1323.59 1890.54 1323.59 1905.63 1323.59 1921.18C1179.95 1927.26 1062.67 1908.56 946.304 1818.28C942.531 1806.96 938.758 1795.65 934.871 1783.98C942.416 1783.98 949.962 1783.98 957.736 1783.98C935.099 1750.03 912.462 1716.07 889.139 1681.09C912.005 1646.79 912.005 1646.79 936.836 1640.94C946.563 1640.28 956.29 1639.61 966.311 1638.93C976.48 1638.19 986.649 1637.45 997.127 1636.7C1029.78 1635.2 1062.25 1634.5 1094.93 1635.36Z" fill="#505050"/>
<path d="M1083.5 1063.71C1083.96 1070.21 1084.41 1076.71 1084.88 1083.4C1101.93 1127.57 1145.48 1147.97 1183.92 1172.97C1213.58 1193.52 1230.36 1205.62 1239.72 1241.19C1229.18 1280.51 1210.77 1293.05 1178.54 1317.38C1168.59 1325.08 1158.64 1332.79 1148.39 1340.73C1119.24 1360.01 1094.1 1373.9 1060.63 1383.83C1049.31 1380.06 1038 1376.29 1026.33 1372.4C1018.79 1315.8 1011.24 1259.21 1003.47 1200.9C980.831 1193.36 958.194 1185.81 934.871 1178.04C973.303 1119.55 1022.63 1094.27 1083.5 1063.71Z" fill="#F8F8F8"/>
<path d="M1072.07 1418.13C1080.1 1439.74 1087.92 1461.43 1095.65 1483.15C1100.02 1495.23 1104.4 1507.3 1108.91 1519.73C1118.06 1556.39 1116.93 1576.69 1106.36 1612.49C1055.11 1630.49 1002.68 1620.45 949.876 1615.1C929.686 1613.37 909.4 1612.85 889.139 1612.49C881.593 1620.04 874.047 1627.58 866.273 1635.36C838.024 1577.68 830.086 1540.8 831.974 1475.29C985.733 1394.43 985.733 1394.43 1072.07 1418.13Z" fill="#F9F9F9"/>
<path d="M1403.62 1063.71C1526.44 1118.79 1526.44 1118.79 1563.68 1178.04C1541.05 1185.58 1518.41 1193.13 1495.09 1200.9C1487.54 1253.72 1479.99 1306.54 1472.22 1360.97C1453.36 1368.51 1434.49 1376.06 1415.05 1383.83C1387.72 1368.39 1367.25 1354.38 1343.6 1334.53C1337.41 1329.61 1331.22 1324.7 1324.84 1319.63C1267.21 1273.6 1267.21 1273.6 1261.42 1243.46C1266.43 1212.34 1266.43 1212.34 1296.44 1185.85C1309.17 1177.11 1322.04 1168.55 1335.02 1160.17C1359.5 1144.21 1381.01 1128.25 1403.62 1109.44C1403.62 1094.35 1403.62 1079.26 1403.62 1063.71Z" fill="#FAFAFA"/>
<path d="M1529.38 1418.13C1575.8 1435.69 1621.25 1455.12 1666.58 1475.29C1670.54 1539.94 1660.11 1578.54 1632.28 1635.36C1624.74 1627.81 1617.19 1620.26 1609.42 1612.49C1550.71 1609.4 1495.67 1614.42 1437.7 1623.66C1415.06 1623.92 1415.06 1623.92 1380.76 1601.06C1386.74 1534.1 1399.41 1479.86 1426.49 1418.13C1461.83 1400.46 1492.5 1408.61 1529.38 1418.13Z" fill="#FAFAFA"/>
<path d="M2169.63 114.771C2173.41 114.771 2177.18 114.771 2181.07 114.771C2181.07 548.652 2181.07 982.533 2181.07 1429.56C2177.29 1429.56 2173.52 1429.56 2169.63 1429.56C2165.86 1222.05 2162.09 1014.55 2158.2 800.749C2154.43 993.166 2150.65 1185.58 2146.77 1383.83C2142.99 1383.83 2139.22 1383.83 2135.33 1383.83C2124.42 971.826 2124.42 561.074 2135.33 149.07C2142.88 149.07 2150.42 149.07 2158.2 149.07C2161.97 137.751 2165.75 126.433 2169.63 114.771Z" fill="#6C6C6C"/>
<path d="M2158.2 789.317C2161.97 789.317 2165.74 789.317 2169.63 789.317C2170.7 879.368 2171.51 969.418 2172 1059.47C2172.24 1101.3 2172.56 1143.13 2173.08 1184.96C2173.58 1225.44 2173.85 1265.91 2173.97 1306.39C2174.09 1329.11 2174.45 1351.83 2174.81 1374.54C2174.86 1558.83 2106.17 1714.83 1976.7 1845.44C1923.81 1897.2 1868.11 1941.31 1803.78 1978.35C1796.23 1974.57 1788.69 1970.8 1780.91 1966.91C1798.31 1922.43 1824.88 1901.97 1862.37 1873.31C2009.34 1755.34 2086.55 1626.14 2123.9 1441C2125.87 1432.16 2127.84 1423.33 2129.87 1414.23C2135.38 1383.58 2137.06 1355.12 2137.5 1324C2137.69 1312.37 2137.88 1300.73 2138.08 1288.75C2138.23 1276.32 2138.39 1263.9 2138.55 1251.1C2138.76 1238.27 2138.97 1225.43 2139.19 1212.21C2140.09 1157.34 2140.86 1102.47 2141.65 1047.59C2142.24 1007.53 2142.89 967.467 2143.55 927.406C2143.71 914.89 2143.86 902.374 2144.02 889.479C2144.21 877.991 2144.4 866.502 2144.6 854.666C2144.81 839.425 2144.81 839.425 2145.03 823.876C2146.77 800.75 2146.77 800.75 2158.2 789.317Z" fill="#535353"/>
<path d="M317.49 114.771C321.263 114.771 325.036 114.771 328.923 114.771C328.923 333.598 328.923 552.425 328.923 777.883C340.242 777.883 351.56 777.883 363.222 777.883C363.752 868.024 364.158 958.165 364.407 1048.31C364.526 1090.16 364.688 1132.02 364.947 1173.88C365.196 1214.28 365.332 1254.68 365.392 1295.08C365.454 1317.98 365.633 1340.88 365.813 1363.78C365.814 1377.74 365.816 1391.7 365.818 1406.08C365.869 1418.37 365.92 1430.66 365.972 1443.32C363.231 1475.19 356.819 1493.94 340.356 1521.03C317.702 1445.57 314.355 1376.99 314.894 1298.49C314.891 1285.65 314.888 1272.81 314.884 1259.58C314.9 1217.4 315.078 1175.21 315.257 1133.02C315.3 1103.67 315.332 1074.33 315.355 1044.98C315.433 975.782 315.613 906.586 315.843 837.39C316.1 758.562 316.225 679.733 316.34 600.904C316.578 438.859 316.98 276.815 317.49 114.771Z" fill="#6A6A6A"/>
<path d="M1544.21 301.941C1550.64 308.087 1557.06 314.233 1563.68 320.565C1563.68 331.883 1563.68 343.202 1563.68 354.864C1538.89 349.078 1517.96 343.432 1495.09 331.998C1438.84 325.925 1394.78 323.411 1345.74 353.434C1306.73 396.226 1308.4 430.409 1308.81 486.521C1313.47 526.038 1328.88 545.641 1357.89 572.09C1386.06 586.174 1405.79 585.436 1437.21 585.667C1452.22 585.91 1452.22 585.91 1467.53 586.158C1498.09 585.428 1498.09 585.428 1529.38 560.657C1540.7 560.657 1552.02 560.657 1563.68 560.657C1562.25 581.379 1562.25 581.379 1552.25 606.389C1502.24 639.731 1463.01 646.939 1403.62 640.688C1344.25 621.567 1312.2 601.372 1277.86 549.224C1273.14 542.386 1268.43 535.547 1263.57 528.502C1246.74 479.422 1245.92 435.312 1264.59 387.376C1292.67 336.707 1324.35 304.12 1377.85 281.174C1434.94 267.125 1493.53 271.686 1544.21 301.941Z" fill="#575757"/>
<path d="M934.871 286.267C1025.42 286.267 1115.97 286.267 1209.26 286.267C1213.03 297.585 1216.81 308.904 1220.69 320.566C1137.69 320.566 1054.69 320.566 969.17 320.566C969.17 362.067 969.17 403.569 969.17 446.328C1021.99 446.328 1074.81 446.328 1129.23 446.328C1129.23 457.647 1129.23 468.965 1129.23 480.627C1076.41 480.627 1023.59 480.627 969.17 480.627C969.17 529.675 969.17 578.722 969.17 629.256C957.851 629.256 946.532 629.256 934.871 629.256C934.871 516.069 934.871 402.883 934.871 286.267Z" fill="#414141"/>
<path d="M1561.54 1207.33C1597.98 1212.34 1597.98 1212.34 1623.71 1242.35C1659.35 1311.09 1670.57 1352.43 1655.15 1429.56C1638.94 1424.37 1622.74 1419.12 1606.56 1413.84C1593.03 1409.47 1593.03 1409.47 1579.23 1405C1553.78 1395.82 1530.42 1385.01 1506.52 1372.4C1508.12 1347.86 1509.8 1323.33 1511.52 1298.8C1512.45 1285.14 1513.38 1271.47 1514.33 1257.4C1519.01 1213.95 1519.01 1213.95 1561.54 1207.33Z" fill="#F5F5F5"/>
<path d="M900.572 1212.34C926.982 1216.11 953.392 1219.88 980.602 1223.77C984.375 1272.82 988.148 1321.86 992.035 1372.4C869.131 1429.56 869.131 1429.56 843.407 1429.56C824.694 1356.27 841.857 1312 877.706 1246.63C885.251 1235.32 892.797 1224 900.572 1212.34Z" fill="#F6F6F6"/>
<path d="M1586.55 1646.79C1594.1 1661.88 1601.64 1676.97 1609.42 1692.52C1595.18 1709 1580.88 1725.43 1566.54 1741.83C1558.58 1750.98 1550.63 1760.13 1542.43 1769.56C1500.41 1813.96 1500.41 1813.96 1472.22 1829.72C1453.36 1825.94 1434.49 1822.17 1415.06 1818.28C1418.83 1769.24 1422.6 1720.19 1426.49 1669.66C1482.2 1651.46 1527.19 1644.37 1586.55 1646.79Z" fill="#F8F8F8"/>
<path d="M912.005 1646.79C936.542 1648.39 961.074 1650.08 985.604 1651.79C999.266 1652.72 1012.93 1653.65 1027 1654.61C1060.63 1658.22 1060.63 1658.22 1072.07 1669.66C1074.75 1694.61 1076.8 1719.64 1078.5 1744.68C1079.93 1765.22 1079.93 1765.22 1081.4 1786.17C1082.09 1796.77 1082.79 1807.37 1083.5 1818.28C1063.45 1825.83 1063.45 1825.83 1037.77 1829.72C976.405 1798.36 930.317 1746.57 889.139 1692.52C896.684 1677.43 904.23 1662.34 912.005 1646.79Z" fill="#F8F8F8"/>
<path d="M1152.1 1040.84C1216.24 1040.84 1280.38 1040.84 1346.46 1040.84C1354 1059.71 1361.55 1078.57 1369.32 1098.01C1331.6 1124.42 1293.87 1150.83 1254.99 1178.04C1210.9 1153.45 1168.75 1129.62 1129.23 1098.01C1136.78 1079.14 1144.32 1060.28 1152.1 1040.84Z" fill="#F9F9F9"/>
<path d="M2158.2 789.317C2161.97 789.317 2165.74 789.317 2169.63 789.317C2170.16 881.344 2170.57 973.37 2170.82 1065.4C2170.94 1108.13 2171.1 1150.86 2171.36 1193.59C2171.6 1234.8 2171.74 1276.02 2171.8 1317.23C2171.84 1332.98 2171.93 1348.72 2172.05 1364.47C2172.21 1386.48 2172.23 1408.49 2172.23 1430.5C2172.28 1443.04 2172.33 1455.58 2172.38 1468.5C2169.63 1498.16 2169.63 1498.16 2146.77 1521.03C2135.09 1482.67 2134.25 1448.35 2134.9 1408.36C2135.1 1394.9 2135.29 1381.43 2135.49 1367.56C2135.9 1345.84 2135.9 1345.84 2136.32 1323.67C2136.56 1308.79 2136.8 1293.91 2137.05 1278.58C2137.57 1247.15 2138.13 1215.71 2138.73 1184.28C2139.49 1143.91 2140.14 1103.54 2140.76 1063.17C2141.37 1024.72 2142.06 986.266 2142.75 947.815C2142.97 933.263 2143.2 918.711 2143.43 903.717C2143.7 890.361 2143.96 877.004 2144.24 863.243C2144.45 851.423 2144.66 839.603 2144.88 827.425C2146.77 800.75 2146.77 800.75 2158.2 789.317Z" fill="#474747"/>
<path d="M1252.14 994.395C1260.11 994.446 1268.08 994.498 1276.3 994.551C1295.87 994.685 1315.45 994.89 1335.02 995.109C1329.36 1000.53 1323.71 1005.96 1317.87 1011.54C1299.41 1026.66 1299.41 1026.66 1300.73 1040.84C1290.39 1041 1280.06 1041.17 1269.42 1041.33C1249.19 1042.15 1249.19 1042.15 1228.55 1042.98C1215.16 1043.38 1201.76 1043.78 1187.96 1044.19C1149.81 1048.5 1149.81 1048.5 1132.31 1081.44C1125.13 1095.3 1125.13 1095.3 1117.8 1109.44C1106.48 1109.44 1095.16 1109.44 1083.5 1109.44C1083.5 1098.12 1083.5 1086.8 1083.5 1075.14C1038.22 1097.78 1038.22 1097.78 992.035 1120.87C988.262 1105.78 984.489 1090.69 980.602 1075.14C1002.49 1063.89 1024.41 1052.71 1046.34 1041.56C1058.54 1035.32 1070.75 1029.09 1083.32 1022.66C1141.01 995.688 1188.87 993.617 1252.14 994.395Z" fill="#525252"/>
<path d="M934.871 286.267C1025.42 286.267 1115.97 286.267 1209.26 286.267C1213.03 297.585 1216.81 308.904 1220.69 320.566C1137.69 320.566 1054.69 320.566 969.17 320.566C969.17 362.067 969.17 403.569 969.17 446.328C961.624 446.328 954.078 446.328 946.304 446.328C942.531 393.508 938.758 340.688 934.871 286.267Z" fill="#484848"/>
<path d="M820.541 1280.93C845.798 1318.82 845.977 1330.61 844.836 1374.54C844.63 1384.84 844.423 1395.15 844.211 1405.76C843.813 1417.54 843.813 1417.54 843.407 1429.56C862.271 1422.02 881.136 1414.47 900.572 1406.7C904.345 1421.79 908.118 1436.88 912.005 1452.43C885.595 1459.97 859.184 1467.52 831.974 1475.3C828.201 1490.39 824.428 1505.48 820.541 1521.03C820.541 1498.39 820.541 1475.75 820.541 1452.43C812.995 1452.43 805.449 1452.43 797.675 1452.43C779.665 1396.6 792.617 1347.04 809.108 1292.37C812.881 1288.59 816.654 1284.82 820.541 1280.93Z" fill="#585858"/>
<path d="M363.222 1441C366.995 1441 370.767 1441 374.655 1441C416.141 1583.74 416.141 1583.74 397.521 1658.22C360.812 1618.18 345.608 1574.44 340.356 1521.03C344.882 1492.07 352.847 1468.66 363.222 1441Z" fill="#5D5D5D"/>
<path d="M2123.9 1441C2149.96 1480.09 2156.49 1497.05 2158.2 1543.89C2145.66 1583.28 2129.75 1620.7 2112.47 1658.22C2104.92 1650.68 2097.38 1643.13 2089.6 1635.36C2094.25 1569.14 2108.53 1505.47 2123.9 1441Z" fill="#5D5D5D"/>
<path d="M1250.71 994.395C1262.82 994.472 1262.82 994.472 1275.18 994.551C1295.13 994.686 1315.08 994.891 1335.02 995.11C1329.37 1000.53 1323.71 1005.96 1317.88 1011.54C1299.41 1026.66 1299.41 1026.66 1300.73 1040.84C1251.68 1040.84 1202.63 1040.84 1152.1 1040.84C1148.32 1029.52 1144.55 1018.2 1140.66 1006.54C1175.71 989.02 1212.32 993.935 1250.71 994.395Z" fill="#616161"/>
<path d="M831.974 2046.94C884.304 2059.67 918.306 2092.13 957.736 2126.97C950.191 2142.07 942.645 2157.16 934.87 2172.71C889.596 2138.75 844.321 2104.79 797.675 2069.81C808.993 2062.26 820.312 2054.72 831.974 2046.94Z" fill="#575757"/>
<path d="M1140.66 1555.33C1146.5 1560.82 1152.34 1566.32 1158.35 1571.98C1195.8 1595.54 1225.35 1595.45 1269.28 1597.48C1290.95 1598.61 1290.95 1598.61 1313.05 1599.76C1324.08 1600.19 1335.1 1600.62 1346.46 1601.06C1346.46 1604.83 1346.46 1608.6 1346.46 1612.49C1333.09 1613.05 1319.72 1613.61 1305.95 1614.19C1288.25 1615.05 1270.55 1615.91 1252.85 1616.78C1244.06 1617.13 1235.27 1617.49 1226.21 1617.85C1177.95 1620.34 1139.05 1625.04 1094.93 1646.79C1091.16 1635.47 1087.39 1624.15 1083.5 1612.49C1090.81 1609.43 1098.12 1606.36 1105.65 1603.2C1133.02 1590.92 1133.02 1590.92 1140.66 1555.33Z" fill="#474747"/>
<path d="M408.954 1612.49C452.284 1669.61 468.891 1699.08 466.119 1772.55C441.877 1742.65 418.89 1713.14 397.521 1681.09C401.808 1644.65 401.808 1644.65 408.954 1612.49Z" fill="#555555"/>
<path d="M1014.9 1338.1C1018.67 1349.42 1022.45 1360.74 1026.33 1372.4C1037.65 1372.4 1048.97 1372.4 1060.63 1372.4C1060.63 1379.94 1060.63 1387.49 1060.63 1395.26C1040.44 1403.25 1020.18 1411.08 999.895 1418.84C982.984 1425.41 982.984 1425.41 965.73 1432.11C934.87 1441 934.87 1441 900.571 1429.56C900.571 1422.02 900.571 1414.47 900.571 1406.7C934.87 1395.26 969.169 1383.83 1003.47 1372.4C1007.24 1361.08 1011.01 1349.76 1014.9 1338.1Z" fill="#474747"/>
<path d="M1517.95 1601.06C1548.14 1601.06 1578.32 1601.06 1609.42 1601.06C1620.28 1643.31 1620.28 1673.14 1609.42 1715.39C1601.87 1711.61 1594.32 1707.84 1586.55 1703.95C1590.32 1696.41 1594.1 1688.86 1597.98 1681.09C1594.21 1673.54 1590.44 1666 1586.55 1658.22C1560.09 1649.87 1533.41 1642.2 1506.52 1635.36C1517.84 1631.58 1529.16 1627.81 1540.82 1623.92C1533.27 1620.15 1525.73 1616.38 1517.95 1612.49C1517.95 1608.72 1517.95 1604.94 1517.95 1601.06Z" fill="#5C5C5C"/>
<path d="M1552.25 1178.04C1556.02 1189.36 1559.8 1200.67 1563.68 1212.34C1552.37 1216.11 1541.05 1219.88 1529.39 1223.77C1525.61 1242.63 1521.84 1261.5 1517.95 1280.93C1510.41 1280.93 1502.86 1280.93 1495.09 1280.93C1491.31 1288.48 1487.54 1296.03 1483.65 1303.8C1482.73 1287.14 1482.06 1270.46 1481.51 1253.78C1481.11 1244.5 1480.71 1235.21 1480.3 1225.65C1481.41 1217.48 1482.51 1209.32 1483.65 1200.9C1517.95 1178.04 1517.95 1178.04 1552.25 1178.04Z" fill="#454545"/>
<path d="M1277.86 1155.17C1285.4 1166.49 1292.95 1177.81 1300.73 1189.47C1293.18 1197.02 1285.63 1204.56 1277.86 1212.34C1270.45 1241.73 1270.45 1241.73 1266.43 1269.5C1255.11 1269.5 1243.79 1269.5 1232.13 1269.5C1224.27 1237.35 1224.27 1237.35 1220.69 1200.9C1237.93 1177.11 1251.7 1168.25 1277.86 1155.17Z" fill="#444444"/>
<path d="M1392.19 1681.09C1403.51 1681.09 1414.83 1681.09 1426.49 1681.09C1428.72 1750.31 1428.72 1750.31 1426.49 1772.55C1418.94 1780.1 1411.4 1787.64 1403.62 1795.42C1399.85 1791.65 1396.08 1787.87 1392.19 1783.99C1384.64 1799.08 1377.1 1814.17 1369.32 1829.72C1370.93 1809.23 1372.61 1788.75 1374.33 1768.26C1375.25 1756.86 1376.18 1745.45 1377.14 1733.7C1380.76 1703.95 1380.76 1703.95 1392.19 1681.09Z" fill="#5D5D5D"/>
<path d="M1094.93 1635.36C1111.71 1678.97 1099.89 1707.27 1083.5 1749.69C1079.73 1749.69 1075.95 1749.69 1072.07 1749.69C1068.29 1723.28 1064.52 1696.87 1060.63 1669.65C1034.22 1665.88 1007.81 1662.11 980.602 1658.22C1019.5 1634.29 1049.8 1633.3 1094.93 1635.36Z" fill="#595959"/>
<path d="M1239.27 1886.17C1256.47 1886.32 1256.47 1886.32 1274.02 1886.48C1282.83 1886.61 1291.65 1886.75 1300.73 1886.88C1296.95 1898.2 1293.18 1909.52 1289.29 1921.18C1270.72 1921.8 1252.14 1922.24 1233.56 1922.61C1223.21 1922.88 1212.86 1923.14 1202.21 1923.41C1174.96 1921.18 1174.96 1921.18 1152.1 1898.31C1182.33 1883.2 1205.58 1885.78 1239.27 1886.17Z" fill="#474747"/>
<path d="M1266.43 492.06C1277.75 492.06 1289.06 492.06 1300.73 492.06C1346.46 550.858 1346.46 550.858 1346.46 594.956C1335.14 594.956 1323.82 594.956 1312.16 594.956C1266.43 536.158 1266.43 536.158 1266.43 492.06Z" fill="#4A4A4A"/>
<path d="M786.243 1418.13C790.016 1429.45 793.788 1440.77 797.676 1452.43C805.221 1452.43 812.767 1452.43 820.542 1452.43C833.404 1541.03 833.404 1541.03 820.542 1566.76C812.996 1566.76 805.45 1566.76 797.676 1566.76C787.702 1532.52 785.005 1502.33 785.528 1466.72C785.631 1457.58 785.734 1448.45 785.841 1439.03C785.973 1432.13 786.106 1425.24 786.243 1418.13Z" fill="#424242"/>
<path d="M1300.73 400.595C1302.96 469.818 1302.96 469.818 1300.73 492.058C1293.18 499.604 1285.63 507.15 1277.86 514.924C1270.31 511.152 1262.77 507.379 1254.99 503.491C1254.99 473.308 1254.99 443.125 1254.99 412.028C1277.86 400.595 1277.86 400.595 1300.73 400.595Z" fill="#5D5D5D"/>
<path d="M992.036 1269.5C1009.9 1282.36 1009.9 1282.36 1026.33 1303.8C1025.62 1338.81 1025.62 1338.81 1014.9 1372.4C991.321 1388.12 991.321 1388.12 969.17 1395.26C969.17 1387.72 969.17 1380.17 969.17 1372.4C976.716 1372.4 984.261 1372.4 992.036 1372.4C989.914 1357.54 987.791 1342.69 985.605 1327.38C981.987 1302.06 981.987 1302.06 980.603 1280.93C984.376 1277.16 988.149 1273.39 992.036 1269.5Z" fill="#525252"/>
<path d="M1472.22 2172.71C1475.99 2180.25 1479.77 2187.8 1483.65 2195.57C1491.2 2195.57 1498.75 2195.57 1506.52 2195.57C1506.52 2203.12 1506.52 2210.66 1506.52 2218.44C1473.3 2241.78 1456.2 2252.74 1415.06 2252.74C1419.61 2219.74 1424.09 2209.04 1450.07 2187C1457.38 2182.28 1464.69 2177.57 1472.22 2172.71Z" fill="#5C5C5C"/>
<path d="M934.871 2138.41C973.453 2144.66 992.977 2150.47 1026.33 2172.71C1026.33 2184.02 1026.33 2195.34 1026.33 2207.01C999.896 2204.86 999.896 2204.86 969.17 2195.57C948.447 2166.28 948.447 2166.28 934.871 2138.41Z" fill="#505050"/>
<path d="M1403.62 2229.87C1418.71 2237.42 1433.81 2244.96 1449.35 2252.74C1415.4 2281.03 1415.4 2281.03 1380.76 2309.9C1369.44 2298.58 1358.12 2287.26 1346.46 2275.6C1365.32 2260.51 1384.19 2245.42 1403.62 2229.87Z" fill="#515151"/>
<path d="M1563.68 560.657C1560.11 582.094 1560.11 582.094 1552.25 606.389C1517.95 629.255 1517.95 629.255 1483.65 629.255C1487.23 607.818 1487.23 607.818 1495.09 583.523C1529.38 560.657 1529.38 560.657 1563.68 560.657Z" fill="#4E4E4E"/>
<path d="M1220.69 1269.5C1239.56 1269.5 1258.42 1269.5 1277.86 1269.5C1281.63 1277.05 1285.41 1284.59 1289.29 1292.37C1277.97 1309.34 1277.97 1309.34 1266.43 1326.67C1232.13 1326.67 1232.13 1326.67 1209.26 1315.23C1213.03 1300.14 1216.81 1285.05 1220.69 1269.5Z" fill="#535353"/>
<path d="M1563.68 1612.49C1571.23 1620.04 1578.78 1627.58 1586.55 1635.36C1567.69 1635.36 1548.82 1635.36 1529.39 1635.36C1529.39 1639.13 1529.39 1642.9 1529.39 1646.79C1491.66 1643.02 1453.93 1639.24 1415.06 1635.36C1415.06 1631.58 1415.06 1627.81 1415.06 1623.92C1465.26 1614.13 1512.52 1609.54 1563.68 1612.49Z" fill="#404040"/>
<path d="M774.809 2001.21C804.821 2011.93 804.821 2011.93 831.974 2024.08C831.974 2035.4 831.974 2046.72 831.974 2058.38C804.821 2054.8 804.821 2054.8 774.809 2046.94C767.264 2035.63 759.718 2024.31 751.943 2012.64C759.489 2008.87 767.035 2005.1 774.809 2001.21Z" fill="#515151"/>
<path d="M569.015 1841.15C597.312 1852.47 597.312 1852.47 626.18 1864.02C626.18 1875.33 626.18 1886.65 626.18 1898.31C614.861 1902.09 603.543 1905.86 591.881 1909.75C580.562 1898.43 569.244 1887.11 557.582 1875.45C561.355 1864.13 565.128 1852.81 569.015 1841.15Z" fill="#575757"/>
<path d="M1094.93 1681.09C1117.8 1703.95 1117.8 1703.95 1118.33 1728.29C1116.65 1742.07 1116.65 1742.07 1114.94 1756.12C1113.94 1765.33 1112.94 1774.54 1111.9 1784.03C1110.08 1791.56 1108.25 1799.09 1106.37 1806.85C1095.05 1812.51 1095.05 1812.51 1083.5 1818.28C1081.87 1720.29 1081.87 1720.29 1094.93 1681.09Z" fill="#505050"/>
<path d="M980.602 1189.47C991.921 1193.24 1003.24 1197.02 1014.9 1200.9C1014.9 1231.09 1014.9 1261.27 1014.9 1292.37C1003.58 1288.59 992.264 1284.82 980.602 1280.93C980.602 1250.75 980.602 1220.57 980.602 1189.47Z" fill="#444444"/>
<path d="M1369.32 286.267C1380.64 290.039 1391.96 293.812 1403.62 297.7C1403.62 305.245 1403.62 312.791 1403.62 320.566C1373.98 341.828 1344.81 361.405 1312.16 377.73C1330.74 311.991 1330.74 311.991 1369.32 286.267Z" fill="#454545"/>
<path d="M1495.09 297.698C1514.24 300.969 1533.32 304.762 1552.25 309.131C1556.02 324.223 1559.8 339.314 1563.68 354.863C1526.3 348.418 1508.51 337.718 1483.65 309.131C1487.43 305.358 1491.2 301.585 1495.09 297.698Z" fill="#474747"/>
<path d="M1026.33 2184.14C1045.2 2195.46 1064.06 2206.78 1083.5 2218.44C1072.18 2229.76 1060.86 2241.07 1049.2 2252.74C1030.34 2237.64 1011.47 2222.55 992.036 2207C1003.35 2207 1014.67 2207 1026.33 2207C1026.33 2199.46 1026.33 2191.91 1026.33 2184.14Z" fill="#606060"/>
<path d="M2078.17 1612.49C2101.03 1635.36 2101.03 1635.36 2101.03 1681.09C2089.72 1681.09 2078.4 1681.09 2066.73 1681.09C2066.73 1688.63 2066.73 1696.18 2066.73 1703.95C2055.42 1700.18 2044.1 1696.41 2032.44 1692.52C2047.53 1666.11 2062.62 1639.7 2078.17 1612.49Z" fill="#4D4D4D"/>
<path d="M889.139 1601.06C908.003 1601.06 926.868 1601.06 946.304 1601.06C946.304 1616.15 946.304 1631.24 946.304 1646.79C923.667 1646.79 901.029 1646.79 877.706 1646.79C881.479 1631.7 885.252 1616.61 889.139 1601.06Z" fill="#565656"/>
<path d="M1346.46 1109.44C1346.46 1128.3 1346.46 1147.17 1346.46 1166.6C1323.82 1177.92 1323.82 1177.92 1300.73 1189.47C1296.95 1174.38 1293.18 1159.29 1289.29 1143.74C1333.6 1109.44 1333.6 1109.44 1346.46 1109.44Z" fill="#535353"/>
<path d="M1425.77 603.531C1437.33 604.474 1448.88 605.417 1460.79 606.389C1468.33 617.708 1475.88 629.026 1483.65 640.688C1445.07 642.117 1445.07 642.117 1403.62 640.688C1396.08 633.142 1388.53 625.596 1380.76 617.822C1392.19 606.389 1392.19 606.389 1425.77 603.531Z" fill="#474747"/>
<path d="M889.139 2069.81C877.82 2081.13 866.501 2092.45 854.84 2104.11C835.975 2089.02 817.111 2073.92 797.675 2058.38C839.1 2044.57 850.741 2052.17 889.139 2069.81Z" fill="#606060"/>
<path d="M1335.02 1566.76C1357.66 1572.42 1357.66 1572.42 1380.76 1578.19C1380.76 1585.74 1380.76 1593.28 1380.76 1601.06C1388.3 1604.83 1395.85 1608.6 1403.62 1612.49C1380.99 1623.81 1380.99 1623.81 1357.89 1635.36C1354.12 1624.04 1350.34 1612.72 1346.46 1601.06C1338.91 1601.06 1331.37 1601.06 1323.59 1601.06C1327.36 1589.74 1331.14 1578.42 1335.02 1566.76Z" fill="#595959"/>
<path d="M1426.49 1040.84C1480.8 1049.42 1480.8 1049.42 1506.52 1075.14C1495.2 1075.14 1483.88 1075.14 1472.22 1075.14C1468.45 1082.69 1464.67 1090.23 1460.79 1098.01C1445.7 1086.69 1430.6 1075.37 1415.06 1063.71C1418.83 1056.16 1422.6 1048.62 1426.49 1040.84Z" fill="#565656"/>
<path d="M1197.83 1875.45C1239.33 1875.45 1280.83 1875.45 1323.59 1875.45C1323.59 1890.54 1323.59 1905.63 1323.59 1921.18C1312.27 1921.18 1300.95 1921.18 1289.29 1921.18C1289.29 1913.63 1289.29 1906.09 1289.29 1898.31C1259.11 1894.54 1228.93 1890.77 1197.83 1886.88C1197.83 1883.11 1197.83 1879.34 1197.83 1875.45Z" fill="#757575"/>
<path d="M889.139 1406.7C896.684 1421.79 904.23 1436.88 912.005 1452.43C893.14 1456.2 874.276 1459.97 854.84 1463.86C851.067 1452.54 847.294 1441.22 843.407 1429.56C858.498 1422.02 873.59 1414.47 889.139 1406.7Z" fill="#515151"/>
<path d="M843.406 1235.2C854.725 1242.75 866.044 1250.29 877.705 1258.07C870.16 1276.93 862.614 1295.8 854.839 1315.23C847.294 1315.23 839.748 1315.23 831.973 1315.23C824.828 1294.51 824.828 1294.51 820.541 1269.5C828.086 1258.18 835.632 1246.86 843.406 1235.2Z" fill="#494949"/>
</svg>
