<?xml version="1.0" encoding="UTF-8"?>
<svg version="1.1" xmlns="http://www.w3.org/2000/svg" width="163" height="201">
<path d="M0 0 C0.65760079 -0.00155999 1.31520158 -0.00311998 1.99272966 -0.00472724 C4.21225712 -0.00873902 6.43171706 -0.00554693 8.65124512 -0.00241089 C10.23595724 -0.00376485 11.82066904 -0.00554476 13.40538025 -0.00772095 C17.72137403 -0.01229588 22.03734402 -0.01050548 26.35333824 -0.00734186 C30.85990846 -0.00481857 35.36647658 -0.00715571 39.87304688 -0.00872803 C47.44250862 -0.01054981 55.01196063 -0.00814318 62.5814209 -0.00338745 C71.34567626 0.00205519 80.10990836 0.00029254 88.87416315 -0.00521386 C96.38496682 -0.00974473 103.89576346 -0.01039566 111.40656805 -0.00777519 C115.89857712 -0.00621227 120.39057524 -0.00601904 124.88258362 -0.00931168 C129.10468198 -0.01219002 133.3267502 -0.01021538 137.54884529 -0.00441742 C139.10293083 -0.00308962 140.65701888 -0.00348427 142.21110344 -0.00568008 C144.32363176 -0.00839084 146.436062 -0.00501142 148.54858398 0 C150.32615711 0.00056554 150.32615711 0.00056554 152.13964081 0.0011425 C154.77429199 0.12698364 154.77429199 0.12698364 155.77429199 1.12698364 C155.87859611 2.58355582 155.91391111 4.04513442 155.92146301 5.50541687 C155.93219597 6.9242366 155.93219597 6.9242366 155.94314575 8.37171936 C155.94583466 9.4183223 155.94852356 10.46492523 155.95129395 11.54324341 C155.95786514 12.63934937 155.96443634 13.73545532 155.97120667 14.86477661 C155.99101616 18.51598168 156.00262621 22.16714524 156.01257324 25.81838989 C156.01664877 27.06624708 156.0207243 28.31410427 156.02492332 29.59977531 C156.04366837 35.53503413 156.05821721 41.47027977 156.06653529 47.40556103 C156.07625286 54.2256703 156.10241419 61.04545024 156.14303619 67.86544377 C156.17710772 73.79260699 156.18870349 79.71969201 156.19273949 85.64695549 C156.19758267 88.15410514 156.20913107 90.66125188 156.22777748 93.16833687 C156.38172083 115.26027842 155.0298848 133.97881154 139.11413574 150.79495239 C132.13095444 157.75481756 124.50458416 163.76020345 116.65319824 169.70266724 C113.18445624 172.33216839 109.7309072 174.98157543 106.27429199 177.62698364 C104.82639949 178.73378609 103.37848308 179.84055726 101.93054199 180.94729614 C98.7551783 183.37560144 95.58165 185.80625402 92.41271973 188.24295044 C90.82808756 189.46064499 89.24068995 190.67473815 87.65319824 191.88870239 C85.78419844 193.34180536 83.93612193 194.82238172 82.11413574 196.33401489 C81.3213623 196.98756958 80.52858887 197.64112427 79.71179199 198.31448364 C79.04019043 198.88553833 78.36858887 199.45659302 77.67663574 200.04495239 C75.77429199 201.12698364 75.77429199 201.12698364 73.88195801 200.85916138 C71.54433387 200.04709897 70.07698489 199.03991425 68.14929199 197.49417114 C67.45295654 196.94293579 66.75662109 196.39170044 66.03918457 195.82376099 C65.29177002 195.22257446 64.54435547 194.62138794 63.77429199 194.00198364 C62.15449992 192.71908842 60.53335657 191.43789786 58.91101074 190.15823364 C58.06844727 189.49307739 57.22588379 188.82792114 56.35778809 188.14260864 C52.15156437 184.86094327 47.86815892 181.6845708 43.58679199 178.50198364 C35.16817445 172.22129886 26.88771112 165.79754563 18.77429199 159.12698364 C17.9763623 158.47342896 17.17843262 157.81987427 16.35632324 157.14651489 C3.56098293 146.33111119 -5.1515232 132.9927126 -7.22570801 116.12698364 C-7.77970246 107.34689316 -7.59987033 98.52891515 -7.55383301 89.73635864 C-7.55077156 87.17900707 -7.54889838 84.62165383 -7.54815674 82.06430054 C-7.54357513 76.73209701 -7.52962073 71.40004919 -7.50695801 66.06790161 C-7.47790389 59.21790848 -7.46771451 52.36801909 -7.46327591 45.51797104 C-7.45973128 40.25083386 -7.44932711 34.98371533 -7.43740082 29.71659088 C-7.43169028 27.18869471 -7.42693418 24.66079619 -7.42313385 22.13289642 C-7.41630153 18.61883877 -7.40268823 15.10487789 -7.38684082 11.59085083 C-7.38516403 10.01387672 -7.38516403 10.01387672 -7.38345337 8.40504456 C-7.37774323 7.45482925 -7.37203308 6.50461395 -7.3661499 5.52560425 C-7.36317524 4.69536114 -7.36020058 3.86511803 -7.35713577 3.00971603 C-7.06126432 -1.22870931 -3.47852512 0.0011067 0 0 Z " fill="#FDFDFD" transform="translate(7.2257080078125,-0.126983642578125)"/>
<path d="M0 0 C0.65760079 -0.00155999 1.31520158 -0.00311998 1.99272966 -0.00472724 C4.21225712 -0.00873902 6.43171706 -0.00554693 8.65124512 -0.00241089 C10.23595724 -0.00376485 11.82066904 -0.00554476 13.40538025 -0.00772095 C17.72137403 -0.01229588 22.03734402 -0.01050548 26.35333824 -0.00734186 C30.85990846 -0.00481857 35.36647658 -0.00715571 39.87304688 -0.00872803 C47.44250862 -0.01054981 55.01196063 -0.00814318 62.5814209 -0.00338745 C71.34567626 0.00205519 80.10990836 0.00029254 88.87416315 -0.00521386 C96.38496682 -0.00974473 103.89576346 -0.01039566 111.40656805 -0.00777519 C115.89857712 -0.00621227 120.39057524 -0.00601904 124.88258362 -0.00931168 C129.10468198 -0.01219002 133.3267502 -0.01021538 137.54884529 -0.00441742 C139.10293083 -0.00308962 140.65701888 -0.00348427 142.21110344 -0.00568008 C144.32363176 -0.00839084 146.436062 -0.00501142 148.54858398 0 C150.32615711 0.00056554 150.32615711 0.00056554 152.13964081 0.0011425 C154.77429199 0.12698364 154.77429199 0.12698364 155.77429199 1.12698364 C155.87859611 2.58355582 155.91391111 4.04513442 155.92146301 5.50541687 C155.93219597 6.9242366 155.93219597 6.9242366 155.94314575 8.37171936 C155.94583466 9.4183223 155.94852356 10.46492523 155.95129395 11.54324341 C155.95786514 12.63934937 155.96443634 13.73545532 155.97120667 14.86477661 C155.99101616 18.51598168 156.00262621 22.16714524 156.01257324 25.81838989 C156.01664877 27.06624708 156.0207243 28.31410427 156.02492332 29.59977531 C156.04366837 35.53503413 156.05821721 41.47027977 156.06653529 47.40556103 C156.07625286 54.2256703 156.10241419 61.04545024 156.14303619 67.86544377 C156.17710772 73.79260699 156.18870349 79.71969201 156.19273949 85.64695549 C156.19758267 88.15410514 156.20913107 90.66125188 156.22777748 93.16833687 C156.38172083 115.26027842 155.0298848 133.97881154 139.11413574 150.79495239 C132.13095444 157.75481756 124.50458416 163.76020345 116.65319824 169.70266724 C113.18445624 172.33216839 109.7309072 174.98157543 106.27429199 177.62698364 C104.82639949 178.73378609 103.37848308 179.84055726 101.93054199 180.94729614 C98.7551783 183.37560144 95.58165 185.80625402 92.41271973 188.24295044 C90.82808756 189.46064499 89.24068995 190.67473815 87.65319824 191.88870239 C85.78419844 193.34180536 83.93612193 194.82238172 82.11413574 196.33401489 C81.3213623 196.98756958 80.52858887 197.64112427 79.71179199 198.31448364 C79.04019043 198.88553833 78.36858887 199.45659302 77.67663574 200.04495239 C75.77429199 201.12698364 75.77429199 201.12698364 73.88195801 200.85916138 C71.54433387 200.04709897 70.07698489 199.03991425 68.14929199 197.49417114 C67.45295654 196.94293579 66.75662109 196.39170044 66.03918457 195.82376099 C65.29177002 195.22257446 64.54435547 194.62138794 63.77429199 194.00198364 C62.15449992 192.71908842 60.53335657 191.43789786 58.91101074 190.15823364 C58.06844727 189.49307739 57.22588379 188.82792114 56.35778809 188.14260864 C52.15156437 184.86094327 47.86815892 181.6845708 43.58679199 178.50198364 C35.16817445 172.22129886 26.88771112 165.79754563 18.77429199 159.12698364 C17.9763623 158.47342896 17.17843262 157.81987427 16.35632324 157.14651489 C3.56098293 146.33111119 -5.1515232 132.9927126 -7.22570801 116.12698364 C-7.77970246 107.34689316 -7.59987033 98.52891515 -7.55383301 89.73635864 C-7.55077156 87.17900707 -7.54889838 84.62165383 -7.54815674 82.06430054 C-7.54357513 76.73209701 -7.52962073 71.40004919 -7.50695801 66.06790161 C-7.47790389 59.21790848 -7.46771451 52.36801909 -7.46327591 45.51797104 C-7.45973128 40.25083386 -7.44932711 34.98371533 -7.43740082 29.71659088 C-7.43169028 27.18869471 -7.42693418 24.66079619 -7.42313385 22.13289642 C-7.41630153 18.61883877 -7.40268823 15.10487789 -7.38684082 11.59085083 C-7.38516403 10.01387672 -7.38516403 10.01387672 -7.38345337 8.40504456 C-7.37774323 7.45482925 -7.37203308 6.50461395 -7.3661499 5.52560425 C-7.36317524 4.69536114 -7.36020058 3.86511803 -7.35713577 3.00971603 C-7.06126432 -1.22870931 -3.47852512 0.0011067 0 0 Z M-3.22570801 60.12698364 C-6.9791632 108.31665178 -6.9791632 108.31665178 12.24694824 148.70510864 C19.78177978 155.92550362 28.05971765 162.16706093 36.42224121 168.37991333 C43.92581384 173.95662948 51.28094376 179.71995323 58.64978027 185.47268677 C63.67154708 189.38299381 68.72358311 193.2541786 73.77429199 197.12698364 C80.12451006 193.20327167 85.90509715 188.69582288 91.69592285 184.00930786 C96.53961701 180.09582791 101.44572637 176.2753055 106.39929199 172.50198364 C107.11286865 171.95759644 107.82644531 171.41320923 108.56164551 170.85232544 C111.83113818 168.36058764 115.10586692 165.8760464 118.38757324 163.40042114 C135.89993523 150.1448869 146.89934892 139.06422745 151.77429199 117.12698364 C151.77429199 98.31698364 151.77429199 79.50698364 151.77429199 60.12698364 C100.62429199 60.12698364 49.47429199 60.12698364 -3.22570801 60.12698364 Z " fill="#FCFCFC" transform="translate(7.2257080078125,-0.126983642578125)"/>
<path d="M0 0 C10.49926412 0.50802891 18.31132597 4.51360901 25.95703125 11.69921875 C33.73002955 20.4531308 36.51829612 30.69524611 36.24609375 42.17578125 C35.28490792 53.20653297 30.82174597 62.66144929 22.8125 70.3125 C12.71136364 78.75575103 1.8378635 80.80986522 -11 80 C-22.73396587 78.01062073 -32.0178772 71.47112028 -39 62 C-45.38242805 52.08444214 -46.40603336 40.28016682 -44.125 28.875 C-43.6328125 26.6796875 -43.6328125 26.6796875 -43 25 C-42.34 24.67 -41.68 24.34 -41 24 C-40.14256349 28.39436211 -39.91051442 32.52572076 -40 37 C-38.35 36.34 -36.7 35.68 -35 35 C-34.67 36.32 -34.34 37.64 -34 39 C-36.31 39.66 -38.62 40.32 -41 41 C-40.69128878 42.79232337 -40.37790936 44.58384321 -40.0625 46.375 C-39.80146484 47.87160156 -39.80146484 47.87160156 -39.53515625 49.3984375 C-39.12287938 51.96909656 -39.12287938 51.96909656 -38 54 C-37.34 53.34 -36.68 52.68 -36 52 C-33.12527429 52.04382204 -30.35691467 52.1865231 -27.5 52.4375 C-22.10422357 53.19162471 -22.10422357 53.19162471 -17 52 C-17.59015185 46.49191603 -18.56663769 41.35121931 -20 36 C-21.32 35.67 -22.64 35.34 -24 35 C-23.01 34.34 -22.02 33.68 -21 33 C-18.78925004 31.48254568 -16.58093905 29.96190985 -14.375 28.4375 C-13.776875 28.02564453 -13.17875 27.61378906 -12.5625 27.18945312 C-9.64921234 25.25911035 -9.64921234 25.25911035 -7 23 C-6.54593059 20.61137605 -6.54593059 20.61137605 -7 18 C-8.91840393 15.98618645 -8.91840393 15.98618645 -11.4375 14.375 C-15.90508475 11.28474576 -15.90508475 11.28474576 -17 8 C-16.34 7.01 -15.68 6.02 -15 5 C-15 5.99 -15 6.98 -15 8 C-14.484375 8.2475 -13.96875 8.495 -13.4375 8.75 C-10.22815849 10.39581616 -7.12414336 12.1976096 -4 14 C-1.03 12.02 1.94 10.04 5 8 C4.505 6.02 4.505 6.02 4 4 C1.50965614 2.70339566 1.50965614 2.70339566 -1 2 C-0.67 1.34 -0.34 0.68 0 0 Z " fill="#4E4E4E" transform="translate(86,79)"/>
<path d="M0 0 C0.65760079 -0.00155999 1.31520158 -0.00311998 1.99272966 -0.00472724 C4.21225712 -0.00873902 6.43171706 -0.00554693 8.65124512 -0.00241089 C10.23595724 -0.00376485 11.82066904 -0.00554476 13.40538025 -0.00772095 C17.72137403 -0.01229588 22.03734402 -0.01050548 26.35333824 -0.00734186 C30.85990846 -0.00481857 35.36647658 -0.00715571 39.87304688 -0.00872803 C47.44250862 -0.01054981 55.01196063 -0.00814318 62.5814209 -0.00338745 C71.34567626 0.00205519 80.10990836 0.00029254 88.87416315 -0.00521386 C96.38496682 -0.00974473 103.89576346 -0.01039566 111.40656805 -0.00777519 C115.89857712 -0.00621227 120.39057524 -0.00601904 124.88258362 -0.00931168 C129.10468198 -0.01219002 133.3267502 -0.01021538 137.54884529 -0.00441742 C139.10293083 -0.00308962 140.65701888 -0.00348427 142.21110344 -0.00568008 C144.32363176 -0.00839084 146.436062 -0.00501142 148.54858398 0 C150.32615711 0.00056554 150.32615711 0.00056554 152.13964081 0.0011425 C154.77429199 0.12698364 154.77429199 0.12698364 155.77429199 1.12698364 C155.87859611 2.58355582 155.91391111 4.04513442 155.92146301 5.50541687 C155.93219597 6.9242366 155.93219597 6.9242366 155.94314575 8.37171936 C155.94583466 9.4183223 155.94852356 10.46492523 155.95129395 11.54324341 C155.95786514 12.63934937 155.96443634 13.73545532 155.97120667 14.86477661 C155.99101616 18.51598168 156.00262621 22.16714524 156.01257324 25.81838989 C156.01664877 27.06624708 156.0207243 28.31410427 156.02492332 29.59977531 C156.04366837 35.53503413 156.05821721 41.47027977 156.06653529 47.40556103 C156.07625286 54.2256703 156.10241419 61.04545024 156.14303619 67.86544377 C156.17710772 73.79260699 156.18870349 79.71969201 156.19273949 85.64695549 C156.19758267 88.15410514 156.20913107 90.66125188 156.22777748 93.16833687 C156.38172083 115.26027842 155.0298848 133.97881154 139.11413574 150.79495239 C132.13095444 157.75481756 124.50458416 163.76020345 116.65319824 169.70266724 C113.18445624 172.33216839 109.7309072 174.98157543 106.27429199 177.62698364 C104.82639949 178.73378609 103.37848308 179.84055726 101.93054199 180.94729614 C98.7551783 183.37560144 95.58165 185.80625402 92.41271973 188.24295044 C90.82808756 189.46064499 89.24068995 190.67473815 87.65319824 191.88870239 C85.78419844 193.34180536 83.93612193 194.82238172 82.11413574 196.33401489 C81.3213623 196.98756958 80.52858887 197.64112427 79.71179199 198.31448364 C79.04019043 198.88553833 78.36858887 199.45659302 77.67663574 200.04495239 C75.77429199 201.12698364 75.77429199 201.12698364 73.88195801 200.85916138 C71.54433387 200.04709897 70.07698489 199.03991425 68.14929199 197.49417114 C67.45295654 196.94293579 66.75662109 196.39170044 66.03918457 195.82376099 C65.29177002 195.22257446 64.54435547 194.62138794 63.77429199 194.00198364 C62.15449992 192.71908842 60.53335657 191.43789786 58.91101074 190.15823364 C58.06844727 189.49307739 57.22588379 188.82792114 56.35778809 188.14260864 C52.15156437 184.86094327 47.86815892 181.6845708 43.58679199 178.50198364 C35.16817445 172.22129886 26.88771112 165.79754563 18.77429199 159.12698364 C17.9763623 158.47342896 17.17843262 157.81987427 16.35632324 157.14651489 C3.56098293 146.33111119 -5.1515232 132.9927126 -7.22570801 116.12698364 C-7.77970246 107.34689316 -7.59987033 98.52891515 -7.55383301 89.73635864 C-7.55077156 87.17900707 -7.54889838 84.62165383 -7.54815674 82.06430054 C-7.54357513 76.73209701 -7.52962073 71.40004919 -7.50695801 66.06790161 C-7.47790389 59.21790848 -7.46771451 52.36801909 -7.46327591 45.51797104 C-7.45973128 40.25083386 -7.44932711 34.98371533 -7.43740082 29.71659088 C-7.43169028 27.18869471 -7.42693418 24.66079619 -7.42313385 22.13289642 C-7.41630153 18.61883877 -7.40268823 15.10487789 -7.38684082 11.59085083 C-7.38516403 10.01387672 -7.38516403 10.01387672 -7.38345337 8.40504456 C-7.37774323 7.45482925 -7.37203308 6.50461395 -7.3661499 5.52560425 C-7.36317524 4.69536114 -7.36020058 3.86511803 -7.35713577 3.00971603 C-7.06126432 -1.22870931 -3.47852512 0.0011067 0 0 Z M-3.22570801 4.12698364 C-3.22570801 21.61698364 -3.22570801 39.10698364 -3.22570801 57.12698364 C47.92429199 57.12698364 99.07429199 57.12698364 151.77429199 57.12698364 C151.77429199 39.63698364 151.77429199 22.14698364 151.77429199 4.12698364 C100.62429199 4.12698364 49.47429199 4.12698364 -3.22570801 4.12698364 Z M-3.22570801 60.12698364 C-6.9791632 108.31665178 -6.9791632 108.31665178 12.24694824 148.70510864 C19.78177978 155.92550362 28.05971765 162.16706093 36.42224121 168.37991333 C43.92581384 173.95662948 51.28094376 179.71995323 58.64978027 185.47268677 C63.67154708 189.38299381 68.72358311 193.2541786 73.77429199 197.12698364 C80.12451006 193.20327167 85.90509715 188.69582288 91.69592285 184.00930786 C96.53961701 180.09582791 101.44572637 176.2753055 106.39929199 172.50198364 C107.11286865 171.95759644 107.82644531 171.41320923 108.56164551 170.85232544 C111.83113818 168.36058764 115.10586692 165.8760464 118.38757324 163.40042114 C135.89993523 150.1448869 146.89934892 139.06422745 151.77429199 117.12698364 C151.77429199 98.31698364 151.77429199 79.50698364 151.77429199 60.12698364 C100.62429199 60.12698364 49.47429199 60.12698364 -3.22570801 60.12698364 Z " fill="#5E5E5E" transform="translate(7.2257080078125,-0.126983642578125)"/>
<path d="M0 0 C10.73357664 6.94525547 10.73357664 6.94525547 13 10 C13.25 12.75 13.25 12.75 13 15 C13.66 14.01 14.32 13.02 15 12 C16.1875 10.25 16.1875 10.25 18 9 C24.81723075 9 30.87359569 12.27380038 37 15 C37.33979863 20.55004434 36.32464519 23.99307189 34 29 C33.835 30.11375 33.67 31.2275 33.5 32.375 C31.09336215 38.19104147 26.1566125 41.5573332 21 45 C18.7890625 45.87890625 18.7890625 45.87890625 17 46 C14.75 44.0625 14.75 44.0625 13 42 C12.67 43.65 12.34 45.3 12 47 C12.66 47.33 13.32 47.66 14 48 C11.0711738 49.67006115 8.95688029 50.2555038 5.59375 50.265625 C4.35431641 50.26949219 4.35431641 50.26949219 3.08984375 50.2734375 C2.23519531 50.26570313 1.38054687 50.25796875 0.5 50.25 C-0.78197266 50.26160156 -0.78197266 50.26160156 -2.08984375 50.2734375 C-2.91613281 50.27085937 -3.74242188 50.26828125 -4.59375 50.265625 C-5.34333984 50.26336914 -6.09292969 50.26111328 -6.86523438 50.25878906 C-9.26942314 49.96733891 -10.90857928 49.19255983 -13 48 C-12.34 47.34 -11.68 46.68 -11 46 C-11.2232342 42.61428126 -11.57610076 39.29620091 -12.07421875 35.94140625 C-12.296875 33.8203125 -12.296875 33.8203125 -12 30 C-9.015625 27.4921875 -9.015625 27.4921875 -6 26 C-6.26554687 25.443125 -6.53109375 24.88625 -6.8046875 24.3125 C-9.14769018 19.25024604 -10.81099626 14.44960046 -12 9 C-8.04 6.03 -4.08 3.06 0 0 Z " fill="#515151" transform="translate(81,105)"/>
<path d="M0 0 C0.69738281 0.00451172 1.39476562 0.00902344 2.11328125 0.01367188 C3.82555803 0.0253998 5.53779033 0.04333347 7.25 0.0625 C6.26 1.0525 5.27 2.0425 4.25 3.0625 C5.054375 3.31 5.85875 3.5575 6.6875 3.8125 C7.9559375 4.43125 7.9559375 4.43125 9.25 5.0625 C9.745 7.0425 9.745 7.0425 10.25 9.0625 C6.95 11.3725 3.65 13.6825 0.25 16.0625 C-3.77784753 13.77215533 -7.78712501 11.46424242 -11.75 9.0625 C-9.97982261 13.39477624 -7.26547634 14.95208006 -3.4296875 17.40234375 C-1.75 19.0625 -1.75 19.0625 -1.22265625 21.5 C-1.95094296 25.03893394 -3.45077059 25.97976916 -6.3125 28.125 C-7.21871094 28.80691406 -8.12492187 29.48882812 -9.05859375 30.19140625 C-12.20612473 32.37960268 -15.35286061 34.29007945 -18.75 36.0625 C-17.265 36.5575 -17.265 36.5575 -15.75 37.0625 C-14.546875 39.609375 -14.546875 39.609375 -13.5 42.8125 C-13.14421875 43.85921875 -12.7884375 44.9059375 -12.421875 45.984375 C-11.73428458 49.13449855 -11.86460702 50.99767813 -12.75 54.0625 C-17.23266523 55.63717984 -21.81858167 54.75903102 -26.4375 54.29101562 C-28.20345714 54.13919915 -29.97780252 54.09362759 -31.75 54.0625 C-32.41 54.7225 -33.07 55.3825 -33.75 56.0625 C-36.18425238 51.09256806 -37.09615998 47.71644631 -36.75 42.0625 C-34.44 41.4025 -32.13 40.7425 -29.75 40.0625 C-30.41 39.0725 -31.07 38.0825 -31.75 37.0625 C-33.73 37.5575 -33.73 37.5575 -35.75 38.0625 C-36.08333333 35.72916667 -36.41666667 33.39583333 -36.75 31.0625 C-37.059375 29.969375 -37.36875 28.87625 -37.6875 27.75 C-37.79884625 21.18057131 -34.00473458 16.56582233 -29.73046875 11.8203125 C-21.22748829 3.70034918 -11.62705743 -0.14286555 0 0 Z " fill="#4F4F4F" transform="translate(81.75,77.9375)"/>
<path d="M0 0 C0.33 0 0.66 0 1 0 C1.09327128 7.87645316 1.16405134 15.75277346 1.20724869 23.62964249 C1.22799647 27.28845172 1.25607432 30.94687916 1.30175781 34.60546875 C1.34568008 38.14574608 1.36923301 41.68565958 1.37950897 45.22618866 C1.39034054 47.21343502 1.4214899 49.20053794 1.45318604 51.18756104 C1.45704185 67.0177273 -4.30187433 80.68019263 -15.4375 92 C-21.71672305 98.13972904 -28.74120315 103.2409279 -35.82763672 108.39648438 C-39.67058715 111.23313288 -43.42582373 114.18192685 -47.1875 117.125 C-48.70040112 118.30614294 -50.21341963 119.48713553 -51.7265625 120.66796875 C-52.44875977 121.23177246 -53.17095703 121.79557617 -53.91503906 122.37646484 C-57.97759591 125.53993124 -62.06203723 128.67452081 -66.15625 131.796875 C-68.01327224 133.23555706 -69.84812809 134.70344742 -71.65625 136.203125 C-72.4503125 136.85796875 -73.244375 137.5128125 -74.0625 138.1875 C-74.73410156 138.75855469 -75.40570313 139.32960937 -76.09765625 139.91796875 C-78 141 -78 141 -79.89233398 140.73217773 C-82.22995812 139.92011532 -83.6973071 138.91293061 -85.625 137.3671875 C-86.32133545 136.81595215 -87.0176709 136.2647168 -87.73510742 135.69677734 C-88.48252197 135.09559082 -89.22993652 134.4944043 -90 133.875 C-91.61979207 132.59210478 -93.24093542 131.31091422 -94.86328125 130.03125 C-95.70584473 129.36609375 -96.5484082 128.7009375 -97.41650391 128.015625 C-101.62272762 124.73395963 -105.90613307 121.55758716 -110.1875 118.375 C-118.60611754 112.09431522 -126.88658087 105.67056199 -135 99 C-135.79792969 98.34644531 -136.59585938 97.69289063 -137.41796875 97.01953125 C-147.20310081 88.74853955 -157.55616745 77.378011 -159 64 C-158.0625 60.1875 -158.0625 60.1875 -157 57 C-156.67 57 -156.34 57 -156 57 C-155.85304687 57.72703125 -155.70609375 58.4540625 -155.5546875 59.203125 C-150.99925822 79.62401486 -138.95053674 90.79127153 -123 103 C-122.29713867 103.54092285 -121.59427734 104.0818457 -120.87011719 104.63916016 C-116.5858708 107.93615031 -112.28852755 111.21556523 -107.98535156 114.48779297 C-105.06609438 116.71133933 -102.1572114 118.94823966 -99.25 121.1875 C-98.23035156 121.97253906 -97.21070313 122.75757813 -96.16015625 123.56640625 C-94.59587891 124.77103516 -94.59587891 124.77103516 -93 126 C-90.56271912 127.87528491 -88.12511151 129.75014489 -85.6875 131.625 C-84.5872338 132.47134665 -83.48697282 133.31770008 -82.38671875 134.1640625 C-81.59910156 134.76992187 -80.81148438 135.37578125 -80 136 C-73.64978193 132.07628802 -67.86919484 127.56883924 -62.07836914 122.88232422 C-57.23467498 118.96884427 -52.32856562 115.14832186 -47.375 111.375 C-46.66142334 110.83061279 -45.94784668 110.28622559 -45.21264648 109.7253418 C-41.94315381 107.233604 -38.66842507 104.74906275 -35.38671875 102.2734375 C-17.05327234 88.39904917 -5.29970062 75.46085631 -2 52 C-1.71441928 47.93403312 -1.65357417 43.87972693 -1.62109375 39.8046875 C-1.60409927 38.69062531 -1.5871048 37.57656311 -1.56959534 36.42874146 C-1.51694592 32.91088343 -1.47633734 29.39303542 -1.4375 25.875 C-1.39357101 22.32131284 -1.34699883 18.76771585 -1.29469299 15.21414185 C-1.26271401 13.01179872 -1.23583079 10.80937471 -1.21446228 8.60690308 C-1.19422752 7.12868576 -1.19422752 7.12868576 -1.17358398 5.62060547 C-1.16407211 4.74999481 -1.15456024 3.87938416 -1.14476013 2.98239136 C-1 1 -1 1 0 0 Z " fill="#565656" transform="translate(161,60)"/>
<path d="M0 0 C1.43836751 0.11458693 2.87570966 0.24209116 4.3125 0.375 C5.51326172 0.47941406 5.51326172 0.47941406 6.73828125 0.5859375 C9 1 9 1 12 3 C11.67 3.66 11.34 4.32 11 5 C10.34 5 9.68 5 9 5 C9.495 6.98 9.495 6.98 10 9 C9.13375 9.59167969 8.2675 10.18335937 7.375 10.79296875 C6.2493855 11.59027902 5.12441872 12.38850426 4 13.1875 C3.14148438 13.76854492 3.14148438 13.76854492 2.265625 14.36132812 C-0.28835167 16.20079942 -1.83228829 17.42995859 -2.734375 20.49609375 C-1.66179452 24.15313678 0.76352062 25.76362853 3.75 27.875 C4.28882813 28.29007813 4.82765625 28.70515625 5.3828125 29.1328125 C8.56399507 31.49787374 8.56399507 31.49787374 12.390625 31.7578125 C12.92171875 31.50773437 13.4528125 31.25765625 14 31 C14.10957031 30.01257813 14.21914062 29.02515625 14.33203125 28.0078125 C14.49058594 26.72648437 14.64914063 25.44515625 14.8125 24.125 C14.96332031 22.84882812 15.11414063 21.57265625 15.26953125 20.2578125 C16 17 16 17 19 15 C19.99 15 20.98 15 22 15 C22.495 16.485 22.495 16.485 23 18 C21.515 18.495 21.515 18.495 20 19 C19.34 23.29 18.68 27.58 18 32 C18.66 32.33 19.32 32.66 20 33 C13.25 36 13.25 36 11 36 C10.34 38.64 9.68 41.28 9 44 C7 41 7 41 7.21875 38.0859375 C7.33043753 34.8016139 7.33043753 34.8016139 4.59375 32.6640625 C3.5728125 31.99117187 2.551875 31.31828125 1.5 30.625 C0.4790625 29.93664062 -0.541875 29.24828125 -1.59375 28.5390625 C-2.3878125 28.03117187 -3.181875 27.52328125 -4 27 C-5.44037669 27.93307421 -6.87718985 28.87165077 -8.3125 29.8125 C-9.11300781 30.33457031 -9.91351563 30.85664062 -10.73828125 31.39453125 C-12.7237402 32.80389849 -14.3491852 34.22096657 -16 36 C-15.3827904 38.1272758 -14.75598201 40.25176857 -14.125 42.375 C-13.77695313 43.55835938 -13.42890625 44.74171875 -13.0703125 45.9609375 C-12.22312581 49.06491558 -12.22312581 49.06491558 -10 51 C-7.63490639 51.30059943 -5.25558119 51.49515012 -2.875 51.625 C-1.59367187 51.69976562 -0.31234375 51.77453125 1.0078125 51.8515625 C1.99523437 51.90054688 2.98265625 51.94953125 4 52 C4 52.33 4 52.66 4 53 C2.83082031 53.04898438 1.66164062 53.09796875 0.45703125 53.1484375 C-1.09116804 53.22350171 -2.63934401 53.29904795 -4.1875 53.375 C-4.95642578 53.4059375 -5.72535156 53.436875 -6.51757812 53.46875 C-10.83783738 53.69125262 -13.9745874 54.36945312 -18 56 C-20.7637901 56.3772234 -23.52708976 56.5055186 -26.3125 56.625 C-27.05306641 56.66367188 -27.79363281 56.70234375 -28.55664062 56.7421875 C-30.37071309 56.83581705 -32.18532116 56.91896851 -34 57 C-34.33 57.99 -34.66 58.98 -35 60 C-33.37873325 62.03697617 -31.71140469 64.03814584 -30 66 C-30 66.66 -30 67.32 -30 68 C-31.485 68.495 -31.485 68.495 -33 69 C-41.91547701 59.49015786 -45.45240684 49.76491852 -45.1953125 36.7265625 C-44.91023251 32.74684579 -44.41318219 28.75103914 -43 25 C-42.34 24.67 -41.68 24.34 -41 24 C-40.14256349 28.39436211 -39.91051442 32.52572076 -40 37 C-38.35 36.34 -36.7 35.68 -35 35 C-34.67 36.32 -34.34 37.64 -34 39 C-36.31 39.66 -38.62 40.32 -41 41 C-40.69128878 42.79232337 -40.37790936 44.58384321 -40.0625 46.375 C-39.80146484 47.87160156 -39.80146484 47.87160156 -39.53515625 49.3984375 C-39.12287938 51.96909656 -39.12287938 51.96909656 -38 54 C-37.34 53.34 -36.68 52.68 -36 52 C-33.12527429 52.04382204 -30.35691467 52.1865231 -27.5 52.4375 C-22.10422357 53.19162471 -22.10422357 53.19162471 -17 52 C-17.59015185 46.49191603 -18.56663769 41.35121931 -20 36 C-21.32 35.67 -22.64 35.34 -24 35 C-23.01 34.34 -22.02 33.68 -21 33 C-18.78925004 31.48254568 -16.58093905 29.96190985 -14.375 28.4375 C-13.776875 28.02564453 -13.17875 27.61378906 -12.5625 27.18945312 C-9.64921234 25.25911035 -9.64921234 25.25911035 -7 23 C-6.54593059 20.61137605 -6.54593059 20.61137605 -7 18 C-8.91840393 15.98618645 -8.91840393 15.98618645 -11.4375 14.375 C-15.90508475 11.28474576 -15.90508475 11.28474576 -17 8 C-16.34 7.01 -15.68 6.02 -15 5 C-15 5.99 -15 6.98 -15 8 C-14.484375 8.2475 -13.96875 8.495 -13.4375 8.75 C-10.22815849 10.39581616 -7.12414336 12.1976096 -4 14 C-1.03 12.02 1.94 10.04 5 8 C4.505 6.02 4.505 6.02 4 4 C1.50965614 2.70339566 1.50965614 2.70339566 -1 2 C-0.67 1.34 -0.34 0.68 0 0 Z " fill="#4E4E4E" transform="translate(86,79)"/>
<path d="M0 0 C0.75925781 -0.01160156 1.51851562 -0.02320313 2.30078125 -0.03515625 C5.45429056 -0.0185879 8.11523776 0.2214481 11.0546875 1.39453125 C13.3551609 4.54680156 12.5798965 7.76258612 12.125 11.4375 C11.82540738 14.09872511 11.6225145 16.69426598 11.5 19.375 C12.16 20.035 12.82 20.695 13.5 21.375 C10.5711738 23.04506115 8.45688029 23.6305038 5.09375 23.640625 C3.85431641 23.64449219 3.85431641 23.64449219 2.58984375 23.6484375 C1.73519531 23.64070313 0.88054687 23.63296875 0 23.625 C-0.85464844 23.63273437 -1.70929688 23.64046875 -2.58984375 23.6484375 C-3.41613281 23.64585937 -4.24242188 23.64328125 -5.09375 23.640625 C-5.84333984 23.63836914 -6.59292969 23.63611328 -7.36523438 23.63378906 C-9.76942314 23.34233891 -11.40857928 22.56755983 -13.5 21.375 C-12.84 20.715 -12.18 20.055 -11.5 19.375 C-11.65608939 15.95961544 -11.9787291 12.61915987 -12.3984375 9.22851562 C-12.9036949 3.92817113 -12.9036949 3.92817113 -11.0546875 1.39453125 C-7.38906369 -0.06835532 -3.8834073 -0.05933899 0 0 Z " fill="#FAFAFA" transform="translate(81.5,131.625)"/>
<path d="M0 0 C0.33 0 0.66 0 1 0 C1 17.49 1 34.98 1 53 C52.15 53 103.3 53 156 53 C156 53.99 156 54.98 156 56 C135.82505364 56.02333435 115.65011001 56.04098182 95.47515297 56.05181217 C86.10810521 56.05697399 76.74106582 56.06401451 67.37402344 56.07543945 C59.21211058 56.08538978 51.05020379 56.09185426 42.88828504 56.09408849 C38.56445845 56.09539501 34.2406492 56.09847713 29.91682816 56.10573006 C25.85069198 56.11249575 21.78458037 56.11461583 17.7184391 56.11310768 C16.22282465 56.11338376 14.72720941 56.11538564 13.23159981 56.11920547 C11.196042 56.1241512 9.16047114 56.12239555 7.12490845 56.12025452 C5.41313888 56.12163721 5.41313888 56.12163721 3.6667881 56.12304783 C1 56 1 56 -1 55 C-0.67 36.85 -0.34 18.7 0 0 Z " fill="#464646" transform="translate(3,4)"/>
<path d="M0 0 C9.10714286 5.89285714 9.10714286 5.89285714 13 10 C12.35799564 12.14698202 11.71129254 14.29255953 11.0625 16.4375 C10.70285156 17.63246094 10.34320313 18.82742187 9.97265625 20.05859375 C9 23 9 23 8 24 C5.46950598 24.07313567 2.96695163 24.09247527 0.4375 24.0625 C-0.27341797 24.05798828 -0.98433594 24.05347656 -1.71679688 24.04882812 C-3.47790013 24.03700864 -5.23896036 24.01907263 -7 24 C-9.27376292 19.03906272 -10.78623966 14.32187227 -12 9 C-8.04 6.03 -4.08 3.06 0 0 Z " fill="#FBFBFB" transform="translate(81,105)"/>
<path d="M0 0 C2.19263551 5.40850092 3.1143271 11.16931776 3 17 C2.34 17.66 1.68 18.32 1 19 C4.71279469 20.23759823 8.31306346 20.35608897 12.1875 20.5625 C12.93708984 20.60568359 13.68667969 20.64886719 14.45898438 20.69335938 C16.30578375 20.79922685 18.15286834 20.9000976 20 21 C20 22.32 20 23.64 20 25 C7.43611566 25.53170043 -2.82188171 23.89575237 -13 16 C-13.33 15.01 -13.66 14.02 -14 13 C-13.34 13 -12.68 13 -12 13 C-13.98 10.03 -15.96 7.06 -18 4 C-16 1 -16 1 -13.828125 0.48828125 C-12.97734375 0.43027344 -12.1265625 0.37226563 -11.25 0.3125 C-10.36054687 0.24804688 -9.47109375 0.18359375 -8.5546875 0.1171875 C-5.6985257 -0.0138291 -2.8585477 -0.07522494 0 0 Z " fill="#505050" transform="translate(68,134)"/>
<path d="M0 0 C0.03996094 0.56847656 0.07992187 1.13695313 0.12109375 1.72265625 C1.61183909 5.58534307 5.42135797 7.37010569 8.78320312 9.55664062 C11.37772177 11.3538042 12.84534961 12.41232853 13.6640625 15.5234375 C12.7417606 18.96308107 11.1319785 20.05951404 8.3125 22.1875 C7.44238281 22.86167969 6.57226562 23.53585938 5.67578125 24.23046875 C3.12604908 25.916642 0.92739986 27.13100402 -2 28 C-2.99 27.67 -3.98 27.34 -5 27 C-5.66 22.05 -6.32 17.1 -7 12 C-8.98 11.34 -10.96 10.68 -13 10 C-9.63843559 4.8845759 -5.32405622 2.6734043 0 0 Z " fill="#F8F8F8" transform="translate(67,84)"/>
<path d="M0 0 C0.70246995 1.8903376 1.38640849 3.78756828 2.0625 5.6875 C2.44535156 6.74324219 2.82820313 7.79898438 3.22265625 8.88671875 C4.0233052 12.09333792 3.9237249 13.8686307 3 17 C-1.48266523 18.57467984 -6.06858167 17.69653102 -10.6875 17.22851562 C-12.45345714 17.07669915 -14.22780252 17.03112759 -16 17 C-16.66 17.66 -17.32 18.32 -18 19 C-20.47076861 13.9555141 -21.16508679 10.72988744 -21 5 C-7.55125285 -2.07289294 -7.55125285 -2.07289294 0 0 Z " fill="#F9F9F9" transform="translate(66,115)"/>
<path d="M0 0 C10.74259681 4.81776765 10.74259681 4.81776765 14 10 C12.02 10.66 10.04 11.32 8 12 C7.34 16.62 6.68 21.24 6 26 C4.35 26.66 2.7 27.32 1 28 C-1.39099707 26.64975419 -3.18131079 25.42408347 -5.25 23.6875 C-5.79140625 23.25759766 -6.3328125 22.82769531 -6.890625 22.38476562 C-11.93109158 18.35869295 -11.93109158 18.35869295 -12.4375 15.72265625 C-12 13 -12 13 -9.375 10.68359375 C-8.26111335 9.91845971 -7.13548682 9.17019588 -6 8.4375 C-3.85903855 7.04153527 -1.97776505 5.64519444 0 4 C0 2.68 0 1.36 0 0 Z " fill="#FAFAFA" transform="translate(95,84)"/>
<path d="M0 0 C4.05945326 1.53559842 8.03519761 3.23569549 12 5 C12.34615998 10.65394631 11.43425238 14.03006806 9 19 C8.34 18.34 7.68 17.68 7 17 C1.86538841 16.72975728 -2.94911248 17.16888517 -8.01953125 17.9765625 C-10 18 -10 18 -13 16 C-12.47706548 10.1431334 -11.36818784 5.39946827 -9 0 C-5.90881421 -1.5455929 -3.22587692 -0.83266225 0 0 Z " fill="#FAFAFA" transform="translate(106,115)"/>
<path d="M0 0 C0.33 0 0.66 0 1 0 C1 37.95 1 75.9 1 115 C0.67 115 0.34 115 0 115 C-0.33 96.85 -0.66 78.7 -1 60 C-1.33 76.83 -1.66 93.66 -2 111 C-2.33 111 -2.66 111 -3 111 C-3.95488416 74.96347382 -3.95488416 39.03652618 -3 3 C-2.34 3 -1.68 3 -1 3 C-0.67 2.01 -0.34 1.02 0 0 Z " fill="#6C6C6C" transform="translate(162,1)"/>
<path d="M0 0 C0.33 0 0.66 0 1 0 C1.09327128 7.87645316 1.16405134 15.75277346 1.20724869 23.62964249 C1.22799647 27.28845172 1.25607432 30.94687916 1.30175781 34.60546875 C1.34568008 38.14574608 1.36923301 41.68565958 1.37950897 45.22618866 C1.39034054 47.21343502 1.4214899 49.20053794 1.45318604 51.18756104 C1.45711222 67.30663636 -4.55104091 80.95139576 -15.875 92.375 C-20.50118421 96.90232169 -25.373018 100.76022248 -31 104 C-31.66 103.67 -32.32 103.34 -33 103 C-31.47852876 99.10888102 -29.1540727 97.31975754 -25.875 94.8125 C-13.01976584 84.49470422 -6.2670224 73.19408943 -3 57 C-2.82770874 56.22742859 -2.65541748 55.45485718 -2.47790527 54.65887451 C-1.99600067 51.9777493 -1.84878062 49.48851197 -1.81054688 46.76660156 C-1.79382935 45.74914856 -1.77711182 44.73169556 -1.7598877 43.68341064 C-1.74631226 42.59679138 -1.73273682 41.51017212 -1.71875 40.390625 C-1.70034058 39.26807312 -1.68193115 38.14552124 -1.66296387 36.98895264 C-1.5843132 32.18950873 -1.51627385 27.38992969 -1.44775391 22.59033203 C-1.39620152 19.08618862 -1.33891162 15.58217233 -1.28125 12.078125 C-1.26767456 10.98340881 -1.25409912 9.88869263 -1.2401123 8.76080322 C-1.22339478 7.75595886 -1.20667725 6.7511145 -1.18945312 5.71582031 C-1.17066101 4.38275848 -1.17066101 4.38275848 -1.15148926 3.02276611 C-1 1 -1 1 0 0 Z " fill="#535353" transform="translate(161,60)"/>
<path d="M0 0 C0.33 0 0.66 0 1 0 C1 19.14 1 38.28 1 58 C1.99 58 2.98 58 4 58 C4.04635853 65.88431428 4.08188702 73.76857152 4.10362434 81.65298843 C4.11405763 85.31411812 4.12820844 88.97515449 4.15087891 92.63623047 C4.17262364 96.16995917 4.18457205 99.70359816 4.18975449 103.23738861 C4.19524344 105.24042217 4.21085381 107.24341969 4.22659302 109.24639893 C4.22674408 110.46736267 4.22689514 111.68832642 4.22705078 112.94628906 C4.231492 114.02106506 4.23593323 115.09584106 4.24050903 116.20318604 C4.00081863 118.99048039 3.43995607 120.63129165 2 123 C0.01849338 116.4001715 -0.27422627 110.4014692 -0.22705078 103.53515625 C-0.22734283 102.41232742 -0.22763489 101.2894986 -0.22793579 100.13264465 C-0.22654884 96.44251626 -0.21101734 92.75259288 -0.1953125 89.0625 C-0.19158012 86.49560659 -0.18873421 83.92871175 -0.18673706 81.36181641 C-0.17989594 75.30945555 -0.16415285 69.25717859 -0.14403808 63.20484924 C-0.12162436 56.31000472 -0.11067194 49.41515658 -0.10064721 42.52028465 C-0.0797849 28.34681741 -0.04464323 14.1734113 0 0 Z " fill="#6A6A6A" transform="translate(0,1)"/>
<path d="M0 0 C0.56203125 0.53753906 1.1240625 1.07507813 1.703125 1.62890625 C1.703125 2.61890625 1.703125 3.60890625 1.703125 4.62890625 C-0.46561752 4.12286633 -2.29655127 3.62906812 -4.296875 2.62890625 C-9.21684428 2.09772373 -13.07015097 1.87785072 -17.359375 4.50390625 C-20.77197489 8.24675774 -20.62530564 11.2366055 -20.58984375 16.14453125 C-20.18225373 19.60089459 -18.83410998 21.31554494 -16.296875 23.62890625 C-13.83317968 24.86075391 -12.1074249 24.79622967 -9.359375 24.81640625 C-8.04646484 24.83767578 -8.04646484 24.83767578 -6.70703125 24.859375 C-4.03443165 24.79553974 -4.03443165 24.79553974 -1.296875 22.62890625 C-0.306875 22.62890625 0.683125 22.62890625 1.703125 22.62890625 C1.578125 24.44140625 1.578125 24.44140625 0.703125 26.62890625 C-3.67135292 29.54522486 -7.10237564 30.17569566 -12.296875 29.62890625 C-17.49031213 27.95644345 -20.29314308 26.1901288 -23.296875 21.62890625 C-23.709375 21.03078125 -24.121875 20.43265625 -24.546875 19.81640625 C-26.0186985 15.52358772 -26.09008182 11.66541866 -24.45703125 7.47265625 C-22.00134989 3.0408542 -19.23070011 0.19054188 -14.55078125 -1.81640625 C-9.5575665 -3.045239 -4.43312579 -2.64630468 0 0 Z " fill="#575757" transform="translate(107.296875,17.37109375)"/>
<path d="M0 0 C7.92 0 15.84 0 24 0 C24.33 0.99 24.66 1.98 25 3 C17.74 3 10.48 3 3 3 C3 6.63 3 10.26 3 14 C7.62 14 12.24 14 17 14 C17 14.99 17 15.98 17 17 C12.38 17 7.76 17 3 17 C3 21.29 3 25.58 3 30 C2.01 30 1.02 30 0 30 C0 20.1 0 10.2 0 0 Z " fill="#414141" transform="translate(54,16)"/>
<path d="M0 0 C3.1875 0.4375 3.1875 0.4375 5.4375 3.0625 C8.5550662 9.0749491 9.53673194 12.69134031 8.1875 19.4375 C6.76958592 18.98304036 5.35321954 18.52375056 3.9375 18.0625 C2.75414063 17.67964844 2.75414063 17.67964844 1.546875 17.2890625 C-0.67877958 16.48576333 -2.72181672 15.54038338 -4.8125 14.4375 C-4.67220581 12.2912974 -4.52511836 10.14553782 -4.375 8 C-4.29378906 6.80503906 -4.21257812 5.61007813 -4.12890625 4.37890625 C-3.7201175 0.57868495 -3.7201175 0.57868495 0 0 Z " fill="#F5F5F5" transform="translate(108.8125,96.5625)"/>
<path d="M0 0 C2.31 0.33 4.62 0.66 7 1 C7.33 5.29 7.66 9.58 8 14 C-2.75 19 -2.75 19 -5 19 C-6.6367674 12.58932769 -5.13551163 8.71704595 -2 3 C-1.34 2.01 -0.68 1.02 0 0 Z " fill="#F6F6F6" transform="translate(51,97)"/>
<path d="M0 0 C0.66 1.32 1.32 2.64 2 4 C0.75479583 5.44165628 -0.49637923 6.87815652 -1.75 8.3125 C-2.44609375 9.11300781 -3.1421875 9.91351563 -3.859375 10.73828125 C-7.5346701 14.62148538 -7.5346701 14.62148538 -10 16 C-11.65 15.67 -13.3 15.34 -15 15 C-14.67 10.71 -14.34 6.42 -14 2 C-9.126739 0.4087311 -5.19209404 -0.21192221 0 0 Z " fill="#F8F8F8" transform="translate(111,135)"/>
<path d="M0 0 C2.1462026 0.14029419 4.29196218 0.28738164 6.4375 0.4375 C7.63246094 0.51871094 8.82742187 0.59992188 10.05859375 0.68359375 C13 1 13 1 14 2 C14.23481693 4.18292774 14.41363323 6.37203174 14.5625 8.5625 C14.68818359 10.35880859 14.68818359 10.35880859 14.81640625 12.19140625 C14.87699219 13.11824219 14.93757813 14.04507813 15 15 C13.24609375 15.66015625 13.24609375 15.66015625 11 16 C5.63284243 13.2577346 1.60175038 8.72729737 -2 4 C-1.34 2.68 -0.68 1.36 0 0 Z " fill="#F8F8F8" transform="translate(52,135)"/>
<path d="M0 0 C5.61 0 11.22 0 17 0 C17.66 1.65 18.32 3.3 19 5 C15.7 7.31 12.4 9.62 9 12 C5.14341602 9.84921278 1.45680903 7.76544722 -2 5 C-1.34 3.35 -0.68 1.7 0 0 Z " fill="#F9F9F9" transform="translate(73,82)"/>
<path d="M0 0 C0.33 0 0.66 0 1 0 C1.04628835 8.04923983 1.08185126 16.09842429 1.10362434 24.14776421 C1.11407298 27.8851783 1.1282517 31.6225015 1.15087891 35.35986328 C1.17256904 38.964905 1.18456049 42.56985917 1.18975449 46.17496109 C1.19345716 47.55211898 1.20068734 48.92927194 1.21146011 50.30639267 C1.22592335 52.23139545 1.22681648 54.15648587 1.22705078 56.08154297 C1.231492 57.17852509 1.23593323 58.2755072 1.24050903 59.4057312 C1 62 1 62 -1 64 C-2.0216854 60.64514152 -2.09486924 57.64304042 -2.03759766 54.14575195 C-2.02072906 52.9680574 -2.00386047 51.79036285 -1.98648071 50.57698059 C-1.9506337 48.67682442 -1.9506337 48.67682442 -1.9140625 46.73828125 C-1.89282318 45.43674606 -1.87158386 44.13521088 -1.84970093 42.79423523 C-1.8042875 40.04463576 -1.75506777 37.29513796 -1.703125 34.5456543 C-1.63670344 31.01480234 -1.57950971 27.48387197 -1.52509499 23.95281696 C-1.47207832 20.58954965 -1.4115212 17.22643209 -1.3515625 13.86328125 C-1.33171295 12.59043777 -1.3118634 11.3175943 -1.29141235 10.00617981 C-1.26823944 8.83794174 -1.24506653 7.66970367 -1.22119141 6.46606445 C-1.20263092 5.43222122 -1.18407043 4.39837799 -1.16494751 3.33320618 C-1 1 -1 1 0 0 Z " fill="#474747" transform="translate(161,60)"/>
<path d="M0 0 C0.69738281 0.00451172 1.39476563 0.00902344 2.11328125 0.01367188 C3.82555803 0.0253998 5.53779033 0.04333347 7.25 0.0625 C6.755 0.536875 6.26 1.01125 5.75 1.5 C4.13457803 2.82173698 4.13457803 2.82173698 4.25 4.0625 C3.34636719 4.07667969 2.44273438 4.09085937 1.51171875 4.10546875 C-0.25751953 4.17701172 -0.25751953 4.17701172 -2.0625 4.25 C-3.23425781 4.28480469 -4.40601563 4.31960937 -5.61328125 4.35546875 C-8.95029471 4.73198247 -8.95029471 4.73198247 -10.48046875 7.61328125 C-11.10888672 8.82564453 -11.10888672 8.82564453 -11.75 10.0625 C-12.74 10.0625 -13.73 10.0625 -14.75 10.0625 C-14.75 9.0725 -14.75 8.0825 -14.75 7.0625 C-18.71 9.0425 -18.71 9.0425 -22.75 11.0625 C-23.08 9.7425 -23.41 8.4225 -23.75 7.0625 C-21.83588443 6.07835567 -19.9186033 5.10036651 -18 4.125 C-16.93265625 3.57972656 -15.8653125 3.03445312 -14.765625 2.47265625 C-9.71964253 0.11307118 -5.53315031 -0.06798767 0 0 Z " fill="#525252" transform="translate(81.75,77.9375)"/>
<path d="M0 0 C7.92 0 15.84 0 24 0 C24.33 0.99 24.66 1.98 25 3 C17.74 3 10.48 3 3 3 C3 6.63 3 10.26 3 14 C2.34 14 1.68 14 1 14 C0.67 9.38 0.34 4.76 0 0 Z " fill="#484848" transform="translate(54,16)"/>
<path d="M0 0 C2.20914 3.31371 2.22481553 4.3446021 2.125 8.1875 C2.10695313 9.08855469 2.08890625 9.98960938 2.0703125 10.91796875 C2.03550781 11.94857422 2.03550781 11.94857422 2 13 C3.65 12.34 5.3 11.68 7 11 C7.33 12.32 7.66 13.64 8 15 C5.69 15.66 3.38 16.32 1 17 C0.67 18.32 0.34 19.64 0 21 C0 19.02 0 17.04 0 15 C-0.66 15 -1.32 15 -2 15 C-3.57530966 10.11654007 -2.44240704 5.78167814 -1 1 C-0.67 0.67 -0.34 0.34 0 0 Z " fill="#585858" transform="translate(44,103)"/>
<path d="M0 0 C0.33 0 0.66 0 1 0 C4.62870159 12.48519362 4.62870159 12.48519362 3 19 C-0.21076707 15.49734502 -1.5406395 11.67160964 -2 7 C-1.60407179 4.46701351 -0.90746078 2.41989541 0 0 Z " fill="#5D5D5D" transform="translate(4,117)"/>
<path d="M0 0 C2.27973299 3.41959949 2.85099879 4.90246675 3 9 C1.90303456 12.44539848 0.51142753 15.71767241 -1 19 C-1.66 18.34 -2.32 17.68 -3 17 C-2.59356606 11.2083163 -1.34449261 5.63903699 0 0 Z " fill="#5D5D5D" transform="translate(158,117)"/>
<path d="M0 0 C1.05960938 0.00676758 1.05960938 0.00676758 2.140625 0.01367188 C3.88545275 0.02546125 5.630237 0.04339676 7.375 0.0625 C6.88 0.536875 6.385 1.01125 5.875 1.5 C4.25957803 2.82173698 4.25957803 2.82173698 4.375 4.0625 C0.085 4.0625 -4.205 4.0625 -8.625 4.0625 C-8.955 3.0725 -9.285 2.0825 -9.625 1.0625 C-6.55966836 -0.47016582 -3.35745728 -0.04026471 0 0 Z " fill="#616161" transform="translate(81.625,77.9375)"/>
<path d="M0 0 C4.57715056 1.11336095 7.55120645 3.95222895 11 7 C10.34 8.32 9.68 9.64 9 11 C5.04 8.03 1.08 5.06 -3 2 C-2.01 1.34 -1.02 0.68 0 0 Z " fill="#575757" transform="translate(45,170)"/>
<path d="M0 0 C0.51046875 0.48082031 1.0209375 0.96164063 1.546875 1.45703125 C4.82256066 3.51737494 7.40752719 3.50960774 11.25 3.6875 C13.14492187 3.78611328 13.14492187 3.78611328 15.078125 3.88671875 C16.04234375 3.92410156 17.0065625 3.96148437 18 4 C18 4.33 18 4.66 18 5 C16.83082031 5.04898438 15.66164063 5.09796875 14.45703125 5.1484375 C12.90883196 5.22350171 11.36065599 5.29904795 9.8125 5.375 C9.04357422 5.4059375 8.27464844 5.436875 7.48242188 5.46875 C3.26102289 5.68616111 -0.14072328 6.09743072 -4 8 C-4.33 7.01 -4.66 6.02 -5 5 C-4.360625 4.731875 -3.72125 4.46375 -3.0625 4.1875 C-0.66868314 3.11332248 -0.66868314 3.11332248 0 0 Z " fill="#474747" transform="translate(72,127)"/>
<path d="M0 0 C3.78990676 4.99578618 5.24249682 7.57383437 5 14 C2.87961365 11.38485683 0.86908256 8.80362384 -1 6 C-0.625 2.8125 -0.625 2.8125 0 0 Z " fill="#555555" transform="translate(8,132)"/>
<path d="M0 0 C0.33 0.99 0.66 1.98 1 3 C1.99 3 2.98 3 4 3 C4 3.66 4 4.32 4 5 C2.23358317 5.6987693 0.46167336 6.38366583 -1.3125 7.0625 C-2.79169922 7.63677734 -2.79169922 7.63677734 -4.30078125 8.22265625 C-7 9 -7 9 -10 8 C-10 7.34 -10 6.68 -10 6 C-7 5 -4 4 -1 3 C-0.67 2.01 -0.34 1.02 0 0 Z " fill="#474747" transform="translate(61,108)"/>
<path d="M0 0 C2.64 0 5.28 0 8 0 C8.95024979 3.69541586 8.95024979 6.30458414 8 10 C7.34 9.67 6.68 9.34 6 9 C6.33 8.34 6.66 7.68 7 7 C6.67 6.34 6.34 5.68 6 5 C3.6859378 4.26924352 1.35171131 3.59861742 -1 3 C-0.01 2.67 0.98 2.34 2 2 C1.34 1.67 0.68 1.34 0 1 C0 0.67 0 0.34 0 0 Z " fill="#5C5C5C" transform="translate(105,131)"/>
<path d="M0 0 C0.33 0.99 0.66 1.98 1 3 C0.01 3.33 -0.98 3.66 -2 4 C-2.33 5.65 -2.66 7.3 -3 9 C-3.66 9 -4.32 9 -5 9 C-5.33 9.66 -5.66 10.32 -6 11 C-6.08096803 9.54257537 -6.13917774 8.08387193 -6.1875 6.625 C-6.22230469 5.81289062 -6.25710937 5.00078125 -6.29296875 4.1640625 C-6.19628906 3.44992188 -6.09960938 2.73578125 -6 2 C-3 0 -3 0 0 0 Z " fill="#454545" transform="translate(108,94)"/>
<path d="M0 0 C0.66 0.99 1.32 1.98 2 3 C1.34 3.66 0.68 4.32 0 5 C-0.64767793 7.57061311 -0.64767793 7.57061311 -1 10 C-1.99 10 -2.98 10 -4 10 C-4.6875 7.1875 -4.6875 7.1875 -5 4 C-3.49284711 1.91869363 -2.28773563 1.14386782 0 0 Z " fill="#444444" transform="translate(84,92)"/>
<path d="M0 0 C0.99 0 1.98 0 3 0 C3.1953125 6.0546875 3.1953125 6.0546875 3 8 C2.34 8.66 1.68 9.32 1 10 C0.67 9.67 0.34 9.34 0 9 C-0.66 10.32 -1.32 11.64 -2 13 C-1.85915204 11.20793453 -1.71216299 9.41635083 -1.5625 7.625 C-1.48128906 6.62726563 -1.40007812 5.62953125 -1.31640625 4.6015625 C-1 2 -1 2 0 0 Z " fill="#5D5D5D" transform="translate(94,138)"/>
<path d="M0 0 C1.46726798 3.81489674 0.43336419 6.29011622 -1 10 C-1.33 10 -1.66 10 -2 10 C-2.33 7.69 -2.66 5.38 -3 3 C-5.31 2.67 -7.62 2.34 -10 2 C-6.5980513 -0.09350689 -3.94727588 -0.17942163 0 0 Z " fill="#595959" transform="translate(68,134)"/>
<path d="M0 0 C1.50433594 0.01353516 1.50433594 0.01353516 3.0390625 0.02734375 C3.80992188 0.03894531 4.58078125 0.05054688 5.375 0.0625 C5.045 1.0525 4.715 2.0425 4.375 3.0625 C2.75036158 3.11645478 1.12521459 3.15527195 -0.5 3.1875 C-1.40492187 3.21070313 -2.30984375 3.23390625 -3.2421875 3.2578125 C-5.625 3.0625 -5.625 3.0625 -7.625 1.0625 C-4.98041621 -0.25979189 -2.94738699 -0.03427194 0 0 Z " fill="#474747" transform="translate(80.625,155.9375)"/>
<path d="M0 0 C0.99 0 1.98 0 3 0 C7 5.14285714 7 5.14285714 7 9 C6.01 9 5.02 9 4 9 C0 3.85714286 0 3.85714286 0 0 Z " fill="#4A4A4A" transform="translate(83,34)"/>
<path d="M0 0 C0.33 0.99 0.66 1.98 1 3 C1.66 3 2.32 3 3 3 C4.125 10.75 4.125 10.75 3 13 C2.34 13 1.68 13 1 13 C0.1276588 10.00519083 -0.10829766 7.36424089 -0.0625 4.25 C-0.05347656 3.45078125 -0.04445312 2.6515625 -0.03515625 1.828125 C-0.02355469 1.22484375 -0.01195312 0.6215625 0 0 Z " fill="#424242" transform="translate(41,115)"/>
<path d="M0 0 C0.1953125 6.0546875 0.1953125 6.0546875 0 8 C-0.66 8.66 -1.32 9.32 -2 10 C-2.66 9.67 -3.32 9.34 -4 9 C-4 6.36 -4 3.72 -4 1 C-2 0 -2 0 0 0 Z " fill="#5D5D5D" transform="translate(86,26)"/>
<path d="M0 0 C1.5625 1.125 1.5625 1.125 3 3 C2.9375 6.0625 2.9375 6.0625 2 9 C-0.0625 10.375 -0.0625 10.375 -2 11 C-2 10.34 -2 9.68 -2 9 C-1.34 9 -0.68 9 0 9 C-0.185625 7.700625 -0.37125 6.40125 -0.5625 5.0625 C-0.87890625 2.84765625 -0.87890625 2.84765625 -1 1 C-0.67 0.67 -0.34 0.34 0 0 Z " fill="#525252" transform="translate(59,102)"/>
<path d="M0 0 C0.33 0.66 0.66 1.32 1 2 C1.66 2 2.32 2 3 2 C3 2.66 3 3.32 3 4 C0.09451118 6.04169485 -1.40142046 7 -5 7 C-4.60196439 4.11424181 -4.20990931 3.17810487 -1.9375 1.25 C-1.298125 0.8375 -0.65875 0.425 0 0 Z " fill="#5C5C5C" transform="translate(101,181)"/>
<path d="M0 0 C3.37462715 0.54723683 5.08235 1.0549 8 3 C8 3.99 8 4.98 8 6 C5.6875 5.8125 5.6875 5.8125 3 5 C1.1875 2.4375 1.1875 2.4375 0 0 Z " fill="#505050" transform="translate(54,178)"/>
<path d="M0 0 C1.32 0.66 2.64 1.32 4 2 C1.03 4.475 1.03 4.475 -2 7 C-2.99 6.01 -3.98 5.02 -5 4 C-3.35 2.68 -1.7 1.36 0 0 Z " fill="#515151" transform="translate(95,186)"/>
<path d="M0 0 C-0.3125 1.875 -0.3125 1.875 -1 4 C-4 6 -4 6 -7 6 C-6.6875 4.125 -6.6875 4.125 -6 2 C-3 0 -3 0 0 0 Z " fill="#4E4E4E" transform="translate(109,40)"/>
<path d="M0 0 C1.65 0 3.3 0 5 0 C5.33 0.66 5.66 1.32 6 2 C5.01 3.485 5.01 3.485 4 5 C1 5 1 5 -1 4 C-0.67 2.68 -0.34 1.36 0 0 Z " fill="#535353" transform="translate(79,102)"/>
<path d="M0 0 C0.66 0.66 1.32 1.32 2 2 C0.35 2 -1.3 2 -3 2 C-3 2.33 -3 2.66 -3 3 C-6.3 2.67 -9.6 2.34 -13 2 C-13 1.67 -13 1.34 -13 1 C-8.60854301 0.14313034 -4.47525292 -0.25818767 0 0 Z " fill="#404040" transform="translate(109,132)"/>
<path d="M0 0 C2.625 0.9375 2.625 0.9375 5 2 C5 2.99 5 3.98 5 5 C2.625 4.6875 2.625 4.6875 0 4 C-0.66 3.01 -1.32 2.02 -2 1 C-1.34 0.67 -0.68 0.34 0 0 Z " fill="#515151" transform="translate(40,166)"/>
<path d="M0 0 C2.475 0.99 2.475 0.99 5 2 C5 2.99 5 3.98 5 5 C4.01 5.33 3.02 5.66 2 6 C1.01 5.01 0.02 4.02 -1 3 C-0.67 2.01 -0.34 1.02 0 0 Z " fill="#575757" transform="translate(22,152)"/>
<path d="M0 0 C2 2 2 2 2.046875 4.12890625 C1.89992188 5.33353516 1.89992188 5.33353516 1.75 6.5625 C1.66234375 7.36816406 1.5746875 8.17382812 1.484375 9.00390625 C1.32453125 9.66261719 1.1646875 10.32132813 1 11 C0.01 11.495 0.01 11.495 -1 12 C-1.14285714 3.42857143 -1.14285714 3.42857143 0 0 Z " fill="#505050" transform="translate(68,138)"/>
<path d="M0 0 C0.99 0.33 1.98 0.66 3 1 C3 3.64 3 6.28 3 9 C2.01 8.67 1.02 8.34 0 8 C0 5.36 0 2.72 0 0 Z " fill="#444444" transform="translate(58,95)"/>
<path d="M0 0 C0.99 0.33 1.98 0.66 3 1 C3 1.66 3 2.32 3 3 C0.40759181 4.8597711 -2.14410847 6.57205423 -5 8 C-3.375 2.25 -3.375 2.25 0 0 Z " fill="#454545" transform="translate(92,16)"/>
<path d="M0 0 C1.67542976 0.28604898 3.34385343 0.61781233 5 1 C5.33 2.32 5.66 3.64 6 5 C2.73045798 4.43628586 1.17424117 3.50037734 -1 1 C-0.67 0.67 -0.34 0.34 0 0 Z " fill="#474747" transform="translate(103,17)"/>
<path d="M0 0 C1.65 0.99 3.3 1.98 5 3 C4.01 3.99 3.02 4.98 2 6 C0.35 4.68 -1.3 3.36 -3 2 C-2.01 2 -1.02 2 0 2 C0 1.34 0 0.68 0 0 Z " fill="#606060" transform="translate(62,182)"/>
<path d="M0 0 C2 2 2 2 2 6 C1.01 6 0.02 6 -1 6 C-1 6.66 -1 7.32 -1 8 C-1.99 7.67 -2.98 7.34 -4 7 C-2.68 4.69 -1.36 2.38 0 0 Z " fill="#4D4D4D" transform="translate(154,132)"/>
<path d="M0 0 C1.65 0 3.3 0 5 0 C5 1.32 5 2.64 5 4 C3.02 4 1.04 4 -1 4 C-0.67 2.68 -0.34 1.36 0 0 Z " fill="#565656" transform="translate(50,131)"/>
<path d="M0 0 C0 1.65 0 3.3 0 5 C-1.98 5.99 -1.98 5.99 -4 7 C-4.33 5.68 -4.66 4.36 -5 3 C-1.125 0 -1.125 0 0 0 Z " fill="#535353" transform="translate(90,88)"/>
<path d="M0 0 C1.010625 0.0825 2.02125 0.165 3.0625 0.25 C3.7225 1.24 4.3825 2.23 5.0625 3.25 C1.6875 3.375 1.6875 3.375 -1.9375 3.25 C-2.5975 2.59 -3.2575 1.93 -3.9375 1.25 C-2.9375 0.25 -2.9375 0.25 0 0 Z " fill="#474747" transform="translate(96.9375,43.75)"/>
<path d="M0 0 C-0.99 0.99 -1.98 1.98 -3 3 C-4.65 1.68 -6.3 0.36 -8 -1 C-4.37673261 -2.2077558 -3.35853631 -1.54311128 0 0 Z " fill="#606060" transform="translate(50,172)"/>
<path d="M0 0 C1.98 0.495 1.98 0.495 4 1 C4 1.66 4 2.32 4 3 C4.66 3.33 5.32 3.66 6 4 C4.02 4.99 4.02 4.99 2 6 C1.67 5.01 1.34 4.02 1 3 C0.34 3 -0.32 3 -1 3 C-0.67 2.01 -0.34 1.02 0 0 Z " fill="#595959" transform="translate(89,128)"/>
<path d="M0 0 C4.75 0.75 4.75 0.75 7 3 C6.01 3 5.02 3 4 3 C3.67 3.66 3.34 4.32 3 5 C1.68 4.01 0.36 3.02 -1 2 C-0.67 1.34 -0.34 0.68 0 0 Z " fill="#565656" transform="translate(97,82)"/>
<path d="M0 0 C3.63 0 7.26 0 11 0 C11 1.32 11 2.64 11 4 C10.01 4 9.02 4 8 4 C8 3.34 8 2.68 8 2 C5.36 1.67 2.72 1.34 0 1 C0 0.67 0 0.34 0 0 Z " fill="#757575" transform="translate(77,155)"/>
<path d="M0 0 C0.66 1.32 1.32 2.64 2 4 C0.35 4.33 -1.3 4.66 -3 5 C-3.33 4.01 -3.66 3.02 -4 2 C-2.68 1.34 -1.36 0.68 0 0 Z " fill="#515151" transform="translate(50,114)"/>
<path d="M0 0 C0.99 0.66 1.98 1.32 3 2 C2.34 3.65 1.68 5.3 1 7 C0.34 7 -0.32 7 -1 7 C-1.625 5.1875 -1.625 5.1875 -2 3 C-1.34 2.01 -0.68 1.02 0 0 Z " fill="#494949" transform="translate(46,99)"/>
</svg>
