<svg width="2500" height="2500" viewBox="0 0 2500 2500" fill="none" xmlns="http://www.w3.org/2000/svg">
<rect width="2500" height="2500" fill="white"/>
<path fill-rule="evenodd" clip-rule="evenodd" d="M1802.84 2310.45C2131.82 2310.38 2400 2042.15 2400 1713.29C2400 1612.3 2374.66 1517.02 2327.75 1429.2L1774.89 502.937C1673.08 316.49 1475.85 190 1249.99 190C1024.15 190 826.892 316.49 725.088 502.937L172.238 1429.2C125.325 1517.04 100 1612.31 100 1713.29C100 2042.15 368.176 2310.38 697.156 2310.45H1802.84Z" fill="#282673"/>
<path fill-rule="evenodd" clip-rule="evenodd" d="M1362.28 1496.85C1377.12 1494.83 1382 1487.7 1381.33 1475.03L1366.97 1211.02C1366.41 1200.83 1373.52 1196.39 1383.92 1196.39L1507.74 1196.33C1504.87 1266.9 1407.07 1258.63 1410.3 1297.88L1431.72 1555.64C1432.22 1562.01 1426.75 1567.38 1420.48 1567.35L1343.34 1567.33C1324.09 1567.33 1312.83 1577.15 1312.83 1594.39V1637.06C1312.83 1654.97 1325.72 1663.76 1342.75 1663.76L1531.46 1663.66C1556.65 1663.66 1576.88 1663.66 1576.88 1624.31C1576.88 1605.22 1577.58 1586.37 1576.88 1567.23C1573.96 1487.68 1680.93 1477.65 1675.66 1269.39C1688.08 1181.06 1772.14 1137.42 1766.96 1033.67C1762.85 951.671 1695.71 887.977 1579.17 887.94L1497.94 887.916C1460.99 887.904 1433.88 838.372 1250.02 838.372C1066.14 838.372 1039.04 887.904 1002.09 887.916L920.877 887.953C804.32 887.99 737.183 951.671 733.09 1033.68C727.902 1137.43 811.966 1181.08 824.383 1269.4C819.109 1477.65 926.101 1487.69 923.176 1567.24C922.475 1586.39 923.176 1605.23 923.176 1624.32C923.176 1663.68 943.399 1663.68 968.613 1663.68L1157.31 1663.77C1174.32 1663.77 1187.22 1654.98 1187.22 1637.07V1594.4C1187.22 1577.16 1175.95 1567.34 1156.71 1567.34L1079.56 1567.39C1073.29 1567.39 1067.81 1562.01 1068.34 1555.65L1089.74 1297.89C1093 1258.68 995.18 1266.91 992.303 1196.34L1116.13 1196.4C1126.54 1196.4 1133.64 1200.85 1133.09 1211.03L1118.74 1475.04C1118.06 1487.72 1122.92 1494.85 1137.78 1496.86L1362.28 1496.85ZM1339.21 1823.84C1355.99 1823.84 1378.71 1820.96 1390.42 1806.38L1414.96 1763.5C1422.6 1749.72 1413.65 1733.37 1390.52 1733.37H1109.49C1086.34 1733.37 1077.4 1749.72 1085.02 1763.5L1109.56 1806.38C1121.3 1820.96 1144.01 1823.84 1160.79 1823.84H1339.21Z" fill="#D9C432"/>
</svg>
