<svg width="344" height="428" viewBox="0 0 344 428" fill="none" xmlns="http://www.w3.org/2000/svg">
<path d="M344 100.826V164.074C344 168.063 341.629 171.671 337.967 173.253L265.741 204.467C257.697 207.943 257.697 219.349 265.741 222.825L337.967 254.039C341.629 255.621 344 259.229 344 263.218V326.466C344 333.899 336.177 338.734 329.528 335.41L177.528 259.41C174.14 257.716 172 254.253 172 250.466V176.826C172 173.039 174.14 169.576 177.528 167.882L329.528 91.8821C336.177 88.5576 344 93.3925 344 100.826Z" fill="#F2F2F2"/>
<path fill-rule="evenodd" clip-rule="evenodd" d="M0 332.79V256.638V170.805V94.6522V90.9927C0 87.2049 2.14002 83.7423 5.52787 82.0484L167.513 1.05571C170.329 -0.351924 173.642 -0.351925 176.458 1.05571L240.09 32.8717C247.46 36.557 247.46 47.075 240.09 50.7603L91.5206 125.045C88.1327 126.739 85.9927 130.201 85.9927 133.989V293.454C85.9927 297.241 88.1327 300.704 91.5206 302.398L240.09 376.682C247.46 380.368 247.46 390.886 240.09 394.571L176.458 426.387C173.642 427.795 170.329 427.795 167.513 426.387L5.52787 345.394C2.14002 343.7 0 340.238 0 336.45V332.79Z" fill="#F2F2F2"/>
</svg>
