<svg width="2500" height="2500" viewBox="0 0 2500 2500" fill="none" xmlns="http://www.w3.org/2000/svg">
<g clip-path="url(#clip0_1_1163)">
<path fill-rule="evenodd" clip-rule="evenodd" d="M0 0H2500V2500H0V0Z" fill="white"/>
<path fill-rule="evenodd" clip-rule="evenodd" d="M1244.47 760.976H598.588C598.588 760.976 550.025 1178.21 689.758 1547.26C847.987 1965.16 1244.47 2151.45 1244.47 2151.45C1244.47 2151.45 1640.98 1965.16 1799.22 1547.26C1938.93 1178.21 1890.39 760.976 1890.39 760.976H1244.47Z" fill="#F4CF34" stroke="#CC2229" stroke-width="13.6183" stroke-miterlimit="2.613"/>
<path fill-rule="evenodd" clip-rule="evenodd" d="M1247.57 1173.92C1445.55 1173.92 1606.73 1027.08 1623.82 839.865H1811.65C1811.65 839.865 1840.46 1271.37 1685.88 1594.85C1542.55 1894.88 1244.47 2060.35 1244.47 2060.35C1244.47 2060.35 946.411 1894.88 803.045 1594.85C648.49 1271.37 677.3 839.865 677.3 839.865H865.172C882.221 1027.1 1049.58 1173.92 1247.57 1173.92Z" fill="#F4CF34" stroke="#CC2229" stroke-width="13.6183" stroke-miterlimit="2.613"/>
<path fill-rule="evenodd" clip-rule="evenodd" d="M890.185 2113.1C769.494 2014.23 692.709 1866.54 692.709 1701.58C692.644 1605.34 719.123 1510.94 769.235 1428.77L1244.59 1793.09L1732.93 1431.87C1781.8 1513.34 1807.57 1606.58 1807.47 1701.58C1807.47 1865 1732.31 2011.45 1613.56 2110.33L1825.59 2290.85C1987.3 2143.1 2088.21 1933.73 2088.21 1701.58C2088.21 1434.98 1955.24 1198.45 1749.87 1050.71L1244.59 1428.26L756.64 1046.3C547.744 1193.73 412 1432.32 412 1701.58C412 1936.29 515.314 2147.7 680.155 2295.76L890.185 2113.1Z" fill="#CC2229" stroke="black" stroke-width="54.4471" stroke-miterlimit="2.613"/>
<path fill-rule="evenodd" clip-rule="evenodd" d="M829.669 2396.9L849.449 2274.15H851.731L908.312 2374.89L964.347 2274.15H966.601L986.6 2396.9H972.872L959.238 2309.12L910.02 2396.9H906.523L856.662 2308.42L843.111 2396.9H829.669Z" fill="black" stroke="black" stroke-width="4.53942" stroke-miterlimit="2.613"/>
<path fill-rule="evenodd" clip-rule="evenodd" d="M1080.46 2271.05C1101.54 2271.05 1119.18 2277.26 1133.4 2289.66C1147.58 2302.07 1154.68 2317.33 1154.68 2335.48C1154.68 2353.46 1147.58 2368.7 1133.4 2381.22C1119.26 2393.76 1101.99 2400 1081.61 2400C1060.97 2400 1043.56 2393.78 1029.37 2381.33C1015.18 2368.87 1008.07 2353.76 1008.07 2336.08C1008.07 2324.29 1011.3 2313.35 1017.73 2303.3C1024.28 2293.18 1033.43 2285.01 1044.23 2279.66C1055.43 2273.9 1067.87 2270.94 1080.46 2271.05ZM1081.13 2283.08C1070.84 2283.08 1061.09 2285.43 1051.88 2290.18C1042.68 2294.91 1035.48 2301.28 1030.3 2309.25C1025.14 2317.24 1022.45 2326.56 1022.54 2336.07C1022.54 2350.66 1028.24 2362.97 1039.67 2373.05C1051.15 2383.05 1064.96 2388.07 1081.12 2388.07C1091.91 2388.07 1101.88 2385.78 1111.01 2381.13C1120.24 2376.52 1127.38 2370.19 1132.51 2362.22C1137.67 2354.18 1140.25 2345.28 1140.25 2335.48C1140.25 2325.74 1137.68 2316.97 1132.51 2309.12C1127.38 2301.19 1120.16 2294.9 1110.84 2290.17C1101.65 2285.47 1091.46 2283.04 1081.13 2283.08Z" fill="black"/>
<path d="M1080.46 2271.04C1101.54 2271.04 1119.18 2277.26 1133.4 2289.66C1147.58 2302.07 1154.68 2317.33 1154.68 2335.48C1154.68 2353.46 1147.58 2368.7 1133.4 2381.22C1119.26 2393.76 1101.99 2400 1081.61 2400C1060.97 2400 1043.56 2393.78 1029.37 2381.3C1015.18 2368.87 1008.07 2353.76 1008.07 2336.07C1008.07 2324.28 1011.3 2313.34 1017.73 2303.28C1024.28 2293.16 1033.43 2285 1044.23 2279.65C1055.44 2273.9 1067.87 2270.94 1080.46 2271.04ZM1081.13 2283.08C1070.84 2283.08 1061.09 2285.43 1051.88 2290.18C1042.68 2294.91 1035.48 2301.28 1030.3 2309.25C1025.14 2317.24 1022.45 2326.56 1022.54 2336.07C1022.54 2350.66 1028.24 2362.97 1039.67 2373.05C1051.15 2383.05 1064.96 2388.07 1081.12 2388.07C1091.91 2388.07 1101.88 2385.78 1111.01 2381.13C1120.24 2376.52 1127.38 2370.19 1132.51 2362.21C1137.67 2354.18 1140.25 2345.28 1140.25 2335.48C1140.25 2325.74 1137.68 2316.97 1132.51 2309.12C1127.38 2301.19 1120.16 2294.9 1110.84 2290.17C1101.65 2285.47 1091.46 2283.04 1081.13 2283.08Z" stroke="black" stroke-width="4.53942" stroke-miterlimit="2.613"/>
<path fill-rule="evenodd" clip-rule="evenodd" d="M1183.35 2274.15H1211.08C1226.53 2274.15 1237.01 2274.71 1242.5 2275.8C1250.77 2277.48 1257.49 2281.08 1262.66 2286.58C1267.84 2292.01 1270.42 2298.78 1270.42 2306.78C1270.42 2313.45 1268.61 2319.32 1265.03 2324.39C1261.48 2329.46 1256.42 2333.3 1249.8 2335.92C1243.16 2338.49 1234.02 2339.76 1222.34 2339.81L1272.43 2396.91H1255.18L1205.21 2339.81H1197.26V2396.91H1183.34L1183.35 2274.15ZM1197.26 2286.15V2327.89L1221.19 2328.08C1230.48 2328.08 1237.31 2327.27 1241.75 2325.73C1246.22 2324.16 1249.69 2321.7 1252.16 2318.31C1254.69 2314.84 1255.93 2311 1255.93 2306.78C1255.93 2302.67 1254.67 2298.94 1252.16 2295.61C1249.65 2292.23 1246.19 2289.69 1242.22 2288.32C1238.12 2286.9 1231.29 2286.17 1221.77 2286.17L1197.26 2286.15Z" fill="black"/>
<path d="M1183.35 2274.15H1211.08C1226.53 2274.15 1237.01 2274.71 1242.5 2275.8C1250.77 2277.48 1257.49 2281.08 1262.66 2286.58C1267.84 2292.01 1270.42 2298.78 1270.42 2306.78C1270.42 2313.45 1268.61 2319.32 1265.03 2324.39C1261.48 2329.46 1256.42 2333.3 1249.8 2335.92C1243.16 2338.49 1234.02 2339.76 1222.34 2339.81L1272.43 2396.91H1255.18L1205.21 2339.81H1197.26V2396.91H1183.34L1183.35 2274.15ZM1197.26 2286.15V2327.89L1221.19 2328.08C1230.48 2328.08 1237.31 2327.27 1241.75 2325.73C1246.22 2324.16 1249.69 2321.7 1252.16 2318.31C1254.69 2314.84 1255.93 2311 1255.93 2306.78C1255.93 2302.67 1254.67 2298.94 1252.16 2295.61C1249.65 2292.23 1246.18 2289.69 1242.2 2288.32C1238.12 2286.9 1231.29 2286.17 1221.75 2286.17L1197.26 2286.15Z" stroke="black" stroke-width="4.53942" stroke-miterlimit="2.613"/>
<path fill-rule="evenodd" clip-rule="evenodd" d="M1300.33 2274.15H1380.1V2286.22H1314.25V2324.62H1379.54V2336.66H1314.25V2384.81H1379.54V2396.9H1300.33V2274.15ZM1404.13 2274.15H1418.15V2385.05H1471.62V2396.9H1404.13V2274.15ZM1491.7 2274.15H1505.6V2396.9H1491.7V2274.15Z" fill="black" stroke="black" stroke-width="4.53942" stroke-miterlimit="2.613"/>
<path fill-rule="evenodd" clip-rule="evenodd" d="M1594.37 2274.15L1659.28 2396.9H1644.34L1622.48 2356.5H1562.47L1540.7 2396.9H1525.16L1590.93 2274.15H1594.37ZM1592.66 2300.18L1568.7 2344.66H1616.32L1592.66 2300.18Z" fill="black"/>
<path d="M1594.37 2274.15L1659.28 2396.9H1644.34L1622.48 2356.5H1562.47L1540.7 2396.9H1525.16L1590.93 2274.15H1594.37ZM1592.66 2300.18L1568.7 2344.66H1616.32L1592.66 2300.18Z" stroke="black" stroke-width="4.53942" stroke-miterlimit="2.613"/>
<path fill-rule="evenodd" clip-rule="evenodd" d="M562.511 725.827L416.972 576.6L546.747 573.745L492.378 464.953L692.927 514.65L662.792 566L592.537 551.274L633.6 626.283L544.233 627.704L594.313 676.759L562.511 725.827ZM838.275 176.731L908.326 360.246L969.047 337.706L942.149 267.204L1085.99 304.292L1017.66 124.739L959.43 142.894L986.669 215.09L838.275 176.731ZM1734.61 331.764L1772.04 285.1C1772.04 285.1 1737.3 244.897 1717.98 234.788C1698.69 224.693 1619.78 203.137 1579.25 259.131C1538.72 315.139 1565.72 375.655 1597.95 396.869C1637.39 422.783 1675.93 424.641 1675.93 424.641L1710.43 376.775C1710.43 376.775 1661.81 382.922 1638.98 362.554C1612.14 338.621 1619.67 308.09 1631.7 293.829C1647.32 275.332 1680.74 268.188 1706.64 290.81C1725.13 306.984 1734.61 331.764 1734.61 331.764ZM2009.28 664.205C2009.25 664.956 2057.4 641.05 2057.4 641.05C2057.4 641.05 2057.91 605.164 2040.25 580.534C2022.58 555.905 1986.16 523.871 1940.33 557.708C1913.2 577.734 1939.19 655.326 1915.68 659.547C1894.65 663.331 1884.67 597.719 1886.76 582.829L1842.33 610.587C1842.33 610.587 1849.16 679.3 1887 704.298C1924.04 728.737 1979.88 707.427 1979.99 661.705C1980.1 615.997 1978.36 600.137 1987.75 596.695C1997.16 593.293 2012.75 611.107 2009.28 664.205Z" fill="black" stroke="black" stroke-width="3.02196" stroke-miterlimit="2.613"/>
<path fill-rule="evenodd" clip-rule="evenodd" d="M1175.47 268.83L1165.98 293.104L1100.24 295.331L1206.4 100L1336.34 283.856L1263.53 287.517L1251.56 266.152L1175.47 268.83ZM1228.5 223.818L1209.98 192.058L1195.44 225.075L1228.5 223.818Z" fill="black"/>
<path d="M1175.47 268.83L1165.98 293.104L1100.24 295.331L1206.4 100L1336.34 283.856L1263.53 287.517L1251.56 266.152L1175.47 268.83ZM1228.5 223.818L1209.98 192.058L1195.44 225.075L1228.5 223.818Z" stroke="black" stroke-width="3.02196" stroke-miterlimit="2.613"/>
<path fill-rule="evenodd" clip-rule="evenodd" d="M1743.17 474.625L1717.72 482.753L1674.58 434.763L1898.33 391.624L1832.37 605.014L1783.63 552.599L1793.24 530.127L1743.17 474.625ZM1812.72 486.154L1826.57 452.249L1790.9 462.098L1812.72 486.154Z" fill="black"/>
<path d="M1743.17 474.625L1717.72 482.753L1674.58 434.763L1898.33 391.624L1832.37 605.014L1783.63 552.585L1793.26 530.113L1743.17 474.625ZM1812.72 486.154L1826.57 452.249L1790.9 462.098L1812.72 486.154Z" stroke="black" stroke-width="3.02196" stroke-miterlimit="2.613"/>
<path fill-rule="evenodd" clip-rule="evenodd" d="M650.812 436.266C621.907 405.708 601.662 342.296 669.91 289.675C736.381 238.449 799.862 266.289 824.136 298.227C847.81 329.386 856.976 390.872 800.681 434.668C740.985 481.1 679.732 466.824 650.812 436.266ZM700.7 396.746C680.497 378.537 678.734 348.648 696.712 329.974C714.702 311.327 745.657 310.945 765.847 329.154C786.037 347.364 787.8 377.253 769.822 395.913C751.832 414.573 720.877 414.942 700.7 396.746Z" fill="black"/>
<path d="M650.812 436.266C621.907 405.708 601.662 342.296 669.91 289.675C736.381 238.449 799.862 266.289 824.136 298.227C847.81 329.386 856.976 390.872 800.681 434.668C740.985 481.1 679.732 466.824 650.812 436.266ZM700.7 396.746C680.497 378.537 678.748 348.648 696.712 329.974C714.702 311.327 745.657 310.958 765.847 329.154C786.037 347.364 787.8 377.253 769.822 395.913C751.832 414.573 720.877 414.942 700.7 396.746Z" stroke="black" stroke-width="3.02196" stroke-miterlimit="2.613"/>
<path fill-rule="evenodd" clip-rule="evenodd" d="M1445.89 173.998L1435.89 212.138C1435.89 212.138 1465.03 220.348 1470.36 200.527C1474.84 183.848 1445.89 173.998 1445.89 173.998ZM1403.37 118.318L1349.68 295.959L1410.35 310.234L1427.61 245.675L1450.71 325.63L1522.04 343.593L1485.17 247.055C1485.17 247.055 1523.13 246.112 1531.89 214.597C1540.61 183.083 1519.1 154.45 1484.91 143.276C1450.69 132.129 1403.37 118.318 1403.37 118.318Z" fill="black"/>
<path d="M1445.89 173.998L1435.89 212.138C1435.89 212.138 1465.03 220.348 1470.36 200.527C1474.84 183.848 1445.89 173.998 1445.89 173.998ZM1403.37 118.318L1349.68 295.959L1410.35 310.234L1427.61 245.675L1450.71 325.63L1522.04 343.593L1485.17 247.055C1485.17 247.055 1523.13 246.112 1531.89 214.597C1540.61 183.083 1519.1 154.45 1484.91 143.276C1450.69 132.129 1403.37 118.318 1403.37 118.318Z" stroke="black" stroke-width="3.02196" stroke-miterlimit="2.613"/>
<path fill-rule="evenodd" clip-rule="evenodd" d="M905.006 803.145C905.006 621.803 1056.99 474.802 1244.48 474.802C1432 474.802 1583.97 621.803 1583.97 803.145C1583.97 984.488 1432 1131.49 1244.48 1131.49C1056.99 1131.47 905.006 984.474 905.006 803.145Z" fill="#A6A8AA"/>
<path fill-rule="evenodd" clip-rule="evenodd" d="M1111.22 516.071L1097.8 506.973L1100.87 505.553L1112.92 507.124L1111.22 516.071Z" fill="black"/>
<path fill-rule="evenodd" clip-rule="evenodd" d="M1109.52 525.196L1088.93 511.249C1091.85 509.787 1094.81 508.367 1097.78 506.973L1111.22 516.071L1109.52 525.196Z" fill="#212122"/>
<path fill-rule="evenodd" clip-rule="evenodd" d="M1107.82 534.321L1080.32 515.688C1083.17 514.172 1086.03 512.683 1088.93 511.249L1109.53 525.196L1107.82 534.321Z" fill="#323132"/>
<path fill-rule="evenodd" clip-rule="evenodd" d="M1106.12 543.447L1071.96 520.333C1074.72 518.762 1077.51 517.205 1080.31 515.702L1107.81 534.335L1106.12 543.447Z" fill="#3F3F40"/>
<path fill-rule="evenodd" clip-rule="evenodd" d="M1104.41 552.571L1063.88 525.1C1066.55 523.474 1069.26 521.876 1071.98 520.319L1106.13 543.432L1104.41 552.571Z" fill="#454546"/>
<path fill-rule="evenodd" clip-rule="evenodd" d="M1102.7 561.683L1056 530.059C1058.59 528.379 1061.21 526.726 1063.86 525.114L1104.39 552.585L1102.7 561.683Z" fill="#4C4C4E"/>
<path fill-rule="evenodd" clip-rule="evenodd" d="M1100.99 570.808L1048.35 535.154C1050.87 533.433 1053.43 531.725 1056.01 530.059L1102.71 561.683L1100.99 570.808Z" fill="#525355"/>
<path fill-rule="evenodd" clip-rule="evenodd" d="M1099.29 579.933L1040.91 540.4C1043.37 538.624 1045.85 536.876 1048.35 535.154L1100.99 570.808L1099.29 579.933Z" fill="#59595B"/>
<path fill-rule="evenodd" clip-rule="evenodd" d="M1092.17 585.384L1033.69 545.783C1036.08 543.952 1038.48 542.163 1040.91 540.4L1099.29 579.934L1099.05 581.15L1092.17 585.384Z" fill="#5F6062"/>
<path fill-rule="evenodd" clip-rule="evenodd" d="M1084.2 590.261L1026.68 551.301C1028.99 549.43 1031.32 547.585 1033.69 545.782L1092.17 585.384L1084.2 590.261Z" fill="#656668"/>
<path fill-rule="evenodd" clip-rule="evenodd" d="M1076.24 595.137L1019.88 556.97C1022.12 555.057 1024.39 553.172 1026.68 551.301L1084.2 590.26L1076.24 595.137Z" fill="#6B6C6E"/>
<path fill-rule="evenodd" clip-rule="evenodd" d="M1068.28 600.029L1013.25 562.776C1015.44 560.809 1017.64 558.87 1019.86 556.971L1076.23 595.138L1068.28 600.029Z" fill="#6F7072"/>
<path fill-rule="evenodd" clip-rule="evenodd" d="M1060.31 604.905L1006.85 568.691C1008.96 566.696 1011.11 564.716 1013.27 562.762L1068.29 600.014L1060.31 604.905Z" fill="#757678"/>
<path fill-rule="evenodd" clip-rule="evenodd" d="M1052.35 609.782L1000.62 574.756C1002.65 572.721 1004.73 570.699 1006.83 568.705L1060.3 604.918L1052.35 609.782Z" fill="#7A7B7E"/>
<path fill-rule="evenodd" clip-rule="evenodd" d="M1044.4 614.672L994.578 580.93C996.559 578.84 998.58 576.791 1000.62 574.756L1052.33 609.781L1044.4 614.672Z" fill="#808183"/>
<path fill-rule="evenodd" clip-rule="evenodd" d="M1036.42 619.549L988.731 587.255C990.658 585.124 992.597 583.007 994.578 580.944L1044.38 614.672L1036.42 619.549Z" fill="#858789"/>
<path fill-rule="evenodd" clip-rule="evenodd" d="M1028.46 624.439L983.062 593.689C984.93 591.521 986.82 589.371 988.731 587.241L1036.42 619.535L1028.46 624.439Z" fill="#8B8C8F"/>
<path fill-rule="evenodd" clip-rule="evenodd" d="M1020.49 629.316L977.584 600.26C979.374 598.047 981.204 595.861 983.062 593.703L1028.46 624.452L1020.49 629.316Z" fill="#919295"/>
<path fill-rule="evenodd" clip-rule="evenodd" d="M1012.54 634.192L972.284 606.94C974.019 604.686 975.795 602.445 977.598 600.246L1020.51 629.302L1012.54 634.192Z" fill="#949698"/>
<path fill-rule="evenodd" clip-rule="evenodd" d="M1004.58 639.083L967.161 613.757C968.842 611.462 970.549 609.194 972.284 606.94L1012.54 634.193L1004.58 639.083Z" fill="#9A9C9E"/>
<path fill-rule="evenodd" clip-rule="evenodd" d="M996.613 643.96L972.148 627.39L964.552 617.391L967.162 613.757L1004.58 639.083L996.613 643.96Z" fill="#A0A2A4"/>
<path fill-rule="evenodd" clip-rule="evenodd" d="M988.636 648.85L988.226 648.563L972.148 627.39L996.614 643.96L988.636 648.85Z" fill="#A6A8AA"/>
<path fill-rule="evenodd" clip-rule="evenodd" d="M1000.62 811.765L958.569 783.297L958.665 783.16L958.692 783.133C960.031 781.351 961.402 779.593 962.804 777.86C962.804 777.86 978.718 793.706 1000.62 811.765Z" fill="black"/>
<path fill-rule="evenodd" clip-rule="evenodd" d="M1058.03 859.14L954.444 788.98L958.583 783.283L1000.63 811.752C1017.87 825.972 1038.81 841.559 1058.6 851.872C1058.34 854.289 1058.15 856.712 1058.03 859.14Z" fill="#212122"/>
<path fill-rule="evenodd" clip-rule="evenodd" d="M1057.61 867.35L950.482 794.785C951.671 792.968 952.9 791.165 954.17 789.376L954.457 788.993L1058.04 859.153C1057.88 861.407 1057.73 864.139 1057.61 867.35Z" fill="#323132"/>
<path fill-rule="evenodd" clip-rule="evenodd" d="M1057.32 875.655L946.671 800.727C947.9 798.747 949.171 796.766 950.468 794.785L1057.59 867.35C1057.47 870.117 1057.38 872.886 1057.32 875.655Z" fill="#3F3F40"/>
<path fill-rule="evenodd" clip-rule="evenodd" d="M1057.18 884.042L943.051 806.751C944.225 804.757 945.428 802.749 946.684 800.727L1057.33 875.655C1057.25 878.277 1057.21 881.078 1057.18 884.042Z" fill="#454546"/>
<path fill-rule="evenodd" clip-rule="evenodd" d="M1057.17 892.526L939.567 812.885C940.688 810.864 941.849 808.801 943.051 806.752L1057.18 884.043C1057.16 886.761 1057.14 889.575 1057.17 892.526Z" fill="#4C4C4E"/>
<path fill-rule="evenodd" clip-rule="evenodd" d="M1057.29 901.104L936.234 819.114C937.3 817.079 938.406 814.988 939.567 812.885L1057.17 892.525C1057.18 895.285 1057.24 898.153 1057.29 901.104Z" fill="#525355"/>
<path fill-rule="evenodd" clip-rule="evenodd" d="M1057.57 909.779L933.037 825.439C934.048 823.376 935.128 821.259 936.234 819.114L1057.29 901.104C1057.36 903.918 1057.46 906.801 1057.57 909.779Z" fill="#59595B"/>
<path fill-rule="evenodd" clip-rule="evenodd" d="M1057.96 918.563L929.964 831.86C930.934 829.783 931.958 827.639 933.038 825.439L1057.57 909.779C1057.68 912.634 1057.8 915.571 1057.96 918.563Z" fill="#5F6062"/>
<path fill-rule="evenodd" clip-rule="evenodd" d="M1058.51 927.415L927.027 838.362C927.928 836.286 928.926 834.114 929.964 831.86L1057.96 918.563C1058.13 921.445 1058.3 924.396 1058.51 927.415Z" fill="#656668"/>
<path fill-rule="evenodd" clip-rule="evenodd" d="M1059.21 936.39L924.227 844.96C925.074 842.897 926.002 840.698 927.027 838.362L1058.51 927.415C1058.73 930.352 1058.95 933.343 1059.21 936.39Z" fill="#6B6C6E"/>
<path fill-rule="evenodd" clip-rule="evenodd" d="M1060.08 945.46L921.563 851.64C922.328 849.646 923.216 847.405 924.227 844.96L1059.21 936.389C1059.47 939.367 1059.75 942.386 1060.08 945.46Z" fill="#6F7072"/>
<path fill-rule="evenodd" clip-rule="evenodd" d="M1061.12 954.653L919.049 858.442C919.65 856.735 920.484 854.426 921.563 851.64L1060.08 945.46C1060.39 948.479 1060.75 951.552 1061.12 954.653Z" fill="#757678"/>
<path fill-rule="evenodd" clip-rule="evenodd" d="M1062.35 963.984L919.118 866.981C918.688 865.288 918.283 863.589 917.902 861.885C917.902 861.885 918.284 860.656 919.063 858.443L1061.13 954.654C1061.5 957.727 1061.91 960.828 1062.35 963.984Z" fill="#7A7B7E"/>
<path fill-rule="evenodd" clip-rule="evenodd" d="M1063.78 973.45L922.055 877.458C921.003 874.043 920.033 870.546 919.118 866.994L1062.35 963.997C1062.8 967.112 1063.26 970.267 1063.78 973.45Z" fill="#808183"/>
<path fill-rule="evenodd" clip-rule="evenodd" d="M1062.47 981.059L925.77 888.468C924.445 884.876 923.202 881.228 922.054 877.458L1063.78 973.45C1064.18 975.895 1064.6 978.327 1065.04 980.813L1062.47 981.059Z" fill="#858789"/>
<path fill-rule="evenodd" clip-rule="evenodd" d="M1051.46 982.084L930.415 900.094C928.756 896.259 927.207 892.378 925.77 888.455L1062.47 981.046C1058.8 981.416 1055.13 981.762 1051.46 982.084Z" fill="#8B8C8F"/>
<path fill-rule="evenodd" clip-rule="evenodd" d="M1040.31 983.026L936.289 912.566C934.204 908.47 932.245 904.31 930.415 900.094L1051.46 982.084C1048.11 982.384 1044.33 982.712 1040.31 983.026Z" fill="#919295"/>
<path fill-rule="evenodd" clip-rule="evenodd" d="M1029.06 983.901L943.706 926.09C941.079 921.668 938.605 917.158 936.289 912.566L1040.31 983.027C1036.69 983.327 1032.88 983.628 1029.06 983.901Z" fill="#949698"/>
<path fill-rule="evenodd" clip-rule="evenodd" d="M1017.66 984.665L953.364 941.129C949.962 936.236 946.74 931.219 943.706 926.089L1029.06 983.9C1025.23 984.187 1021.38 984.446 1017.66 984.665Z" fill="#9A9C9E"/>
<path fill-rule="evenodd" clip-rule="evenodd" d="M1005.92 985.226L966.833 958.752C962.085 953.085 957.59 947.21 953.364 941.144L1017.66 984.68C1013.51 984.912 1009.54 985.089 1005.92 985.226Z" fill="#A0A2A4"/>
<path fill-rule="evenodd" clip-rule="evenodd" d="M993.239 985.13L991.586 983.996C982.631 976.292 974.35 967.837 966.833 958.724L1005.92 985.198C1001.69 985.405 997.46 985.382 993.239 985.13Z" fill="#A6A8AA"/>
<path fill-rule="evenodd" clip-rule="evenodd" d="M1368.86 656.746L1334.6 633.55C1345.49 633.168 1352.35 633.195 1352.35 633.195C1357.95 640.012 1363.51 648.058 1368.86 656.746Z" fill="black"/>
<path fill-rule="evenodd" clip-rule="evenodd" d="M1380.69 677.278L1317.32 634.37C1323.78 633.988 1329.61 633.715 1334.61 633.537L1368.87 656.733C1372.92 663.303 1376.89 670.229 1380.69 677.278Z" fill="#212122"/>
<path fill-rule="evenodd" clip-rule="evenodd" d="M1390.53 696.471L1300.64 635.613C1306.49 635.094 1312.12 634.684 1317.32 634.37L1380.69 677.278C1384.11 683.63 1387.41 690.105 1390.53 696.471Z" fill="#323132"/>
<path fill-rule="evenodd" clip-rule="evenodd" d="M1399.2 714.899L1284.58 637.253C1290.04 636.61 1295.44 636.078 1300.64 635.613L1390.53 696.471C1393.6 702.755 1396.51 708.943 1399.2 714.899Z" fill="#3F3F40"/>
<path fill-rule="evenodd" clip-rule="evenodd" d="M1407.04 732.753L1269.13 639.329C1274.3 638.537 1279.48 637.854 1284.58 637.253L1399.2 714.899C1402.08 721.197 1404.69 727.221 1407.04 732.753Z" fill="#454546"/>
<path fill-rule="evenodd" clip-rule="evenodd" d="M1414.25 750.156L1254.36 641.869C1259.24 640.913 1264.17 640.08 1269.14 639.329L1407.06 732.753C1409.9 739.405 1412.33 745.334 1414.25 750.156Z" fill="#4C4C4E"/>
<path fill-rule="evenodd" clip-rule="evenodd" d="M1417.93 765.183L1240.36 644.93C1244.92 643.796 1249.61 642.785 1254.36 641.856L1414.25 750.143C1417.59 758.449 1419.46 763.53 1419.46 763.53L1417.93 765.183Z" fill="#525355"/>
<path fill-rule="evenodd" clip-rule="evenodd" d="M1410.51 772.696L1227.26 648.591C1231.45 647.266 1235.85 646.036 1240.34 644.93L1417.92 765.183C1415.69 767.519 1413.2 770.032 1410.51 772.696Z" fill="#59595B"/>
<path fill-rule="evenodd" clip-rule="evenodd" d="M1402.88 780.073L1215.22 652.976C1219.01 651.391 1223.02 649.93 1227.26 648.591L1410.51 772.696C1408.11 775.059 1405.58 777.518 1402.88 780.073Z" fill="#5F6062"/>
<path fill-rule="evenodd" clip-rule="evenodd" d="M1395.14 787.354L1205.41 658.877L1205.7 657.607L1205.77 657.498C1208.69 655.886 1211.86 654.383 1215.22 652.976L1402.88 780.073C1400.4 782.436 1397.81 784.868 1395.14 787.354Z" fill="#656668"/>
<path fill-rule="evenodd" clip-rule="evenodd" d="M1387.3 794.594L1202.93 669.724L1205.41 658.877L1395.14 787.354L1387.3 794.594Z" fill="#6B6C6E"/>
<path fill-rule="evenodd" clip-rule="evenodd" d="M1379.41 801.779L1200.45 680.584L1202.94 669.724L1387.32 794.594L1379.41 801.779Z" fill="#6F7072"/>
<path fill-rule="evenodd" clip-rule="evenodd" d="M1371.46 808.924L1197.97 691.444L1200.45 680.583L1379.41 801.779L1371.46 808.924Z" fill="#757678"/>
<path fill-rule="evenodd" clip-rule="evenodd" d="M1363.42 816.027L1195.48 702.304L1197.97 691.444L1371.46 808.924L1363.42 816.027Z" fill="#7A7B7E"/>
<path fill-rule="evenodd" clip-rule="evenodd" d="M1355.39 823.131L1193 713.15L1195.48 702.304L1363.42 816.041C1360.73 818.445 1358.03 820.795 1355.39 823.131Z" fill="#808183"/>
<path fill-rule="evenodd" clip-rule="evenodd" d="M1347.31 830.18L1190.51 724.01L1193 713.15L1355.39 823.131C1352.65 825.535 1349.96 827.898 1347.31 830.18Z" fill="#858789"/>
<path fill-rule="evenodd" clip-rule="evenodd" d="M1339.19 837.242L1188.04 734.87L1190.52 724.01L1347.32 830.179C1344.5 832.625 1341.81 834.988 1339.19 837.242Z" fill="#8B8C8F"/>
<path fill-rule="evenodd" clip-rule="evenodd" d="M1331.06 844.263L1185.55 745.717L1188.04 734.87L1339.19 837.242L1331.06 844.263Z" fill="#919295"/>
<path fill-rule="evenodd" clip-rule="evenodd" d="M1322.89 851.258L1183.08 756.577L1185.55 745.717L1331.06 844.263L1322.89 851.258Z" fill="#949698"/>
<path fill-rule="evenodd" clip-rule="evenodd" d="M1314.67 858.251L1180.58 767.45L1183.07 756.59L1322.88 851.271L1314.67 858.251Z" fill="#9A9C9E"/>
<path fill-rule="evenodd" clip-rule="evenodd" d="M1242.04 821.573L1178.12 778.283L1180.59 767.437L1314.68 858.238L1310.39 861.886C1289.94 847.733 1264.95 833.581 1242.04 821.573Z" fill="#A0A2A4"/>
<path fill-rule="evenodd" clip-rule="evenodd" d="M1176.44 789.69L1175.63 789.143L1178.11 778.283L1242.02 821.573C1220.48 810.305 1198.61 799.673 1176.44 789.69Z" fill="#A6A8AA"/>
<path fill-rule="evenodd" clip-rule="evenodd" d="M1436.49 1032.85L1418.75 1020.82C1425.47 1021.92 1431.9 1022.63 1437.72 1022.82L1436.49 1032.85Z" fill="black"/>
<path fill-rule="evenodd" clip-rule="evenodd" d="M1435.25 1043.05L1395.17 1015.92C1403.2 1017.9 1411.18 1019.61 1418.76 1020.83L1436.51 1032.85L1435.25 1043.05Z" fill="#212122"/>
<path fill-rule="evenodd" clip-rule="evenodd" d="M1433.99 1053.24L1367.45 1008.17C1376.36 1010.92 1385.81 1013.6 1395.17 1015.92L1435.25 1043.05L1433.99 1053.24Z" fill="#323132"/>
<path fill-rule="evenodd" clip-rule="evenodd" d="M1432.74 1063.45L1335.22 997.397C1345.87 1001.24 1356.62 1004.83 1367.44 1008.18L1433.98 1053.24L1432.74 1063.45Z" fill="#3F3F40"/>
<path fill-rule="evenodd" clip-rule="evenodd" d="M1431.48 1073.64L1313.58 993.791C1315 992.821 1316.38 991.837 1317.77 990.826C1317.77 990.826 1324.55 993.558 1335.22 997.397L1432.74 1063.45L1431.48 1073.64Z" fill="#454546"/>
<path fill-rule="evenodd" clip-rule="evenodd" d="M1425.72 1080.79L1305.44 999.337C1308.13 997.547 1310.85 995.703 1313.58 993.791L1431.48 1073.64L1431 1077.47C1429.27 1078.61 1427.51 1079.71 1425.72 1080.79Z" fill="#4C4C4E"/>
<path fill-rule="evenodd" clip-rule="evenodd" d="M1417.03 1085.94L1297.08 1004.69C1299.85 1002.97 1302.65 1001.19 1305.45 999.337L1425.73 1080.79C1422.86 1082.56 1419.95 1084.26 1417.03 1085.94Z" fill="#525355"/>
<path fill-rule="evenodd" clip-rule="evenodd" d="M1408.03 1090.9L1288.41 1009.88C1291.27 1008.22 1294.15 1006.5 1297.06 1004.69L1417.01 1085.94C1414.06 1087.64 1411.07 1089.29 1408.03 1090.9Z" fill="#59595B"/>
<path fill-rule="evenodd" clip-rule="evenodd" d="M1398.78 1095.67L1279.52 1014.9C1282.46 1013.31 1285.42 1011.63 1288.43 1009.88L1408.04 1090.9C1404.97 1092.54 1401.89 1094.11 1398.78 1095.67Z" fill="#5F6062"/>
<path fill-rule="evenodd" clip-rule="evenodd" d="M1389.2 1100.22L1270.31 1019.7C1273.33 1018.19 1276.39 1016.58 1279.52 1014.88L1398.78 1095.67C1395.59 1097.23 1392.4 1098.76 1389.2 1100.22Z" fill="#656668"/>
<path fill-rule="evenodd" clip-rule="evenodd" d="M1379.27 1104.56L1260.81 1024.32C1263.91 1022.87 1267.08 1021.33 1270.3 1019.7L1389.19 1100.22C1385.91 1101.71 1382.6 1103.16 1379.27 1104.56Z" fill="#6B6C6E"/>
<path fill-rule="evenodd" clip-rule="evenodd" d="M1369.03 1108.66L1250.98 1028.72C1254.17 1027.35 1257.46 1025.88 1260.81 1024.32L1379.27 1104.56C1375.88 1105.98 1372.47 1107.35 1369.03 1108.66Z" fill="#6F7072"/>
<path fill-rule="evenodd" clip-rule="evenodd" d="M1358.44 1112.53L1240.84 1032.9C1244.1 1031.62 1247.49 1030.24 1250.98 1028.73L1369.03 1108.67C1365.53 1110 1361.98 1111.3 1358.44 1112.53Z" fill="#757678"/>
<path fill-rule="evenodd" clip-rule="evenodd" d="M1347.41 1116.11L1230.29 1036.79C1233.64 1035.62 1237.16 1034.32 1240.82 1032.89L1358.42 1112.51C1354.78 1113.78 1351.09 1114.97 1347.41 1116.11Z" fill="#7A7B7E"/>
<path fill-rule="evenodd" clip-rule="evenodd" d="M1335.97 1119.41L1219.32 1040.41C1222.74 1039.36 1226.4 1038.16 1230.29 1036.79L1347.41 1116.11C1343.63 1117.28 1339.81 1118.39 1335.97 1119.41Z" fill="#808183"/>
<path fill-rule="evenodd" clip-rule="evenodd" d="M1324.07 1122.4L1207.83 1043.69C1211.22 1042.82 1215.06 1041.74 1219.32 1040.43L1335.97 1119.43C1332.02 1120.48 1328.05 1121.48 1324.07 1122.4Z" fill="#858789"/>
<path fill-rule="evenodd" clip-rule="evenodd" d="M1311.66 1125.05L1195.67 1046.51C1198.42 1045.97 1202.53 1045.09 1207.83 1043.69L1324.07 1122.4C1319.96 1123.35 1315.82 1124.24 1311.66 1125.05Z" fill="#8B8C8F"/>
<path fill-rule="evenodd" clip-rule="evenodd" d="M1298.7 1127.32L1196.9 1058.38L1191.89 1047.22L1191.92 1047.16C1192.19 1047.12 1193.49 1046.93 1195.66 1046.51L1311.65 1125.05C1307.36 1125.87 1303.05 1126.64 1298.7 1127.32Z" fill="#919295"/>
<path fill-rule="evenodd" clip-rule="evenodd" d="M1285.11 1129.15L1204.05 1074.25L1196.9 1058.36L1298.7 1127.31C1294.18 1128.02 1289.64 1128.63 1285.11 1129.15Z" fill="#949698"/>
<path fill-rule="evenodd" clip-rule="evenodd" d="M1270.79 1130.5L1211.38 1090.27C1210.96 1089.44 1210.55 1088.6 1210.15 1087.75L1204.06 1074.26L1285.12 1129.17C1280.37 1129.7 1275.59 1130.15 1270.79 1130.5Z" fill="#9A9C9E"/>
<path fill-rule="evenodd" clip-rule="evenodd" d="M1255.66 1131.3L1226.16 1111.33C1220.22 1104.21 1214.78 1096.82 1211.37 1090.27L1270.78 1130.5C1265.77 1130.89 1260.72 1131.15 1255.66 1131.3Z" fill="#A0A2A4"/>
<path fill-rule="evenodd" clip-rule="evenodd" d="M1226.16 1111.33L1255.66 1131.3C1251.97 1131.42 1248.28 1131.47 1244.58 1131.47C1238.16 1125.02 1232.02 1118.29 1226.16 1111.33Z" fill="#A6A8AA"/>
<path fill-rule="evenodd" clip-rule="evenodd" d="M1467.56 555.687L1408.19 515.484C1429.34 526.754 1449.24 540.23 1467.56 555.687Z" fill="#323132"/>
<path fill-rule="evenodd" clip-rule="evenodd" d="M1482.6 569.169L1390.02 506.481C1396.18 509.309 1402.25 512.314 1408.19 515.484L1467.56 555.686C1472.71 560.044 1477.72 564.538 1482.6 569.169Z" fill="#3F3F40"/>
<path fill-rule="evenodd" clip-rule="evenodd" d="M1487.43 575.726L1376.44 500.58C1381.03 502.451 1385.57 504.418 1390.02 506.481L1482.6 569.169C1484.95 571.409 1487.27 573.663 1489.54 575.972L1487.43 575.726Z" fill="#454546"/>
<path fill-rule="evenodd" clip-rule="evenodd" d="M1481.61 575.084L1365.1 496.181C1368.92 497.588 1372.71 499.049 1376.44 500.579L1487.43 575.726L1481.61 575.084Z" fill="#4C4C4E"/>
<path fill-rule="evenodd" clip-rule="evenodd" d="M1475.8 574.455L1354.98 492.629C1358.37 493.763 1361.76 494.938 1365.09 496.181L1481.6 575.083L1475.8 574.455Z" fill="#525355"/>
<path fill-rule="evenodd" clip-rule="evenodd" d="M1469.99 573.813L1345.79 489.692C1348.89 490.621 1351.95 491.618 1355 492.615L1475.81 574.441L1469.99 573.813Z" fill="#59595B"/>
<path fill-rule="evenodd" clip-rule="evenodd" d="M1464.2 573.185L1337.36 487.274C1340.19 488.053 1342.99 488.859 1345.79 489.706L1469.99 573.827L1464.2 573.185Z" fill="#5F6062"/>
<path fill-rule="evenodd" clip-rule="evenodd" d="M1458.38 572.557L1329.41 485.198C1332.07 485.868 1334.72 486.551 1337.36 487.275L1464.2 573.185L1458.38 572.557Z" fill="#656668"/>
<path fill-rule="evenodd" clip-rule="evenodd" d="M1452.59 571.914L1321.94 483.422C1324.42 483.982 1326.92 484.569 1329.41 485.198L1458.38 572.556L1452.59 571.914Z" fill="#6B6C6E"/>
<path fill-rule="evenodd" clip-rule="evenodd" d="M1446.77 571.286L1314.75 481.878C1317.16 482.37 1319.53 482.889 1321.92 483.422L1452.57 571.915L1446.77 571.286Z" fill="#6F7072"/>
<path fill-rule="evenodd" clip-rule="evenodd" d="M1440.96 570.645L1307.96 480.567C1310.26 480.977 1312.53 481.414 1314.77 481.879L1446.78 571.287L1440.96 570.645Z" fill="#757678"/>
<path fill-rule="evenodd" clip-rule="evenodd" d="M1435.17 570.016L1301.39 479.433C1303.61 479.788 1305.79 480.171 1307.95 480.567L1440.95 570.644L1435.17 570.016Z" fill="#7A7B7E"/>
<path fill-rule="evenodd" clip-rule="evenodd" d="M1429.35 569.374L1295.12 478.463C1297.23 478.764 1299.32 479.092 1301.39 479.433L1435.17 570.016L1429.35 569.374Z" fill="#808183"/>
<path fill-rule="evenodd" clip-rule="evenodd" d="M1423.56 568.745L1290.53 478.654L1289.44 477.684C1291.34 477.93 1293.22 478.203 1295.12 478.476L1429.35 569.387L1423.56 568.745Z" fill="#858789"/>
<path fill-rule="evenodd" clip-rule="evenodd" d="M1417.74 568.104L1307.02 493.121C1300.38 487.261 1294.64 482.234 1290.53 478.641L1423.56 568.732L1417.74 568.104Z" fill="#8B8C8F"/>
<path fill-rule="evenodd" clip-rule="evenodd" d="M1411.93 567.475L1323.22 507.396C1317.51 502.356 1312.02 497.506 1307.02 493.135L1417.74 568.117L1411.93 567.475Z" fill="#919295"/>
<path fill-rule="evenodd" clip-rule="evenodd" d="M1406.14 566.847L1339.38 521.644C1333.97 516.85 1328.49 512.041 1323.21 507.396L1411.92 567.475L1406.14 566.847Z" fill="#949698"/>
<path fill-rule="evenodd" clip-rule="evenodd" d="M1400.32 566.204L1355.42 535.783L1339.38 521.644L1406.14 566.847L1400.32 566.204Z" fill="#9A9C9E"/>
<path fill-rule="evenodd" clip-rule="evenodd" d="M1394.5 565.563L1371.37 549.894L1355.42 535.796L1400.32 566.218L1394.5 565.563Z" fill="#A0A2A4"/>
<path fill-rule="evenodd" clip-rule="evenodd" d="M1388.71 564.934L1387.43 564.06C1385.21 562.107 1379.28 556.902 1371.36 549.88L1394.49 565.549L1388.71 564.934Z" fill="#A6A8AA"/>
<path fill-rule="evenodd" clip-rule="evenodd" d="M1569.56 708.423L1567.48 707.002L1568.18 704.024L1569.56 708.423Z" fill="#212122"/>
<path fill-rule="evenodd" clip-rule="evenodd" d="M1574.04 724.147L1564.83 717.931L1567.47 706.989L1569.55 708.41C1571.19 713.615 1572.68 718.86 1574.04 724.147Z" fill="#323132"/>
<path fill-rule="evenodd" clip-rule="evenodd" d="M1577.48 739.173L1562.17 728.805C1563.1 725.076 1563.99 721.415 1564.83 717.931L1574.04 724.147C1575.3 729.119 1576.45 734.132 1577.48 739.173Z" fill="#3F3F40"/>
<path fill-rule="evenodd" clip-rule="evenodd" d="M1580.09 753.653L1559.44 739.665C1560.37 736.004 1561.28 732.356 1562.16 728.805L1577.47 739.173C1578.47 743.968 1579.34 748.79 1580.09 753.653Z" fill="#454546"/>
<path fill-rule="evenodd" clip-rule="evenodd" d="M1581.96 767.601L1556.64 750.457L1559.44 739.665L1580.09 753.653C1580.82 758.271 1581.43 762.929 1581.96 767.601Z" fill="#4C4C4E"/>
<path fill-rule="evenodd" clip-rule="evenodd" d="M1583.19 781.125L1553.74 761.194C1554.73 757.67 1555.7 754.077 1556.65 750.471L1581.98 767.615C1582.47 772.082 1582.87 776.59 1583.19 781.125Z" fill="#525355"/>
<path fill-rule="evenodd" clip-rule="evenodd" d="M1583.84 794.238L1550.72 771.822C1551.71 768.407 1552.74 764.828 1553.74 761.18L1583.19 781.111C1583.48 785.468 1583.7 789.84 1583.84 794.238Z" fill="#59595B"/>
<path fill-rule="evenodd" clip-rule="evenodd" d="M1583.9 807.012L1547.51 782.355C1548.55 779.09 1549.62 775.538 1550.71 771.836L1583.82 794.253C1583.9 797.217 1583.96 800.181 1583.96 803.146C1583.96 804.43 1583.93 805.714 1583.9 807.012Z" fill="#5F6062"/>
<path fill-rule="evenodd" clip-rule="evenodd" d="M1583.54 819.442L1543.99 792.668C1545.11 789.649 1546.28 786.165 1547.51 782.354L1583.9 807.011C1583.88 811.164 1583.75 815.317 1583.54 819.442Z" fill="#656668"/>
<path fill-rule="evenodd" clip-rule="evenodd" d="M1582.69 831.559L1539.63 802.394C1540.94 800.318 1542.4 796.971 1544 792.668L1583.55 819.442C1583.32 823.5 1583.03 827.543 1582.69 831.559Z" fill="#6B6C6E"/>
<path fill-rule="evenodd" clip-rule="evenodd" d="M1581.4 843.389L1536.45 812.94C1536.9 808.651 1537.81 805.181 1539.44 802.695C1539.52 802.599 1539.58 802.49 1539.63 802.394L1582.69 831.559C1582.33 835.521 1581.91 839.469 1581.4 843.389Z" fill="#6F7072"/>
<path fill-rule="evenodd" clip-rule="evenodd" d="M1579.72 854.946L1536.2 825.453C1536.01 821.281 1536.09 817.101 1536.45 812.94L1581.4 843.389C1580.93 847.255 1580.37 851.121 1579.72 854.946Z" fill="#757678"/>
<path fill-rule="evenodd" clip-rule="evenodd" d="M1577.66 866.243L1536.84 838.594C1536.56 834.222 1536.34 829.845 1536.2 825.466L1579.72 854.959C1579.11 858.73 1578.41 862.486 1577.66 866.243Z" fill="#7A7B7E"/>
<path fill-rule="evenodd" clip-rule="evenodd" d="M1575.24 877.281L1537.62 851.804C1537.38 847.159 1537.09 842.747 1536.84 838.581L1577.66 866.229C1576.92 869.945 1576.12 873.633 1575.24 877.281Z" fill="#808183"/>
<path fill-rule="evenodd" clip-rule="evenodd" d="M1572.47 888.1L1538.13 864.836C1538.02 860.485 1537.85 856.136 1537.62 851.79L1575.24 877.267C1574.38 880.914 1573.43 884.521 1572.47 888.1Z" fill="#858789"/>
<path fill-rule="evenodd" clip-rule="evenodd" d="M1569.31 898.673L1538.21 877.595C1538.26 873.224 1538.21 868.962 1538.13 864.85L1572.47 888.114C1571.47 891.652 1570.44 895.176 1569.31 898.673Z" fill="#8B8C8F"/>
<path fill-rule="evenodd" clip-rule="evenodd" d="M1565.87 909.027L1537.75 889.971C1538.02 885.736 1538.14 881.61 1538.2 877.581L1569.3 898.659C1568.22 902.156 1567.1 905.598 1565.87 909.027Z" fill="#919295"/>
<path fill-rule="evenodd" clip-rule="evenodd" d="M1562.12 919.177L1536.75 901.992C1537.2 897.922 1537.53 893.919 1537.76 889.985L1565.89 909.041C1564.67 912.429 1563.41 915.817 1562.12 919.177Z" fill="#949698"/>
<path fill-rule="evenodd" clip-rule="evenodd" d="M1558.06 929.108L1535.16 913.617C1535.81 909.683 1536.34 905.803 1536.73 901.992L1562.1 919.177C1560.8 922.51 1559.44 925.816 1558.06 929.108Z" fill="#9A9C9E"/>
<path fill-rule="evenodd" clip-rule="evenodd" d="M1553.66 938.834L1533.01 924.846C1533.85 921.076 1534.58 917.319 1535.16 913.617L1558.06 929.108C1556.64 932.373 1555.18 935.615 1553.66 938.834Z" fill="#A0A2A4"/>
<path fill-rule="evenodd" clip-rule="evenodd" d="M1530.9 936.089L1530.29 935.679C1531.33 932.032 1532.21 928.425 1533.01 924.846L1553.66 938.835C1552.91 940.433 1552.17 942.017 1551.39 943.616L1530.9 936.089Z" fill="#A6A8AA"/>
<path fill-rule="evenodd" clip-rule="evenodd" d="M1354.41 632.718L1388.85 564.962C1388.85 564.962 1306.08 492.711 1291.41 478.067C1291.41 478.067 1238.47 472.152 1196.92 478.067C1141.41 485.949 1101.14 504.623 1101.14 504.623L1112.88 506.877L1098.22 582.515C1098.22 582.515 1164.77 621.953 1204.46 656.951C1204.46 656.951 1236.61 642.635 1276.75 637.226C1322.87 631.037 1354.41 632.718 1354.41 632.718Z" fill="white"/>
<path fill-rule="evenodd" clip-rule="evenodd" d="M1099.82 581.996C1099.82 581.996 1165.36 620.436 1205.06 655.435C1205.06 655.435 1236.97 641.31 1277.1 635.914C1323.21 629.712 1353.63 631.87 1353.63 631.87L1387.7 565.125C1387.7 565.125 1304.67 492.602 1290.03 477.958C1290.03 477.958 1239.22 472.138 1197.67 478.04C1142.18 485.935 1103.86 503.831 1103.86 503.831L1114.46 507.068L1099.82 581.996Z" fill="#F3F3F4"/>
<path fill-rule="evenodd" clip-rule="evenodd" d="M1101.4 581.491C1101.4 581.491 1165.95 618.948 1205.63 653.946C1205.63 653.946 1237.32 640.013 1277.5 634.617C1323.55 628.415 1352.85 631.038 1352.85 631.038L1386.58 565.29C1386.58 565.29 1303.22 492.507 1288.61 477.876C1288.61 477.876 1239.97 472.153 1198.41 478.04C1142.9 485.936 1106.57 503.053 1106.57 503.053L1116.03 507.287L1101.4 581.491Z" fill="#ECEDEE"/>
<path fill-rule="evenodd" clip-rule="evenodd" d="M1102.99 580.985C1102.99 580.985 1166.55 617.445 1206.23 652.457C1206.23 652.457 1237.69 638.728 1277.84 633.319C1323.95 627.13 1352.1 630.218 1352.1 630.218L1385.44 565.453C1385.44 565.453 1301.83 492.438 1287.21 477.794C1287.21 477.794 1240.74 472.152 1199.18 478.054C1143.68 485.936 1109.3 502.287 1109.3 502.287L1117.65 507.519L1102.99 580.985Z" fill="#E4E4E5"/>
<path fill-rule="evenodd" clip-rule="evenodd" d="M1104.56 580.466C1104.56 580.466 1167.12 615.942 1206.81 650.954C1206.81 650.954 1238.06 637.403 1278.21 632.007C1324.29 625.805 1351.32 629.357 1351.32 629.357L1384.32 565.603C1384.32 565.603 1300.44 492.328 1285.76 477.671C1285.76 477.671 1241.49 472.111 1199.91 478.026C1144.42 485.908 1112.03 501.467 1112.03 501.467L1119.22 507.697L1104.56 580.466Z" fill="#DBDCDD"/>
<path fill-rule="evenodd" clip-rule="evenodd" d="M1106.16 579.961C1106.16 579.961 1167.71 614.454 1207.38 649.452C1207.38 649.452 1238.4 636.105 1278.55 630.696C1324.66 624.494 1350.54 628.524 1350.54 628.524L1383.2 565.768C1383.2 565.768 1299.03 492.233 1284.38 477.576C1284.38 477.576 1242.23 472.098 1200.69 478.013C1145.18 485.895 1114.76 500.703 1114.76 500.703L1120.81 507.902L1106.16 579.961Z" fill="#D3D4D5"/>
<path fill-rule="evenodd" clip-rule="evenodd" d="M1107.74 579.455C1107.74 579.455 1168.3 612.964 1207.97 647.962C1207.97 647.962 1238.76 634.807 1278.92 629.412C1325 623.21 1349.76 627.69 1349.76 627.69L1382.04 565.945C1382.04 565.945 1297.57 492.165 1282.92 477.507C1282.92 477.507 1242.97 472.111 1201.4 478.013C1145.91 485.908 1117.44 499.938 1117.44 499.938L1122.36 508.134L1107.74 579.455Z" fill="#CCCDCF"/>
<path fill-rule="evenodd" clip-rule="evenodd" d="M1109.28 578.95C1109.28 578.95 1168.84 611.462 1208.54 646.46C1208.54 646.46 1239.1 633.496 1279.26 628.1C1325.34 621.898 1348.99 626.844 1348.99 626.844L1380.92 566.095C1380.92 566.095 1296.16 492.056 1281.52 477.412C1281.52 477.412 1243.72 472.098 1202.15 477.999C1146.66 485.881 1120.16 499.132 1120.16 499.132L1123.96 508.325L1109.28 578.95Z" fill="#C4C5C7"/>
<path fill-rule="evenodd" clip-rule="evenodd" d="M1097.67 582.501C1097.67 582.501 1190.36 640.763 1203.75 656.486L1175.07 788.692C1175.07 788.692 1113.89 813.65 1058.48 851.558C1058.48 851.558 998.239 814.579 963.842 777.6C963.842 777.6 962.885 714.762 988.676 650.025L1097.67 582.501Z" fill="#929496"/>
<path fill-rule="evenodd" clip-rule="evenodd" d="M964.634 777.245C964.634 777.245 963.501 714.994 989.305 650.271L1097.73 583.403C1097.73 583.403 1189.53 640.913 1202.91 656.65L1174.43 788.105C1174.43 788.105 1114.05 812.653 1058.62 850.561C1058.63 850.561 999.031 814.224 964.634 777.245Z" fill="#9A9C9E"/>
<path fill-rule="evenodd" clip-rule="evenodd" d="M965.399 776.904C965.399 776.904 964.129 715.268 989.906 650.531L1097.8 584.305C1097.8 584.305 1188.68 641.105 1202.07 656.828L1173.76 787.518C1173.76 787.518 1114.2 811.67 1058.77 849.564C1058.8 849.564 999.81 813.883 965.399 776.904Z" fill="#A2A4A6"/>
<path fill-rule="evenodd" clip-rule="evenodd" d="M966.192 776.548C966.192 776.548 964.757 715.513 990.535 650.776L1097.88 585.206C1097.88 585.206 1187.85 641.254 1201.23 656.978L1173.11 786.916C1173.11 786.916 1114.35 810.672 1058.93 848.566C1058.95 848.579 1000.59 813.527 966.192 776.548Z" fill="#AAACAE"/>
<path fill-rule="evenodd" clip-rule="evenodd" d="M966.97 776.207C966.97 776.207 965.372 715.773 991.176 651.049L1097.97 586.121C1097.97 586.121 1187.04 641.446 1200.41 657.169L1172.49 786.343C1172.49 786.343 1114.53 809.702 1059.11 847.596C1059.11 847.582 1001.37 813.185 966.97 776.207Z" fill="#B0B2B4"/>
<path fill-rule="evenodd" clip-rule="evenodd" d="M967.735 775.852C967.735 775.852 965.987 716.033 991.778 651.31L1098.04 587.01C1098.04 587.01 1186.19 641.597 1199.59 657.32L1171.84 785.729C1171.84 785.729 1114.68 808.692 1059.26 846.6C1059.27 846.613 1002.15 812.831 967.735 775.852Z" fill="#B9BABC"/>
<path fill-rule="evenodd" clip-rule="evenodd" d="M968.514 775.51C968.514 775.51 966.601 716.292 992.42 651.555L1098.12 587.911C1098.12 587.911 1185.37 641.774 1198.76 657.498L1171.19 785.141C1171.19 785.141 1114.83 807.708 1059.42 845.616C1059.42 845.616 1002.92 812.476 968.514 775.51Z" fill="#C1C3C5"/>
<path fill-rule="evenodd" clip-rule="evenodd" d="M969.306 775.155C969.306 775.155 967.23 716.538 993.034 651.828L1098.19 588.826C1098.19 588.826 1184.54 641.965 1197.94 657.675L1170.54 784.567C1170.54 784.567 1114.99 806.738 1059.59 844.632C1059.6 844.632 1003.69 812.134 969.306 775.155Z" fill="#CACBCD"/>
<path fill-rule="evenodd" clip-rule="evenodd" d="M970.098 774.813C970.098 774.813 967.872 716.797 993.649 652.074L1098.29 589.728C1098.29 589.728 1183.71 642.129 1197.11 657.852L1169.91 783.966C1169.91 783.966 1115.19 805.754 1059.77 843.648C1059.77 843.648 1004.48 811.778 970.098 774.813Z" fill="#D3D4D5"/>
<path fill-rule="evenodd" clip-rule="evenodd" d="M970.863 774.458C970.863 774.458 968.5 717.043 994.291 652.32L1098.37 590.602C1098.37 590.602 1182.9 642.265 1196.27 657.989L1169.25 783.351C1169.25 783.351 1115.32 804.729 1059.92 842.624C1059.93 842.651 1005.27 811.437 970.863 774.458Z" fill="#DBDCDD"/>
<path fill-rule="evenodd" clip-rule="evenodd" d="M971.642 774.117C971.642 774.117 969.115 717.316 994.919 652.579L1098.44 591.517C1098.44 591.517 1182.07 642.457 1195.47 658.18L1168.61 782.777C1168.61 782.777 1115.5 803.76 1060.09 841.668C1060.08 841.668 1006.05 811.095 971.642 774.117Z" fill="#E4E4E5"/>
<path fill-rule="evenodd" clip-rule="evenodd" d="M972.407 773.775C972.407 773.775 969.73 717.576 995.534 652.839L1098.52 592.419C1098.52 592.419 1181.22 642.621 1194.62 658.344L1167.94 782.19C1167.94 782.19 1115.64 802.763 1060.22 840.671C1060.22 840.671 1006.83 810.727 972.407 773.775Z" fill="#EAEBEC"/>
<path fill-rule="evenodd" clip-rule="evenodd" d="M973.199 773.42C973.199 773.42 970.358 717.822 996.149 653.099L1098.6 593.32C1098.6 593.32 1180.42 642.785 1193.8 658.522L1167.31 781.603C1167.31 781.603 1115.81 801.793 1060.39 839.687C1060.41 839.687 1007.61 810.399 973.199 773.42Z" fill="#F3F3F4"/>
<path fill-rule="evenodd" clip-rule="evenodd" d="M963.418 617.35L989.524 650.381C989.524 650.381 976.437 677.538 970.454 713.273C964.457 749.009 963.459 776.043 963.459 776.043C963.459 776.043 923.366 831.614 917.793 861.585L907.342 844.728C907.342 844.728 900.84 786.562 911.522 737.289C925.47 672.934 963.418 617.35 963.418 617.35Z" fill="#6D6E70"/>
<path fill-rule="evenodd" clip-rule="evenodd" d="M907.397 844.892C907.397 844.892 900.826 786.343 911.399 737.589C925.511 672.688 963.241 617.718 963.241 617.718L989.073 650.462C989.073 650.462 975.986 677.633 969.975 713.355C963.992 749.077 962.995 776.111 962.995 776.111C962.995 776.111 923.448 830.357 917.738 861.325L907.397 844.892Z" fill="#757678"/>
<path fill-rule="evenodd" clip-rule="evenodd" d="M907.41 845.056C907.41 845.056 900.744 786.152 911.235 737.903C925.497 672.428 963.009 618.087 963.009 618.087L988.567 650.558C988.567 650.558 975.481 677.729 969.497 713.451C963.5 749.173 962.503 776.207 962.503 776.207C962.503 776.207 923.502 829.127 917.669 861.079L907.41 845.056Z" fill="#7C7D80"/>
<path fill-rule="evenodd" clip-rule="evenodd" d="M907.465 845.247C907.465 845.247 900.69 785.974 911.112 738.217C925.565 672.196 962.831 618.456 962.831 618.456L988.116 650.64C988.116 650.64 975.03 677.81 969.019 713.532C963.036 749.255 962.039 776.302 962.039 776.302C962.039 776.302 923.584 827.884 917.601 860.847L907.465 845.247Z" fill="#838587"/>
<path fill-rule="evenodd" clip-rule="evenodd" d="M907.493 845.425C907.493 845.425 900.621 785.783 910.976 738.518C925.579 671.937 962.613 618.811 962.613 618.811L987.625 650.736C987.625 650.736 974.538 677.906 968.555 713.628C962.558 749.364 961.547 776.398 961.547 776.398C961.547 776.398 923.626 826.669 917.506 860.601L907.493 845.425Z" fill="#898A8D"/>
<path fill-rule="evenodd" clip-rule="evenodd" d="M907.547 845.602C907.547 845.602 900.58 785.592 910.839 738.832C925.62 671.691 962.421 619.193 962.421 619.193L987.174 650.831C987.174 650.831 974.087 677.988 968.09 713.724C962.107 749.46 961.096 776.48 961.096 776.48C961.096 776.48 923.735 825.439 917.478 860.369L907.547 845.602Z" fill="#919295"/>
<path fill-rule="evenodd" clip-rule="evenodd" d="M907.574 845.766C907.574 845.766 900.512 785.4 910.689 739.146C925.647 671.458 962.23 619.562 962.23 619.562L986.696 650.926C986.696 650.926 973.595 678.083 967.626 713.819C961.629 749.541 960.632 776.575 960.632 776.575C960.632 776.575 923.789 824.196 917.41 860.137L907.574 845.766Z" fill="#989A9C"/>
<path fill-rule="evenodd" clip-rule="evenodd" d="M907.615 845.944C907.615 845.944 900.444 785.209 910.525 739.447C925.633 671.199 961.998 619.931 961.998 619.931L986.204 651.022C986.204 651.022 973.117 678.166 967.12 713.901C961.137 749.624 960.126 776.671 960.126 776.671C960.126 776.671 923.817 822.967 917.314 859.891L907.615 845.944Z" fill="#A0A2A4"/>
<path fill-rule="evenodd" clip-rule="evenodd" d="M907.643 846.121C907.643 846.121 900.375 785.018 910.402 739.747C925.688 670.953 961.806 620.3 961.806 620.3L985.74 651.104C985.74 651.104 972.639 678.261 966.656 713.983C960.659 749.719 959.675 776.753 959.675 776.753C959.675 776.753 923.899 821.723 917.26 859.645L907.643 846.121Z" fill="#A8AAAC"/>
<path fill-rule="evenodd" clip-rule="evenodd" d="M907.67 846.313C907.67 846.313 900.334 784.84 910.252 740.089C925.702 670.721 961.588 620.683 961.588 620.683L985.248 651.214C985.248 651.214 972.161 678.371 966.164 714.107C960.181 749.842 959.17 776.876 959.17 776.876C959.17 776.876 923.953 820.508 917.178 859.44L907.67 846.313Z" fill="#B0B2B4"/>
<path fill-rule="evenodd" clip-rule="evenodd" d="M907.697 846.49C907.697 846.49 900.252 784.649 910.115 740.389C925.743 670.475 961.397 621.051 961.397 621.051L984.77 651.309C984.77 651.309 971.683 678.466 965.7 714.202C959.703 749.938 958.719 776.972 958.719 776.972C958.719 776.972 924.022 819.292 917.109 859.208L907.697 846.49Z" fill="#B9BABC"/>
<path fill-rule="evenodd" clip-rule="evenodd" d="M907.752 846.654C907.752 846.654 900.198 784.458 909.965 740.69C925.756 670.215 961.192 621.42 961.192 621.42L984.305 651.391C984.305 651.391 971.219 678.548 965.235 714.284C959.252 750.02 958.241 777.054 958.241 777.054C958.241 777.054 924.117 818.049 917.055 858.962L907.752 846.654Z" fill="#C1C3C5"/>
<path fill-rule="evenodd" clip-rule="evenodd" d="M907.779 846.832C907.779 846.832 900.143 784.267 909.829 741.004C925.77 669.983 960.973 621.789 960.973 621.789L983.814 651.487C983.814 651.487 970.727 678.644 964.744 714.38C958.747 750.102 957.763 777.15 957.763 777.15C957.763 777.15 924.158 816.82 916.973 858.73L907.779 846.832Z" fill="#CACBCD"/>
<path fill-rule="evenodd" clip-rule="evenodd" d="M907.82 847.009C907.82 847.009 900.088 784.075 909.705 741.304C925.811 669.71 960.782 622.144 960.782 622.144L983.363 651.555C983.363 651.555 970.29 678.726 964.293 714.448C958.309 750.184 957.299 777.218 957.299 777.218C957.299 777.218 924.254 815.563 916.918 858.47L907.82 847.009Z" fill="#D0D1D3"/>
<path fill-rule="evenodd" clip-rule="evenodd" d="M907.848 847.186C907.848 847.186 900.02 783.884 909.555 741.618C925.825 669.477 960.591 622.526 960.591 622.526L982.898 651.664C982.898 651.664 969.784 678.821 963.801 714.557C957.818 750.279 956.82 777.313 956.82 777.313C956.82 777.313 924.295 814.347 916.823 858.238L907.848 847.186Z" fill="#D9DADB"/>
<path fill-rule="evenodd" clip-rule="evenodd" d="M907.889 847.364C907.889 847.364 899.979 783.693 909.405 741.933C925.852 669.232 960.372 622.896 960.372 622.896L982.393 651.746C982.393 651.746 969.306 678.903 963.323 714.639C957.326 750.361 956.315 777.395 956.315 777.395C956.315 777.395 924.336 813.09 916.754 857.979L907.889 847.364Z" fill="#E1E2E3"/>
<path fill-rule="evenodd" clip-rule="evenodd" d="M907.93 847.542C907.93 847.542 899.925 783.501 909.269 742.247C925.907 668.999 960.195 623.264 960.195 623.264L981.956 651.842C981.956 651.842 968.855 678.999 962.886 714.735C956.889 750.443 955.892 777.491 955.892 777.491C955.892 777.491 924.445 811.861 916.713 857.746L907.93 847.542Z" fill="#EAEBEC"/>
<path fill-rule="evenodd" clip-rule="evenodd" d="M907.957 847.706C907.957 847.706 899.856 783.311 909.118 742.561C925.907 668.754 959.976 623.633 959.976 623.633L981.464 651.924C981.464 651.924 968.377 679.095 962.394 714.817C956.397 750.539 955.4 777.587 955.4 777.587C955.4 777.587 924.5 810.632 916.645 857.514L907.957 847.706Z" fill="#F3F3F4"/>
<path fill-rule="evenodd" clip-rule="evenodd" d="M1059.42 851.544C1059.42 851.544 1051.75 907.033 1064.18 980.963C1064.18 980.963 1115.81 1039.25 1191.33 1047.56C1191.33 1047.56 1254.4 1038.31 1316.55 991.154C1316.55 991.154 1322.29 888.523 1308.89 859.891C1308.89 859.891 1198.97 793.323 1174.12 788.706C1174.12 788.692 1108.15 816.423 1059.42 851.544Z" fill="#808183"/>
<path fill-rule="evenodd" clip-rule="evenodd" d="M1064.59 980.705C1064.59 980.705 1116.28 1038.64 1191.37 1047.05C1191.37 1047.05 1253.87 1037.93 1316.01 990.772C1316.01 990.772 1321.64 889.712 1308.37 860.233C1308.37 860.233 1199.06 793.993 1174.21 789.362C1174.21 789.362 1108.74 816.601 1060.01 851.722C1060.01 851.736 1052.14 906.733 1064.59 980.705Z" fill="#87898B"/>
<path fill-rule="evenodd" clip-rule="evenodd" d="M1064.97 980.404C1064.97 980.404 1116.7 1038 1191.4 1046.53C1191.4 1046.53 1253.35 1037.53 1315.48 990.376C1315.48 990.376 1320.99 890.901 1307.87 860.588C1307.87 860.588 1199.16 794.676 1174.31 790.045C1174.31 790.045 1109.34 816.806 1060.6 851.941C1060.6 851.927 1052.55 906.446 1064.97 980.404Z" fill="#8D8E91"/>
<path fill-rule="evenodd" clip-rule="evenodd" d="M1065.37 980.116C1065.37 980.116 1117.13 1037.37 1191.44 1046.01C1191.44 1046.01 1252.8 1037.15 1314.96 989.993C1314.96 989.993 1320.37 892.075 1307.35 860.929C1307.35 860.929 1199.24 795.331 1174.4 790.714C1174.4 790.714 1109.91 816.983 1061.2 852.118C1061.2 852.118 1052.94 906.159 1065.37 980.116Z" fill="#949698"/>
<path fill-rule="evenodd" clip-rule="evenodd" d="M1065.78 979.829C1065.78 979.829 1117.56 1036.74 1191.47 1045.51C1191.47 1045.51 1252.3 1036.77 1314.41 989.624C1314.41 989.624 1319.75 893.263 1306.88 861.298C1306.88 861.298 1199.35 796.028 1174.51 791.397C1174.51 791.397 1110.51 817.202 1061.8 852.323C1061.8 852.323 1053.35 905.885 1065.78 979.829Z" fill="#9C9EA0"/>
<path fill-rule="evenodd" clip-rule="evenodd" d="M1066.19 979.543C1066.19 979.543 1117.99 1036.11 1191.51 1044.99C1191.51 1044.99 1251.78 1036.38 1313.91 989.215C1313.91 989.215 1319.11 894.438 1306.38 861.653C1306.38 861.653 1199.44 796.684 1174.62 792.067C1174.62 792.067 1111.13 817.393 1062.39 852.514C1062.39 852.514 1053.73 905.599 1066.19 979.543Z" fill="#A4A6A8"/>
<path fill-rule="evenodd" clip-rule="evenodd" d="M1066.55 979.256C1066.55 979.256 1118.42 1035.5 1191.52 1044.49C1191.52 1044.49 1251.22 1035.99 1313.36 988.846C1313.36 988.846 1318.45 895.627 1305.86 862.009C1305.86 862.009 1199.55 797.367 1174.72 792.736C1174.72 792.736 1111.7 817.571 1062.98 852.692C1062.99 852.692 1054.14 905.299 1066.55 979.256Z" fill="#AAACAE"/>
<path fill-rule="evenodd" clip-rule="evenodd" d="M1066.96 978.969C1066.96 978.969 1118.86 1034.85 1191.58 1043.97C1191.58 1043.97 1250.71 1035.59 1312.83 988.436C1312.83 988.436 1317.81 896.788 1305.35 862.35C1305.35 862.35 1199.65 798.023 1174.81 793.392C1174.81 793.392 1112.3 817.762 1063.56 852.883C1063.56 852.883 1054.53 905.011 1066.96 978.969Z" fill="#B3B4B6"/>
<path fill-rule="evenodd" clip-rule="evenodd" d="M1067.36 978.683C1067.36 978.683 1119.27 1034.23 1191.59 1043.46C1191.59 1043.46 1250.17 1035.22 1312.29 988.068C1312.29 988.068 1317.2 897.99 1304.85 862.705C1304.85 862.705 1199.76 798.692 1174.91 794.075C1174.91 794.075 1112.89 817.967 1064.16 853.088C1064.18 853.075 1054.93 904.725 1067.36 978.683Z" fill="#BBBCBF"/>
<path fill-rule="evenodd" clip-rule="evenodd" d="M1067.76 978.396C1067.76 978.396 1119.72 1033.61 1191.64 1042.96C1191.64 1042.96 1249.65 1034.84 1311.8 987.685C1311.8 987.685 1316.58 899.179 1304.36 863.074C1304.36 863.074 1199.87 799.389 1175.03 794.758C1175.03 794.758 1113.49 818.159 1064.79 853.28C1064.78 853.266 1055.33 904.438 1067.76 978.396Z" fill="#C4C5C7"/>
<path fill-rule="evenodd" clip-rule="evenodd" d="M1068.17 978.109C1068.17 978.109 1120.14 1032.98 1191.67 1042.42C1191.67 1042.42 1249.13 1034.44 1311.27 987.289C1311.27 987.289 1315.94 900.34 1303.85 863.415C1303.85 863.415 1199.96 800.044 1175.14 795.414C1175.14 795.414 1114.11 818.336 1065.37 853.471C1065.35 853.471 1055.74 904.151 1068.17 978.109Z" fill="#CCCDCF"/>
<path fill-rule="evenodd" clip-rule="evenodd" d="M1068.55 977.821C1068.55 977.821 1120.58 1032.35 1191.71 1041.92C1191.71 1041.92 1248.59 1034.06 1310.72 986.906C1310.72 986.906 1315.28 901.528 1303.33 863.77C1303.33 863.77 1200.06 800.713 1175.24 796.096C1175.24 796.096 1114.67 818.527 1065.95 853.648C1065.97 853.648 1056.13 903.864 1068.55 977.821Z" fill="#D3D4D5"/>
<path fill-rule="evenodd" clip-rule="evenodd" d="M1068.96 977.535C1068.96 977.535 1121.01 1031.71 1191.74 1041.41C1191.74 1041.41 1248.06 1033.67 1310.19 986.51C1310.19 986.51 1314.64 902.703 1302.83 864.126C1302.83 864.126 1200.15 801.383 1175.32 796.766C1175.32 796.766 1115.28 818.732 1066.54 853.853C1066.54 853.853 1056.51 903.577 1068.96 977.535Z" fill="#DBDCDD"/>
<path fill-rule="evenodd" clip-rule="evenodd" d="M1069.34 977.248C1069.34 977.248 1121.44 1031.08 1191.77 1040.89C1191.77 1040.89 1247.53 1033.28 1309.66 986.127C1309.66 986.127 1314.03 903.891 1302.35 864.467C1302.35 864.467 1200.26 802.052 1175.43 797.435C1175.43 797.435 1115.87 818.909 1067.16 854.044C1067.16 854.044 1056.92 903.304 1069.34 977.248Z" fill="#E4E4E5"/>
<path fill-rule="evenodd" clip-rule="evenodd" d="M1069.75 976.947C1069.75 976.947 1121.87 1030.46 1191.82 1040.37C1191.82 1040.37 1247.01 1032.89 1309.12 985.745C1309.12 985.745 1313.37 905.08 1301.84 864.836C1301.84 864.836 1200.36 802.722 1175.51 798.104C1175.51 798.104 1116.46 819.101 1067.74 854.222C1067.74 854.222 1057.31 903.003 1069.75 976.947Z" fill="#ECEDEE"/>
<path fill-rule="evenodd" clip-rule="evenodd" d="M1070.15 976.674C1070.15 976.674 1122.3 1029.84 1191.84 1039.87C1191.84 1039.87 1246.46 1032.52 1308.62 985.362C1308.62 985.362 1312.76 906.255 1301.31 865.205C1301.31 865.205 1200.48 803.405 1175.65 798.788C1175.65 798.788 1117.06 819.306 1068.33 854.44C1068.33 854.427 1057.72 902.716 1070.15 976.674Z" fill="#F3F3F4"/>
<path fill-rule="evenodd" clip-rule="evenodd" d="M1419.8 763.721C1420.73 761.864 1479.03 767.423 1535.44 808.104C1535.44 808.104 1549.74 895.012 1529.7 935.679C1529.7 935.679 1471.37 1001.3 1436.03 1022.59C1436.03 1022.59 1383.46 1013.33 1316.56 990.239C1316.56 990.239 1320.37 922.757 1309.86 862.651C1309.85 862.651 1413.56 775.756 1419.8 763.721Z" fill="white"/>
<path fill-rule="evenodd" clip-rule="evenodd" d="M1317.69 989.379C1317.69 989.379 1321.66 924.505 1311.34 863.101C1311.34 863.101 1414.13 776.835 1420.35 764.8C1421.3 762.943 1478.27 768.325 1534.17 808.364C1534.17 808.364 1548.78 894.548 1528.76 935.215C1528.76 935.215 1470.92 1000.07 1435.54 1021.34C1435.54 1021.36 1383.11 1012.52 1317.69 989.379Z" fill="#F3F3F4"/>
<path fill-rule="evenodd" clip-rule="evenodd" d="M1318.86 988.518C1318.86 988.518 1322.95 926.267 1312.84 863.565C1312.84 863.565 1414.73 777.928 1420.95 765.893C1421.88 764.035 1477.58 769.253 1532.92 808.664C1532.92 808.664 1547.87 894.124 1527.8 934.791C1527.8 934.791 1470.47 998.859 1435.11 1020.14C1435.11 1020.14 1382.82 1011.7 1318.86 988.518Z" fill="#ECEDEE"/>
<path fill-rule="evenodd" clip-rule="evenodd" d="M1320.04 987.671C1320.04 987.671 1324.23 928.03 1314.33 864.03C1314.33 864.03 1415.29 779.021 1421.54 766.986C1422.46 765.142 1476.85 770.169 1531.67 808.965C1531.67 808.965 1546.93 893.687 1526.89 934.368C1526.89 934.368 1470 997.643 1434.65 1018.93C1434.65 1018.93 1382.52 1010.89 1320.04 987.671Z" fill="#E4E4E5"/>
<path fill-rule="evenodd" clip-rule="evenodd" d="M1321.19 986.81C1321.19 986.81 1325.53 929.792 1315.82 864.481C1315.82 864.481 1415.84 780.1 1422.08 768.065C1423.04 766.221 1476.14 771.071 1530.41 809.238C1530.41 809.238 1546 893.236 1525.96 933.917C1525.96 933.917 1469.55 996.427 1434.2 1017.7C1434.2 1017.7 1382.21 1010.07 1321.19 986.81Z" fill="#DBDCDD"/>
<path fill-rule="evenodd" clip-rule="evenodd" d="M1322.36 985.95C1322.36 985.95 1326.81 931.54 1317.32 864.945C1317.32 864.945 1416.44 781.193 1422.68 769.158C1423.64 767.3 1475.43 771.986 1529.19 809.525C1529.19 809.525 1545.07 892.799 1525.03 933.466C1525.03 933.466 1469.07 995.198 1433.72 1016.48C1433.72 1016.48 1381.91 1009.27 1322.36 985.95Z" fill="#D3D4D5"/>
<path fill-rule="evenodd" clip-rule="evenodd" d="M1323.51 985.117C1323.51 985.117 1328.1 933.316 1318.84 865.41C1318.84 865.41 1417.03 782.286 1423.27 770.251C1424.2 768.393 1474.69 772.915 1527.94 809.812C1527.94 809.812 1544.14 892.349 1524.07 933.043C1524.07 933.043 1468.65 993.982 1433.28 1015.27C1433.28 1015.27 1381.59 1008.45 1323.51 985.117Z" fill="#CCCDCF"/>
<path fill-rule="evenodd" clip-rule="evenodd" d="M1324.68 984.256C1324.68 984.256 1329.41 935.065 1320.31 865.861C1320.31 865.861 1417.62 783.365 1423.86 771.317C1424.79 769.473 1473.96 773.817 1526.68 810.085C1526.68 810.085 1543.2 891.912 1523.13 932.565C1523.13 932.565 1468.2 992.726 1432.82 1014.01C1432.82 1014.01 1381.29 1007.64 1324.68 984.256Z" fill="#C4C5C7"/>
<path fill-rule="evenodd" clip-rule="evenodd" d="M1489.17 575.261L1389.2 565.289L1353.82 632.567C1353.82 632.567 1390.99 686.403 1419.64 763.489C1419.64 763.489 1476.66 764.65 1536.5 808.678C1536.5 808.678 1564.14 742.383 1567.69 703.711C1567.69 703.724 1539.48 618.141 1489.17 575.261Z" fill="white"/>
<path fill-rule="evenodd" clip-rule="evenodd" d="M1354.56 632.567C1354.56 632.567 1391.65 685.952 1420.29 763.052C1420.29 763.052 1476.81 764.254 1536.24 807.885C1536.24 807.885 1563.59 741.619 1567.38 703.151C1567.38 703.151 1539.18 618.128 1488.88 575.261L1389.73 565.467L1354.56 632.567Z" fill="#F3F3F4"/>
<path fill-rule="evenodd" clip-rule="evenodd" d="M1355.31 632.567C1355.31 632.567 1392.32 685.515 1420.95 762.615C1420.95 762.615 1477.02 763.872 1536.02 807.066C1536.02 807.066 1563.1 740.826 1567.13 702.591C1567.13 702.591 1538.88 618.128 1488.58 575.248L1390.29 565.672L1355.31 632.567Z" fill="#ECEDEE"/>
<path fill-rule="evenodd" clip-rule="evenodd" d="M1356.06 632.567C1356.06 632.567 1392.99 685.064 1421.65 762.164C1421.65 762.164 1477.19 763.475 1535.81 806.26C1535.81 806.26 1562.59 740.047 1566.82 702.003C1566.82 702.003 1538.59 618.087 1488.29 575.234L1390.85 565.849L1356.06 632.567Z" fill="#E4E4E5"/>
<path fill-rule="evenodd" clip-rule="evenodd" d="M1356.8 632.567C1356.8 632.567 1393.64 684.627 1422.27 761.713C1422.27 761.713 1477.34 763.092 1535.59 805.44C1535.59 805.44 1562.07 739.268 1566.51 701.429C1566.51 701.429 1538.29 618.086 1487.99 575.206L1391.41 566.026L1356.8 632.567Z" fill="#DBDCDD"/>
<path fill-rule="evenodd" clip-rule="evenodd" d="M1357.55 632.567C1357.55 632.567 1394.31 684.176 1422.97 761.276C1422.97 761.276 1477.53 762.696 1535.36 804.634C1535.36 804.634 1561.56 738.476 1566.23 700.855C1566.23 700.855 1537.98 618.073 1487.71 575.193L1391.97 566.218L1357.55 632.567Z" fill="#D3D4D5"/>
<path fill-rule="evenodd" clip-rule="evenodd" d="M1358.27 632.567C1358.27 632.567 1394.99 683.739 1423.64 760.825C1423.64 760.825 1477.72 762.314 1535.11 803.829C1535.11 803.829 1561.06 737.712 1565.93 700.296C1565.93 700.296 1537.68 618.06 1487.38 575.193L1392.51 566.41L1358.27 632.567Z" fill="#CCCDCF"/>
<path fill-rule="evenodd" clip-rule="evenodd" d="M1359.03 632.567C1359.03 632.567 1395.69 683.289 1424.31 760.375C1424.31 760.375 1477.91 761.918 1534.9 803.023C1534.9 803.023 1560.57 736.92 1565.64 699.722C1565.64 699.722 1537.39 618.06 1487.09 575.193L1393.07 566.615L1359.03 632.567Z" fill="#C4C5C7"/>
<path fill-rule="evenodd" clip-rule="evenodd" d="M1359.79 632.567C1359.79 632.567 1396.35 682.837 1424.96 759.923C1424.96 759.923 1478.06 761.521 1534.64 802.202C1534.64 802.202 1560.04 736.127 1565.33 699.148C1565.33 699.148 1537.08 618.032 1486.75 575.165L1393.61 566.778L1359.79 632.567Z" fill="#BBBCBF"/>
<path fill-rule="evenodd" clip-rule="evenodd" d="M1360.54 632.567C1360.54 632.567 1397.02 682.387 1425.65 759.487C1425.65 759.487 1478.24 761.153 1534.43 801.411C1534.43 801.411 1559.56 735.362 1565.05 698.588C1565.05 698.588 1536.78 618.046 1486.48 575.18L1394.16 566.997L1360.54 632.567Z" fill="#B3B4B6"/>
<path fill-rule="evenodd" clip-rule="evenodd" d="M1361.27 632.567C1361.27 632.567 1397.68 681.936 1426.32 759.036C1426.32 759.036 1478.42 760.744 1534.21 800.591C1534.21 800.591 1559.04 734.57 1564.75 698.015C1564.75 698.015 1536.48 618.033 1486.18 575.153L1394.72 567.175L1361.27 632.567Z" fill="#AAACAE"/>
<path fill-rule="evenodd" clip-rule="evenodd" d="M1362 632.567C1362 632.567 1398.34 681.513 1426.97 758.599C1426.97 758.599 1478.6 760.361 1533.96 799.799C1533.96 799.799 1558.54 733.805 1564.45 697.441C1564.45 697.441 1536.17 618.032 1485.88 575.152L1395.27 567.366L1362 632.567Z" fill="#A4A6A8"/>
<path fill-rule="evenodd" clip-rule="evenodd" d="M1362.76 632.567C1362.76 632.567 1399.01 681.061 1427.64 758.148C1427.64 758.148 1478.76 759.964 1533.73 798.965C1533.73 798.965 1558 732.999 1564.18 696.853C1564.18 696.853 1535.9 618.005 1485.6 575.125L1395.85 567.529L1362.76 632.567Z" fill="#9C9EA0"/>
<path fill-rule="evenodd" clip-rule="evenodd" d="M1363.51 632.567C1363.51 632.567 1399.68 680.624 1428.31 757.711C1428.31 757.711 1478.92 759.582 1533.51 798.173C1533.51 798.173 1557.5 732.234 1563.91 696.293C1563.91 696.293 1535.57 617.991 1485.28 575.111L1396.37 567.721L1363.51 632.567Z" fill="#949698"/>
<path fill-rule="evenodd" clip-rule="evenodd" d="M1364.24 632.567C1364.24 632.567 1400.35 680.16 1428.97 757.26C1428.97 757.26 1479.1 759.186 1533.26 797.367C1533.26 797.367 1556.98 731.455 1563.58 695.733C1563.58 695.733 1535.27 617.991 1484.98 575.111L1396.93 567.912L1364.24 632.567Z" fill="#8D8E91"/>
<path fill-rule="evenodd" clip-rule="evenodd" d="M1365.02 632.567C1365.02 632.567 1401.02 679.723 1429.66 756.809C1429.66 756.809 1479.29 758.789 1533.02 796.547C1533.02 796.547 1556.47 730.676 1563.28 695.159C1563.28 695.159 1534.97 617.977 1484.67 575.097L1397.48 568.117L1365.02 632.567Z" fill="#87898B"/>
<path fill-rule="evenodd" clip-rule="evenodd" d="M993.089 985.267C990.056 992.029 980.89 1009.32 980.89 1009.32C980.89 1009.32 1006.19 1046.44 1072.92 1086.94C1139.64 1127.45 1214.69 1130.82 1245.21 1131.24C1245.21 1131.24 1215.11 1107.19 1191.55 1047.29C1191.55 1047.29 1154.05 1043.52 1120.04 1024.09C1086.02 1004.69 1064.21 979.789 1064.21 979.789C1064.21 979.789 1014.48 986.537 993.089 985.267Z" fill="#808183"/>
<path fill-rule="evenodd" clip-rule="evenodd" d="M980.89 1009.39C980.89 1009.39 1006.48 1046.81 1073.23 1087.11C1140.05 1127.45 1214.01 1130.75 1244.52 1131.19C1244.52 1131.19 1214.8 1107.56 1191.25 1047.76C1191.25 1047.76 1153.87 1043.99 1119.84 1024.58C1085.83 1005.17 1064.03 980.294 1064.03 980.294C1064.03 980.294 1014.3 986.879 992.939 985.622C989.906 992.357 980.89 1009.39 980.89 1009.39Z" fill="#87898B"/>
<path fill-rule="evenodd" clip-rule="evenodd" d="M980.876 1009.46C980.876 1009.46 1006.75 1047.19 1073.52 1087.27C1140.44 1127.46 1213.32 1130.72 1243.84 1131.13C1243.84 1131.13 1214.47 1107.91 1190.95 1048.26C1190.95 1048.26 1153.71 1044.51 1119.69 1025.09C1085.65 1005.68 1063.86 980.8 1063.86 980.8C1063.86 980.8 1014.17 987.207 992.816 985.936C989.742 992.698 980.876 1009.46 980.876 1009.46Z" fill="#8D8E91"/>
<path fill-rule="evenodd" clip-rule="evenodd" d="M980.876 1009.53C980.876 1009.53 1007.02 1047.56 1073.84 1087.45C1140.85 1127.47 1212.65 1130.67 1243.17 1131.09C1243.17 1131.09 1214.14 1108.27 1190.65 1048.75C1190.65 1048.75 1153.54 1045 1119.52 1025.59C1085.47 1006.18 1063.7 981.305 1063.7 981.305C1063.7 981.305 1014.02 987.561 992.638 986.277C989.592 993.039 980.876 1009.53 980.876 1009.53Z" fill="#949698"/>
<path fill-rule="evenodd" clip-rule="evenodd" d="M980.876 1009.61C980.876 1009.61 1007.3 1047.95 1074.12 1087.64C1141.26 1127.5 1211.96 1130.64 1242.47 1131.08C1242.47 1131.08 1213.81 1108.65 1190.32 1049.28C1190.32 1049.28 1153.34 1045.54 1119.31 1026.14C1085.3 1006.73 1063.5 981.838 1063.5 981.838C1063.5 981.838 1013.84 987.917 992.474 986.66C989.442 993.381 980.876 1009.61 980.876 1009.61Z" fill="#9C9EA0"/>
<path fill-rule="evenodd" clip-rule="evenodd" d="M980.863 1009.69C980.863 1009.69 1007.56 1048.32 1074.42 1087.82C1141.66 1127.51 1211.29 1130.6 1241.81 1131.04C1241.81 1131.04 1213.47 1109.02 1190.02 1049.76C1190.02 1049.76 1153.18 1046.04 1119.15 1026.63C1085.13 1007.2 1063.33 982.329 1063.33 982.329C1063.33 982.329 1013.69 988.244 992.324 986.987C989.278 993.722 980.863 1009.69 980.863 1009.69Z" fill="#A4A6A8"/>
<path fill-rule="evenodd" clip-rule="evenodd" d="M980.863 1009.76C980.863 1009.76 1007.83 1048.71 1074.72 1088.01C1142.04 1127.54 1210.59 1130.59 1241.12 1131C1241.12 1131 1213.17 1109.37 1189.73 1050.26C1189.73 1050.26 1153.01 1046.56 1118.97 1027.14C1084.94 1007.72 1063.15 982.849 1063.15 982.849C1063.15 982.849 1013.53 988.586 992.174 987.329C988.545 994.876 984.774 1002.35 980.863 1009.76Z" fill="#AAACAE"/>
<path fill-rule="evenodd" clip-rule="evenodd" d="M980.849 1009.81C980.849 1009.81 1008.12 1049.09 1075.02 1088.17C1142.47 1127.55 1209.92 1130.52 1240.44 1130.94C1240.44 1130.94 1212.85 1109.73 1189.43 1050.74C1189.43 1050.74 1152.85 1047.04 1118.82 1027.64C1084.78 1008.23 1063 983.354 1063 983.354C1063 983.354 1013.39 988.928 992.024 987.657C988.964 994.405 980.849 1009.81 980.849 1009.81Z" fill="#B3B4B6"/>
<path fill-rule="evenodd" clip-rule="evenodd" d="M980.849 1009.9C980.849 1009.9 1008.38 1049.46 1075.33 1088.35C1142.84 1127.55 1209.23 1130.48 1239.74 1130.9C1239.74 1130.9 1212.49 1110.1 1189.09 1051.22C1189.09 1051.22 1152.64 1047.54 1118.6 1028.13C1084.59 1008.72 1062.78 983.833 1062.78 983.833C1062.78 983.833 1013.21 989.242 991.86 987.985C988.332 995.36 984.661 1002.67 980.849 1009.9Z" fill="#BBBCBF"/>
<path fill-rule="evenodd" clip-rule="evenodd" d="M980.836 1009.96C980.836 1009.96 1008.68 1049.84 1075.63 1088.53C1143.26 1127.58 1208.54 1130.44 1239.07 1130.86C1239.07 1130.86 1212.18 1110.48 1188.8 1051.74C1188.8 1051.74 1152.48 1048.06 1118.46 1028.65C1084.42 1009.24 1062.62 984.352 1062.62 984.352C1062.62 984.352 1013.07 989.611 991.709 988.34C988.649 995.102 980.836 1009.96 980.836 1009.96Z" fill="#C4C5C7"/>
<path fill-rule="evenodd" clip-rule="evenodd" d="M980.836 1010.05C980.836 1010.05 1008.94 1050.21 1075.94 1088.7C1143.67 1127.61 1207.86 1130.41 1238.38 1130.83C1238.38 1130.83 1211.86 1110.83 1188.52 1052.24C1188.52 1052.24 1152.32 1048.58 1118.27 1029.17C1084.26 1009.77 1062.46 984.884 1062.46 984.884C1062.46 984.884 1012.91 989.966 991.559 988.696C988.124 995.882 984.549 1003 980.836 1010.05Z" fill="#CCCDCF"/>
<path fill-rule="evenodd" clip-rule="evenodd" d="M980.822 1010.12C980.822 1010.12 1009.21 1050.59 1076.24 1088.87C1144.05 1127.61 1207.19 1130.35 1237.72 1130.78C1237.72 1130.78 1211.53 1111.18 1188.2 1052.72C1188.2 1052.72 1152.15 1049.09 1118.11 1029.66C1084.08 1010.25 1062.29 985.376 1062.29 985.376C1062.29 985.376 1012.77 990.266 991.409 989.023C988.322 995.772 980.822 1010.12 980.822 1010.12Z" fill="#D3D4D5"/>
<path fill-rule="evenodd" clip-rule="evenodd" d="M980.822 1010.18C980.822 1010.18 1009.48 1050.97 1076.51 1089.06C1144.46 1127.62 1206.51 1130.31 1237.02 1130.75C1237.02 1130.75 1211.19 1111.57 1187.89 1053.23C1187.89 1053.23 1151.95 1049.59 1117.9 1030.18C1083.9 1010.77 1062.09 985.882 1062.09 985.882C1062.09 985.882 1012.58 990.636 991.231 989.365C987.895 996.371 984.425 1003.31 980.822 1010.18Z" fill="#DBDCDD"/>
<path fill-rule="evenodd" clip-rule="evenodd" d="M980.822 1010.27C980.822 1010.27 1009.77 1051.34 1076.84 1089.24C1144.86 1127.65 1205.82 1130.29 1236.35 1130.71C1236.35 1130.71 1210.89 1111.93 1187.6 1053.72C1187.6 1053.72 1151.77 1050.1 1117.75 1030.69C1083.74 1011.28 1061.94 986.387 1061.94 986.387C1061.94 986.387 1012.46 990.963 991.081 989.707C987.795 996.626 984.375 1003.48 980.822 1010.27Z" fill="#E4E4E5"/>
<path fill-rule="evenodd" clip-rule="evenodd" d="M980.808 1010.33C980.808 1010.33 1010.04 1051.73 1077.13 1089.4C1145.25 1127.65 1205.13 1130.23 1235.66 1130.67C1235.66 1130.67 1210.56 1112.28 1187.27 1054.22C1187.27 1054.22 1151.61 1050.62 1117.58 1031.21C1083.56 1011.8 1061.76 986.906 1061.76 986.906C1061.76 986.906 1012.28 991.319 990.917 990.048C987.871 996.81 980.808 1010.33 980.808 1010.33Z" fill="#ECEDEE"/>
<path fill-rule="evenodd" clip-rule="evenodd" d="M980.808 1010.4C980.808 1010.4 1010.3 1052.11 1077.43 1089.58C1145.65 1127.68 1204.46 1130.2 1234.97 1130.61C1234.97 1130.61 1210.24 1112.65 1186.97 1054.72C1186.97 1054.72 1151.41 1051.12 1117.4 1031.7C1083.37 1012.29 1061.57 987.412 1061.57 987.412C1061.57 987.412 1012.13 991.66 990.753 990.403C987.707 997.152 980.808 1010.4 980.808 1010.4Z" fill="#F3F3F4"/>
<path fill-rule="evenodd" clip-rule="evenodd" d="M1550.81 943.083L1529.3 935.406C1529.3 935.406 1505.51 959.339 1482.08 984.27C1458.6 1009.21 1436.67 1021.85 1436.67 1021.85L1430.62 1077.95C1430.62 1077.95 1483.05 1040.67 1509.59 1007.77C1532.58 979.297 1550.81 943.083 1550.81 943.083Z" fill="#929496"/>
<path fill-rule="evenodd" clip-rule="evenodd" d="M1431.19 1077.38C1431.19 1077.38 1482.93 1040.66 1509.47 1007.75C1532.45 979.297 1550.76 943.206 1550.76 943.206L1529.82 935.748C1529.82 935.748 1506 959.681 1482.57 984.611C1459.09 1009.56 1437.16 1022.2 1437.16 1022.2L1431.19 1077.38Z" fill="#9A9C9E"/>
<path fill-rule="evenodd" clip-rule="evenodd" d="M1431.75 1076.81C1431.75 1076.81 1482.79 1040.67 1509.37 1007.75C1532.35 979.297 1550.75 943.343 1550.75 943.343L1530.34 936.116C1530.34 936.116 1506.55 960.063 1483.06 984.993C1459.64 1009.92 1437.71 1022.57 1437.71 1022.57L1431.75 1076.81Z" fill="#A2A4A6"/>
<path fill-rule="evenodd" clip-rule="evenodd" d="M1432.34 1076.23C1432.34 1076.23 1482.69 1040.66 1509.24 1007.75C1532.24 979.297 1550.75 943.48 1550.75 943.48L1530.87 936.472C1530.87 936.472 1507.05 960.418 1483.6 985.349C1460.17 1010.28 1438.22 1022.93 1438.22 1022.93L1432.34 1076.23Z" fill="#AAACAE"/>
<path fill-rule="evenodd" clip-rule="evenodd" d="M1432.96 1075.66C1432.96 1075.66 1482.56 1040.66 1509.13 1007.75C1532.1 979.297 1550.72 943.63 1550.72 943.63L1531.38 936.854C1531.38 936.854 1507.56 960.787 1484.13 985.717C1460.67 1010.65 1438.72 1023.3 1438.72 1023.3L1432.96 1075.66Z" fill="#B0B2B4"/>
<path fill-rule="evenodd" clip-rule="evenodd" d="M1433.52 1075.08C1433.52 1075.08 1482.42 1040.65 1509.02 1007.74C1531.99 979.284 1550.7 943.753 1550.7 943.753L1531.89 937.209C1531.89 937.209 1508.06 961.143 1484.63 986.073C1461.18 1011.02 1439.23 1023.65 1439.23 1023.65L1433.52 1075.08Z" fill="#B9BABC"/>
<path fill-rule="evenodd" clip-rule="evenodd" d="M1434.1 1074.51C1434.1 1074.51 1482.31 1040.65 1508.89 1007.74C1531.87 979.283 1550.68 943.903 1550.68 943.903L1532.4 937.578C1532.4 937.578 1508.61 961.525 1485.15 986.455C1461.73 1011.39 1439.77 1024.02 1439.77 1024.02L1434.1 1074.51Z" fill="#C1C3C5"/>
<path fill-rule="evenodd" clip-rule="evenodd" d="M1434.69 1073.94C1434.69 1073.94 1482.19 1040.63 1508.76 1007.72C1531.76 979.27 1550.67 944.012 1550.67 944.012L1532.92 937.919C1532.92 937.919 1509.1 961.866 1485.64 986.797C1462.19 1011.73 1440.26 1024.36 1440.26 1024.36L1434.69 1073.94Z" fill="#CACBCD"/>
<path fill-rule="evenodd" clip-rule="evenodd" d="M1435.28 1073.36C1435.28 1073.36 1482.08 1040.65 1508.65 1007.71C1531.63 979.27 1550.64 944.162 1550.64 944.162L1533.43 938.288C1533.43 938.288 1509.61 962.235 1486.18 987.165C1462.72 1012.1 1440.77 1024.75 1440.77 1024.75L1435.28 1073.36Z" fill="#D3D4D5"/>
<path fill-rule="evenodd" clip-rule="evenodd" d="M1435.87 1072.79C1435.87 1072.79 1481.97 1040.63 1508.51 1007.71C1531.52 979.256 1550.61 944.299 1550.61 944.299L1533.93 938.644C1533.93 938.644 1510.14 962.59 1486.68 987.521C1463.23 1012.46 1441.28 1025.1 1441.28 1025.1L1435.87 1072.79Z" fill="#DBDCDD"/>
<path fill-rule="evenodd" clip-rule="evenodd" d="M1436.45 1072.22C1436.45 1072.22 1481.83 1040.63 1508.42 1007.71C1531.39 979.256 1550.6 944.435 1550.6 944.435L1534.45 939.026C1534.45 939.026 1510.66 962.959 1487.2 987.889C1463.75 1012.83 1441.82 1025.47 1441.82 1025.47L1436.45 1072.22Z" fill="#E4E4E5"/>
<path fill-rule="evenodd" clip-rule="evenodd" d="M1437.03 1071.64C1437.03 1071.64 1481.71 1040.62 1508.29 1007.71C1531.27 979.257 1550.59 944.573 1550.59 944.573L1534.97 939.382C1534.97 939.382 1511.15 963.315 1487.72 988.245C1464.27 1013.19 1442.31 1025.83 1442.31 1025.83L1437.03 1071.64Z" fill="#EAEBEC"/>
<path fill-rule="evenodd" clip-rule="evenodd" d="M1437.6 1071.07C1437.6 1071.07 1481.6 1040.62 1508.17 1007.71C1531.15 979.256 1550.57 944.709 1550.57 944.709L1535.49 939.75C1535.49 939.75 1511.7 963.683 1488.21 988.614C1464.79 1013.54 1442.83 1026.19 1442.83 1026.19L1437.6 1071.07Z" fill="#F3F3F4"/>
<path fill-rule="evenodd" clip-rule="evenodd" d="M1550.53 944.845L1536 940.119C1536 940.119 1512.2 964.052 1488.72 988.983C1465.32 1013.91 1443.37 1026.55 1443.37 1026.55L1438.19 1070.48C1438.19 1070.48 1481.46 1040.61 1508.06 1007.68C1531.02 979.243 1550.53 944.845 1550.53 944.845ZM990.603 990.745C987.543 997.493 980.808 1010.48 980.808 1010.48C980.808 1010.48 1010.57 1052.48 1077.73 1089.77C1146.05 1127.7 1203.76 1130.16 1234.31 1130.59C1234.31 1130.59 1209.91 1113.02 1186.69 1055.21C1186.69 1055.21 1151.25 1051.63 1117.24 1032.22C1083.21 1012.81 1061.41 987.931 1061.41 987.931C1061.41 987.931 1011.98 992.015 990.603 990.745ZM1484.39 575.098L1398.03 568.295L1365.75 632.567C1365.75 632.567 1401.69 679.272 1430.35 756.358C1430.35 756.358 1479.5 758.394 1532.83 795.741C1532.83 795.741 1555.98 729.884 1563 694.586C1562.99 694.586 1534.66 617.978 1484.39 575.098ZM1424.42 772.409C1425.37 770.552 1473.24 774.718 1525.44 810.372C1525.44 810.372 1542.29 891.474 1522.24 932.141C1522.24 932.141 1467.74 991.523 1432.38 1012.81C1432.38 1012.81 1381.02 1006.82 1325.87 983.409C1325.87 983.409 1330.71 936.84 1321.81 866.339C1321.8 866.325 1418.2 784.458 1424.42 772.409ZM1068.93 854.604C1068.93 854.604 1058.11 902.43 1070.56 976.388C1070.56 976.388 1122.73 1029.21 1191.88 1039.35C1191.88 1039.35 1245.94 1032.12 1308.09 984.966C1308.09 984.966 1312.12 907.429 1300.83 865.546C1300.83 865.546 1200.58 804.074 1175.73 799.457C1175.73 799.443 1117.66 819.483 1068.93 854.604ZM959.771 624.002L981 652.02C981 652.02 967.899 679.19 961.916 714.912C955.919 750.635 954.922 777.682 954.922 777.682C954.922 777.682 924.568 809.402 916.563 857.268L907.998 847.883C907.998 847.883 899.802 783.119 908.995 742.862C925.934 668.508 959.771 624.002 959.771 624.002ZM1098.67 594.222C1098.67 594.222 1179.57 642.949 1192.97 658.686L1166.67 781.015C1166.67 781.015 1115.97 800.796 1060.56 838.704C1060.56 838.704 1008.38 810.058 973.965 773.079C973.965 773.079 970.973 718.095 996.764 653.358L1098.67 594.222ZM1348.22 626.024L1379.79 566.273C1379.79 566.273 1294.78 491.974 1280.11 477.33C1280.11 477.33 1244.48 472.111 1202.9 478.013C1147.43 485.895 1122.9 498.38 1122.9 498.38L1125.57 508.571L1110.9 578.444C1110.9 578.444 1169.46 609.973 1209.14 644.971C1209.14 644.971 1239.5 632.212 1279.64 626.802C1325.69 620.601 1348.22 626.024 1348.22 626.024ZM908.053 847.419L918.503 861.585C918.503 861.585 922.997 891.187 942.518 923.535C962.025 955.897 993.007 985.854 993.007 985.854L979.756 1009.09C979.756 1009.09 948.775 970.35 929.267 924.204C913.394 886.625 908.053 847.419 908.053 847.419Z" fill="white"/>
<path fill-rule="evenodd" clip-rule="evenodd" d="M1550.53 944.845L1536 940.119C1536 940.119 1512.2 964.052 1488.72 988.982C1465.32 1013.91 1443.37 1026.55 1443.37 1026.55L1438.19 1070.48C1438.19 1070.48 1481.46 1040.61 1508.06 1007.68C1531.02 979.243 1550.53 944.845 1550.53 944.845ZM958.938 634.097C958.938 631.037 958.992 628.005 959.061 624.972L959.757 624.016L980.986 652.033C980.986 652.033 970.576 673.617 964.074 703.588C960.66 680.582 958.944 657.355 958.938 634.097ZM1181.44 1037.48C1137.55 1009.01 1098.41 973.822 1065.46 933.193C1062.2 884.357 1068.93 854.604 1068.93 854.604C1117.66 819.483 1175.73 799.443 1175.73 799.443C1200.56 804.074 1300.83 865.533 1300.83 865.533C1312.12 907.416 1308.09 984.953 1308.09 984.953C1245.94 1032.11 1191.88 1039.33 1191.88 1039.33C1188.38 1038.84 1184.9 1038.22 1181.44 1037.48ZM982.639 781.89C979.562 772.576 976.778 763.169 974.292 753.681C976.462 719.261 984.05 685.399 996.777 653.345L1098.68 594.209C1098.68 594.209 1179.58 642.935 1192.98 658.672L1166.69 781.002C1166.69 781.002 1115.98 800.782 1060.57 838.69C1060.56 838.69 1016.49 814.511 982.639 781.89ZM1484.39 575.098L1398.03 568.295L1365.75 632.567C1365.75 632.567 1401.69 679.272 1430.35 756.358C1430.35 756.358 1479.5 758.394 1532.83 795.741C1532.83 795.741 1555.98 729.884 1563 694.586C1562.99 694.586 1534.66 617.978 1484.39 575.098ZM1424.42 772.409C1425.37 770.552 1473.24 774.718 1525.44 810.372C1525.44 810.372 1542.29 891.474 1522.24 932.141C1522.24 932.141 1467.74 991.523 1432.38 1012.81C1432.38 1012.81 1381.02 1006.82 1325.87 983.409C1325.87 983.409 1330.71 936.84 1321.81 866.339C1321.8 866.325 1418.2 784.458 1424.42 772.409ZM1348.22 626.024L1379.79 566.273C1379.79 566.273 1294.78 491.974 1280.11 477.33C1280.11 477.33 1244.48 472.111 1202.9 478.013C1147.42 485.895 1122.9 498.38 1122.9 498.38L1125.57 508.571L1110.9 578.444C1110.9 578.444 1169.46 609.973 1209.14 644.971C1209.14 644.971 1239.5 632.212 1279.64 626.802C1325.69 620.601 1348.22 626.024 1348.22 626.024Z" fill="white"/>
<path fill-rule="evenodd" clip-rule="evenodd" d="M1081.35 634.097C1081.35 623.797 1081.8 613.606 1082.66 603.511L1098.67 594.222C1098.67 594.222 1179.57 642.949 1192.97 658.686L1166.67 781.015C1166.67 781.015 1148.93 787.955 1122.95 801.451C1095.58 749.916 1081.3 692.447 1081.35 634.097ZM1516.04 997.424C1503.1 999.241 1489.97 1000.43 1476.68 1000.95C1480.58 997.343 1484.63 993.354 1488.72 988.996C1512.2 964.066 1536 940.133 1536 940.133L1550.53 944.859C1550.53 944.845 1535.36 971.593 1516.04 997.424ZM1449.2 1001.09C1407.23 999.901 1365.73 991.929 1326.31 977.48C1327.27 962.836 1328.82 922.046 1321.8 866.325C1321.8 866.325 1418.2 784.444 1424.42 772.409C1425.37 770.551 1473.24 774.718 1525.44 810.372C1525.44 810.372 1542.29 891.474 1522.24 932.141C1522.23 932.141 1482.73 975.158 1449.2 1001.09ZM1308.56 970.472C1234.32 938.958 1172.51 885.149 1132.18 817.789C1146.38 810.943 1160.91 804.825 1175.73 799.457C1200.56 804.088 1300.83 865.546 1300.83 865.546C1309.07 896.214 1309.12 946.007 1308.56 970.472ZM1484.39 575.098L1398.03 568.295L1365.75 632.567C1365.75 632.567 1401.69 679.272 1430.35 756.358C1430.35 756.358 1479.5 758.394 1532.83 795.741C1532.83 795.741 1555.98 729.884 1563 694.586C1562.99 694.586 1534.66 617.978 1484.39 575.098ZM1348.22 626.024L1379.79 566.273C1379.79 566.273 1294.78 491.974 1280.11 477.33C1280.11 477.33 1244.48 472.111 1202.9 478.013C1147.43 485.895 1122.9 498.38 1122.9 498.38L1125.57 508.571L1110.9 578.444C1110.9 578.444 1169.46 609.973 1209.14 644.971C1209.14 644.971 1239.5 632.212 1279.64 626.802C1325.69 620.601 1348.22 626.024 1348.22 626.024Z" fill="white"/>
<path fill-rule="evenodd" clip-rule="evenodd" d="M1099.44 634.097C1099.44 621.215 1100.17 608.511 1101.58 595.998C1116.14 604.85 1181.1 644.739 1192.97 658.686L1166.67 781.015C1166.67 781.015 1155.96 785.196 1139.01 793.392C1112.98 744.333 1099.39 689.634 1099.44 634.097ZM1124.71 505.402C1126.03 502.178 1127.41 498.981 1128.82 495.826C1139.09 491.741 1163 483.682 1202.87 478.013C1244.46 472.111 1280.08 477.33 1280.08 477.33C1294.75 491.974 1379.76 566.273 1379.76 566.273L1348.19 626.024C1348.19 626.024 1325.68 620.614 1279.6 626.802C1239.46 632.212 1209.1 644.971 1209.1 644.971C1169.42 609.973 1110.86 578.444 1110.86 578.444L1125.53 508.571L1124.71 505.402ZM1530.21 977.371C1518.7 979.529 1507 981.155 1495.1 982.234C1516.31 959.899 1536 940.119 1536 940.119L1550.53 944.845C1550.53 944.845 1542.29 959.38 1530.21 977.371ZM1469.99 983.682C1421.19 984.925 1372.62 976.542 1327.06 959.011C1327.52 928.035 1325.77 897.064 1321.8 866.339C1321.8 866.339 1418.2 784.458 1424.42 772.423C1425.37 770.565 1473.24 774.732 1525.44 810.385C1525.44 810.385 1542.29 891.488 1522.24 932.155C1522.23 932.141 1497.15 959.462 1469.99 983.682ZM1308.76 951.361C1241.65 921.199 1185.74 871.707 1148.63 810.276C1157.53 806.349 1166.57 802.74 1175.73 799.457C1200.56 804.088 1300.83 865.546 1300.83 865.546C1307.28 889.548 1308.73 925.243 1308.76 951.361ZM1484.39 575.098L1398.03 568.295L1365.75 632.567C1365.75 632.567 1401.69 679.272 1430.35 756.358C1430.35 756.358 1479.5 758.394 1532.83 795.741C1532.83 795.741 1555.98 729.884 1563 694.586C1562.99 694.586 1534.66 617.978 1484.39 575.098Z" fill="#F5F6F6"/>
<path fill-rule="evenodd" clip-rule="evenodd" d="M1117.51 634.097C1117.51 624.808 1117.92 615.628 1118.68 606.53C1143.56 622.062 1183.86 647.99 1192.97 658.672L1166.67 781.002C1166.67 781.002 1162.52 782.627 1155.32 785.824C1130.45 739.121 1117.46 687.011 1117.51 634.097ZM1121.35 584.318C1126.56 550.83 1137.03 518.374 1152.36 488.149C1168.97 483.725 1185.85 480.335 1202.89 477.999C1244.47 472.098 1280.1 477.316 1280.1 477.316C1294.77 491.96 1379.78 566.259 1379.78 566.259L1348.21 626.01C1348.21 626.01 1325.69 620.601 1279.62 626.789C1239.47 632.198 1209.12 644.957 1209.12 644.957C1179.73 619.043 1139.98 595.042 1121.35 584.318ZM1543.51 956.648C1533.88 958.943 1524.11 960.855 1514.21 962.344C1526.78 949.367 1535.98 940.119 1535.98 940.119L1550.52 944.845C1550.53 944.845 1547.92 949.435 1543.51 956.648ZM1489.89 965.131C1480.37 965.896 1470.74 966.292 1461 966.292C1413.48 966.292 1368.23 956.976 1327.09 940.105C1326.68 915.433 1324.92 890.803 1321.8 866.325C1321.8 866.325 1418.2 784.444 1424.42 772.409C1425.37 770.552 1473.24 774.718 1525.44 810.372C1525.44 810.372 1542.29 891.474 1522.24 932.141C1522.23 932.141 1508.24 947.359 1489.89 965.131ZM1308.45 931.827C1248.9 903.236 1199.14 858.416 1165.36 803.323C1171.88 800.768 1175.73 799.443 1175.73 799.443C1200.56 804.074 1300.83 865.533 1300.83 865.533C1305.79 883.961 1307.77 909.246 1308.45 931.827ZM1484.39 575.098L1398.03 568.295L1365.75 632.567C1365.75 632.567 1401.69 679.272 1430.35 756.358C1430.35 756.358 1479.5 758.394 1532.83 795.741C1532.83 795.741 1555.98 729.884 1563 694.586C1562.99 694.586 1534.66 617.978 1484.39 575.098Z" fill="#EFEFF0"/>
<path fill-rule="evenodd" clip-rule="evenodd" d="M1135.59 634.097C1135.59 628.524 1135.75 623.005 1136.05 617.5C1159.17 632.321 1185.8 650.244 1192.98 658.686L1168.56 772.286C1146.85 729.46 1135.55 682.113 1135.59 634.097ZM1138.16 594.29C1143.3 555.002 1156.05 517.09 1175.67 482.671C1183.75 481.032 1192.8 479.447 1202.89 478.013C1244.47 472.111 1280.1 477.33 1280.1 477.33C1294.77 491.974 1379.78 566.273 1379.78 566.273L1348.21 626.024C1348.21 626.024 1325.69 620.614 1279.62 626.802C1239.47 632.212 1209.12 644.971 1209.12 644.971C1186.86 625.327 1158.64 606.79 1138.16 594.29ZM1536.53 940.283L1535.63 940.501L1536 940.119L1536.53 940.283ZM1509.71 945.31C1493.58 947.651 1477.3 948.824 1461 948.821C1413.03 948.821 1367.48 938.794 1326.5 920.776C1325.66 902.575 1324.09 884.414 1321.8 866.339C1321.8 866.339 1418.2 784.458 1424.42 772.423C1425.37 770.565 1473.24 774.732 1525.44 810.385C1525.44 810.385 1542.29 891.488 1522.24 932.155C1522.23 932.141 1517.39 937.387 1509.71 945.31ZM1307.5 911.678C1258.44 886.357 1216.7 848.882 1186.25 802.831C1221.14 816.724 1300.83 865.546 1300.83 865.546C1304.33 878.592 1306.35 895.121 1307.5 911.678ZM1484.39 575.098L1398.03 568.295L1365.75 632.567C1365.75 632.567 1401.69 679.272 1430.35 756.358C1430.35 756.358 1479.5 758.394 1532.83 795.741C1532.83 795.741 1555.98 729.884 1563 694.586C1562.99 694.586 1534.66 617.978 1484.39 575.098Z" fill="#E8E9EA"/>
<path fill-rule="evenodd" clip-rule="evenodd" d="M1153.67 634.097C1153.67 632.403 1153.7 630.723 1153.72 629.043C1171.28 640.709 1187.59 652.361 1192.97 658.672L1174.88 742.834C1160.84 708.303 1153.64 671.374 1153.67 634.097ZM1155.14 604.973C1159.69 559.984 1174.73 516.69 1199.06 478.573L1202.89 478.013C1244.47 472.111 1280.1 477.33 1280.1 477.33C1294.77 491.974 1379.78 566.273 1379.78 566.273L1348.21 626.024C1348.21 626.024 1325.69 620.614 1279.62 626.802C1239.47 632.212 1209.12 644.971 1209.12 644.971C1192.55 630.354 1172.66 616.339 1155.14 604.973ZM1525.29 924.792C1504.52 929.068 1483.05 931.335 1460.99 931.335C1412.27 931.335 1366.2 920.366 1325.26 900.845C1324.39 889.316 1323.23 877.81 1321.79 866.339C1321.79 866.339 1418.19 784.458 1424.4 772.423C1425.36 770.565 1473.23 774.732 1525.42 810.385C1525.42 810.372 1540.4 882.458 1525.29 924.792ZM1305.48 890.504C1273.16 872.165 1244.46 848.095 1220.77 819.47C1257.51 838.991 1300.83 865.533 1300.83 865.533C1302.8 872.95 1304.33 881.488 1305.48 890.504ZM1484.39 575.098L1398.03 568.295L1365.75 632.567C1365.75 632.567 1401.69 679.272 1430.35 756.358C1430.35 756.358 1479.5 758.394 1532.83 795.741C1532.83 795.741 1555.98 729.884 1563 694.586C1562.99 694.586 1534.66 617.978 1484.39 575.098Z" fill="#E1E2E3"/>
<path fill-rule="evenodd" clip-rule="evenodd" d="M1172.31 616.502C1175.59 565.906 1192.93 517.229 1222.37 475.949C1255 473.655 1280.11 477.329 1280.11 477.329C1294.78 491.973 1379.79 566.273 1379.79 566.273L1348.22 626.023C1348.22 626.023 1325.71 620.614 1279.63 626.802C1239.48 632.212 1209.13 644.971 1209.13 644.971C1197.4 634.801 1185.11 625.296 1172.31 616.502ZM1529.96 905.831C1507.36 911.171 1484.21 913.862 1460.99 913.85C1411.18 913.85 1364.33 901.678 1323.4 880.258C1322.91 875.614 1322.38 870.974 1321.8 866.338C1321.8 866.338 1418.2 784.458 1424.42 772.423C1425.37 770.565 1473.24 774.731 1525.44 810.385C1525.42 810.371 1536.56 863.934 1529.96 905.831ZM1301.28 867.377C1295.45 863.637 1289.76 859.691 1284.21 855.547C1294.32 861.557 1300.83 865.546 1300.83 865.546C1301 866.147 1301.12 866.762 1301.28 867.377ZM1182.19 708.861C1175.92 686.909 1172.44 664.254 1171.84 641.432C1181.66 648.44 1189.54 654.628 1192.97 658.672L1182.19 708.861ZM1484.39 575.097L1398.03 568.294L1365.75 632.567C1365.75 632.567 1401.69 679.272 1430.35 756.358C1430.35 756.358 1479.5 758.393 1532.83 795.741C1532.83 795.741 1555.98 729.884 1563 694.585C1562.99 694.585 1534.66 617.977 1484.39 575.097Z" fill="#DBDCDD"/>
<path fill-rule="evenodd" clip-rule="evenodd" d="M1189.88 629.275C1190.96 571.395 1211.42 518.106 1245.26 475.198C1266.04 475.267 1280.11 477.329 1280.11 477.329C1294.78 491.973 1379.79 566.273 1379.79 566.273L1348.22 626.023C1348.22 626.023 1325.71 620.614 1279.63 626.802C1239.48 632.212 1209.13 644.971 1209.13 644.971C1202.9 639.515 1196.48 634.28 1189.88 629.275ZM1531.78 887.321C1508.66 893.348 1484.87 896.387 1460.99 896.364C1412.16 896.364 1366.35 883.892 1326.79 862.063C1346.66 845.083 1419.05 782.791 1424.4 772.423C1425.36 770.565 1473.23 774.731 1525.42 810.385C1525.42 810.371 1533.59 849.7 1531.78 887.321ZM1191.67 664.765C1191.33 661.988 1191.04 659.206 1190.81 656.418C1191.66 657.238 1192.4 657.989 1192.98 658.686L1191.67 664.765ZM1484.39 575.097L1398.03 568.294L1365.75 632.567C1365.75 632.567 1401.69 679.272 1430.35 756.358C1430.35 756.358 1479.5 758.393 1532.83 795.741C1532.83 795.741 1555.98 729.884 1563 694.585C1562.99 694.585 1534.66 617.977 1484.39 575.097Z" fill="#D5D6D7"/>
<path fill-rule="evenodd" clip-rule="evenodd" d="M1207.91 634.097C1207.91 573.854 1230.41 518.72 1267.72 476.086C1275.51 476.673 1280.1 477.343 1280.1 477.343C1294.77 491.987 1379.78 566.286 1379.78 566.286L1348.21 626.037C1348.21 626.037 1325.69 620.627 1279.62 626.816C1239.47 632.225 1209.12 644.984 1209.12 644.984L1208.12 644.123C1207.98 640.79 1207.91 637.443 1207.91 634.097ZM1531.94 869.111C1508.85 875.611 1484.98 878.898 1461 878.879C1419.29 878.973 1378.17 868.981 1341.16 849.754C1369.63 825.166 1419.98 781.015 1424.43 772.423C1425.39 770.565 1473.25 774.731 1525.45 810.385C1525.42 810.371 1531.16 838.02 1531.94 869.111ZM1484.39 575.097L1398.03 568.294L1365.75 632.567C1365.75 632.567 1401.69 679.272 1430.35 756.358C1430.35 756.358 1479.5 758.393 1532.83 795.741C1532.83 795.741 1555.98 729.884 1563 694.585C1563 694.585 1534.66 617.977 1484.39 575.097Z" fill="#CECFD1"/>
<path fill-rule="evenodd" clip-rule="evenodd" d="M1225.97 634.097C1225.97 575.945 1248.55 522.901 1285.71 482.698C1309.48 504.856 1379.79 566.287 1379.79 566.287L1348.22 626.038C1348.22 626.038 1325.71 620.628 1279.63 626.816C1261.45 629.316 1243.52 633.379 1226.04 638.96C1226 637.34 1225.97 635.718 1225.97 634.097ZM1530.97 851.135C1508.27 857.956 1484.69 861.408 1460.99 861.38C1423.05 861.38 1387.22 852.692 1355.51 837.269C1383.96 812.476 1420.65 779.677 1424.4 772.409C1425.36 770.552 1473.23 774.718 1525.42 810.372C1525.42 810.372 1529.11 828.117 1530.97 851.135ZM1484.39 575.098L1398.03 568.295L1365.75 632.567C1365.75 632.567 1401.69 679.272 1430.35 756.358C1430.35 756.358 1479.5 758.394 1532.83 795.742C1532.83 795.742 1555.98 729.884 1563 694.586C1562.99 694.586 1534.66 617.978 1484.39 575.098Z" fill="#C8C9CB"/>
<path fill-rule="evenodd" clip-rule="evenodd" d="M1244.05 633.783C1244.13 580.398 1264.82 531.698 1298.86 494.706C1325.7 518.724 1352.67 542.581 1379.79 566.273L1348.22 626.024C1348.22 626.024 1325.71 620.614 1279.63 626.802C1266.49 628.564 1254.37 631.133 1244.05 633.783ZM1529.11 833.349C1507.09 840.369 1484.11 843.932 1461 843.908C1428.48 843.908 1397.63 836.996 1369.97 824.592C1395.1 802.421 1421.28 778.488 1424.42 772.409C1425.37 770.551 1473.24 774.718 1525.44 810.372C1525.42 810.372 1527.32 819.606 1529.11 833.349ZM1484.39 575.097L1398.03 568.294L1365.75 632.567C1365.75 632.567 1401.69 679.272 1430.35 756.358C1430.35 756.358 1479.5 758.394 1532.83 795.741C1532.83 795.741 1555.98 729.884 1563 694.586C1562.99 694.586 1534.66 617.978 1484.39 575.097Z" fill="#C1C3C5"/>
<path fill-rule="evenodd" clip-rule="evenodd" d="M1262.2 629.684C1263.29 582.501 1281.94 539.512 1312.12 506.604C1334.58 526.599 1357.13 546.489 1379.78 566.272L1348.21 626.023C1348.21 626.023 1325.69 620.614 1279.62 626.802C1273.57 627.622 1267.75 628.605 1262.2 629.684ZM1526.43 815.754C1505.34 822.838 1483.24 826.441 1460.99 826.422C1433.89 826.422 1408.03 821.163 1384.46 811.669C1404.34 793.829 1421.86 777.313 1424.4 772.409C1425.36 770.551 1473.23 774.718 1525.42 810.371C1525.42 810.371 1525.82 812.325 1526.43 815.754ZM1484.39 575.097L1398.03 568.294L1365.75 632.567C1365.75 632.567 1401.69 679.272 1430.35 756.358C1430.35 756.358 1479.5 758.393 1532.83 795.741C1532.83 795.741 1555.98 729.884 1563 694.585C1562.99 694.585 1534.66 617.977 1484.39 575.097Z" fill="#BBBCBF"/>
<path fill-rule="evenodd" clip-rule="evenodd" d="M1280.37 626.693C1282.16 585.247 1298.86 547.544 1325.43 518.434C1343.5 534.442 1361.62 550.388 1379.79 566.273L1348.22 626.023C1348.22 626.023 1325.94 620.669 1280.37 626.693ZM1533.29 794.389C1532.78 794.609 1532.27 794.818 1531.75 795.017C1478.81 758.393 1430.33 756.358 1430.33 756.358C1401.67 679.258 1365.73 632.567 1365.73 632.567L1398.01 568.294L1484.37 575.097C1534.64 617.977 1562.98 694.599 1562.98 694.599C1556.56 726.892 1536.61 784.813 1533.29 794.389ZM1512.06 801.861C1495.45 806.583 1478.27 808.969 1461 808.951C1439.23 808.951 1418.39 805.249 1399.08 798.419C1412.34 786.165 1422.53 776.07 1424.42 772.423C1425.29 770.715 1465.35 774.076 1512.06 801.861Z" fill="#B5B6B8"/>
<path fill-rule="evenodd" clip-rule="evenodd" d="M1298.59 624.767C1300.78 588.621 1315.56 555.768 1338.77 530.25C1360.51 549.457 1379.78 566.273 1379.78 566.273L1348.21 626.024C1348.22 626.024 1331.88 622.103 1298.59 624.767ZM1541.17 771.043C1532.24 775.934 1522.81 780.045 1512.95 783.256C1467.89 757.929 1430.35 756.372 1430.35 756.372C1401.69 679.272 1365.75 632.581 1365.75 632.581L1398.03 568.308L1484.39 575.111C1534.66 617.991 1562.99 694.613 1562.99 694.613C1558.73 716.005 1548.54 748.654 1541.17 771.043ZM1488.05 789.28C1479.24 790.701 1470.19 791.452 1461 791.452C1444.93 791.469 1428.95 789.178 1413.53 784.649C1419.32 778.925 1423.3 774.554 1424.42 772.409C1425.13 771.016 1452.38 773.038 1488.05 789.28Z" fill="#AEB0B2"/>
<path fill-rule="evenodd" clip-rule="evenodd" d="M1316.73 623.865C1319.07 593.396 1331.53 564.582 1352.11 541.998C1367.82 555.822 1379.78 566.259 1379.78 566.259L1348.21 626.01C1348.22 626.024 1337.81 623.537 1316.73 623.865ZM1549.58 744.651C1531.59 758.127 1510.73 767.279 1488.64 771.398C1455.13 757.396 1430.33 756.358 1430.33 756.358C1401.67 679.258 1365.73 632.567 1365.73 632.567L1398.01 568.294L1484.37 575.097C1534.64 617.978 1562.98 694.599 1562.98 694.599C1560.22 708.492 1554.93 727.152 1549.58 744.651Z" fill="#A8AAAC"/>
<path fill-rule="evenodd" clip-rule="evenodd" d="M1334.85 624.316C1337.03 598.071 1347.8 573.277 1365.5 553.773C1374.12 561.355 1379.78 566.286 1379.78 566.286L1348.21 626.037C1348.22 626.024 1343.78 624.972 1334.85 624.316ZM1559.1 711.402C1535.89 738.927 1500.56 756.495 1460.99 756.495C1450.16 756.503 1439.36 755.172 1428.86 752.533C1400.47 677.742 1365.73 632.581 1365.73 632.581L1398.01 568.308L1484.37 575.111C1534.64 617.991 1562.98 694.613 1562.98 694.613C1561.98 699.654 1560.64 705.364 1559.1 711.402Z" fill="#A2A4A6"/>
<path fill-rule="evenodd" clip-rule="evenodd" d="M1354.49 614.153C1358.13 596.046 1366.56 579.247 1378.9 565.508L1379.78 566.273L1354.49 614.153ZM1557.66 681.676C1539.74 715.705 1503.18 738.996 1461 738.996C1447.11 739.022 1433.33 736.441 1420.39 731.387C1394 669.314 1365.75 632.567 1365.75 632.567L1398.03 568.295L1484.39 575.097C1521.95 607.131 1547.25 658.003 1557.66 681.676Z" fill="#9C9EA0"/>
<path fill-rule="evenodd" clip-rule="evenodd" d="M1370.6 634.098C1370.6 629.617 1370.91 625.218 1371.61 620.915L1394.98 574.388C1396.96 572.352 1399.01 570.399 1401.17 568.568L1484.39 575.112C1512.72 599.291 1534.07 634.18 1547.32 660.012C1535.9 695.652 1501.56 721.525 1460.99 721.525C1442.26 721.59 1423.96 715.938 1408.53 705.323C1392.89 673.016 1378.16 650.299 1370.75 639.576C1370.65 637.751 1370.6 635.925 1370.6 634.098Z" fill="#96989A"/>
<path fill-rule="evenodd" clip-rule="evenodd" d="M1388.66 634.097C1388.66 606.148 1405.62 582.023 1430.11 570.835L1484.39 575.098C1504.24 592.037 1520.64 614.235 1533.26 634.903C1532.84 673.166 1500.63 704.039 1460.99 704.039C1421.06 704.039 1388.66 672.729 1388.66 634.097Z" fill="#919295"/>
<path fill-rule="evenodd" clip-rule="evenodd" d="M1406.76 634.097C1406.76 605.123 1431.03 581.641 1461 581.641C1490.93 581.641 1515.22 605.123 1515.22 634.097C1515.22 663.071 1490.94 686.554 1461 686.554C1431.03 686.554 1406.76 663.071 1406.76 634.097Z" fill="#8B8C8F"/>
<path fill-rule="evenodd" clip-rule="evenodd" d="M1424.81 634.097C1424.81 614.795 1441.02 599.126 1460.99 599.126C1480.95 599.126 1497.13 614.781 1497.13 634.097C1497.13 653.413 1480.93 669.068 1460.99 669.068C1441.02 669.054 1424.81 653.413 1424.81 634.097Z" fill="#858789"/>
<path fill-rule="evenodd" clip-rule="evenodd" d="M1442.9 634.097C1442.9 624.453 1451.02 616.612 1460.99 616.612C1470.96 616.612 1479.05 624.453 1479.05 634.097C1479.05 643.755 1470.96 651.569 1460.99 651.569C1451.02 651.569 1442.9 643.755 1442.9 634.097Z" fill="#808183"/>
<path fill-rule="evenodd" clip-rule="evenodd" d="M890.185 2113.1C769.494 2014.23 692.709 1866.54 692.709 1701.58C692.644 1605.34 719.123 1510.94 769.235 1428.77L1244.59 1793.09L1732.93 1431.87C1781.8 1513.34 1807.57 1606.58 1807.47 1701.58C1807.47 1865 1732.31 2011.45 1613.56 2110.33L1825.59 2290.85C1987.3 2143.1 2088.21 1933.73 2088.21 1701.58C2088.21 1434.98 1955.24 1198.45 1749.87 1050.71L1244.59 1428.26L756.64 1046.3C547.744 1193.73 412 1432.32 412 1701.58C412 1936.29 515.314 2147.7 680.155 2295.76L890.185 2113.1Z" fill="#CC2229" stroke="white" stroke-width="13.6183" stroke-miterlimit="2.613"/>
</g>
<defs>
<clipPath id="clip0_1_1163">
<rect width="2500" height="2500" fill="white"/>
</clipPath>
</defs>
</svg>
