<svg width="2500" height="2500" viewBox="0 0 2500 2500" fill="none" xmlns="http://www.w3.org/2000/svg">
<g clip-path="url(#clip0_1_1136)">
<path fill-rule="evenodd" clip-rule="evenodd" d="M0 0H2500V2500H0V0Z" fill="white"/>
<path fill-rule="evenodd" clip-rule="evenodd" d="M434.308 1418.78C434.308 967.809 799.429 602.256 1249.81 602.256C1700.2 602.256 2065.33 967.822 2065.33 1418.78C2065.33 1869.73 1700.21 2235.28 1249.81 2235.28C799.416 2235.28 434.308 1869.73 434.308 1418.78Z" fill="#33348E"/>
<path fill-rule="evenodd" clip-rule="evenodd" d="M759.937 1418.78C759.937 1147.88 979.269 928.291 1249.81 928.291C1520.37 928.291 1739.68 1147.88 1739.68 1418.78C1739.68 1689.65 1520.36 1909.25 1249.81 1909.25C979.269 1909.25 759.937 1689.65 759.937 1418.78Z" fill="white"/>
<path fill-rule="evenodd" clip-rule="evenodd" d="M1008.3 991.983V1845.58C972.095 1824.99 938.657 1799.87 908.787 1770.85V1066.72C938.657 1037.69 972.095 1012.58 1008.3 991.983ZM1116.87 971.825H1216.39V1908.11C1182.72 1905.85 1149.36 1900.11 1116.87 1890.99V971.825ZM1306.87 971.825H1406.38V1883.69C1374.08 1894.56 1340.73 1902.02 1306.87 1905.94V971.825ZM1605.41 1081.47V1756.09C1575.91 1787.28 1542.46 1814.46 1505.9 1836.96V1000.62C1542.46 1023.11 1575.91 1050.29 1605.41 1081.47ZM1709.49 1588.68V1248.86C1729.52 1303.27 1739.75 1360.8 1739.69 1418.78C1739.74 1476.76 1729.52 1534.28 1709.49 1588.68ZM809.253 1204.09V1633.48C776.702 1566.6 759.835 1493.18 759.937 1418.8C759.831 1344.41 776.698 1270.98 809.253 1204.09Z" fill="#CC2229"/>
<path d="M498.667 1418.78C498.667 1003.4 834.957 666.681 1249.81 666.681C1664.67 666.681 2000.97 1003.39 2000.97 1418.78C2000.97 1834.14 1664.67 2170.84 1249.81 2170.84C834.957 2170.84 498.667 1834.14 498.667 1418.78Z" stroke="white" stroke-width="19.8048" stroke-miterlimit="2.613"/>
<path d="M715.814 1418.78C715.814 1123.48 954.898 884.09 1249.81 884.09C1544.74 884.09 1783.83 1123.46 1783.83 1418.78C1783.83 1714.05 1544.74 1953.45 1249.81 1953.45C954.898 1953.45 715.814 1714.05 715.814 1418.78Z" stroke="white" stroke-width="14.0981" stroke-miterlimit="2.613"/>
<path fill-rule="evenodd" clip-rule="evenodd" d="M1615.67 578.828C1615.67 578.828 1722.51 584.61 1693.62 689.167C1679.14 741.636 1633.5 758.288 1633.5 758.288C1633.5 758.288 1641.29 841.929 1566.69 844.153C1565.57 844.192 1598.86 806.021 1587.79 763.22C1587.79 763.22 1538.89 765.064 1507.69 729.353C1476.47 693.641 1470.91 681.436 1470.91 681.436C1470.91 681.436 1450.86 691.404 1431.97 715.958C1431.27 716.847 1429.74 643.488 1429.74 643.488C1429.74 643.488 1405.19 646.837 1392.96 672.515C1392.96 672.515 1361.81 608.823 1414.14 574.302C1414.14 574.302 1385.14 574.302 1374.01 515.293C1373.8 514.207 1399.55 530.925 1446.38 517.53C1493.19 504.134 1561.1 461.882 1640.19 464.041C1719.24 466.199 1804.94 529.734 1807.16 623.408C1809.39 717.083 1777.06 766.189 1731.43 849.752C1685.81 933.301 1650.21 993.644 1645.77 1023.7C1641.29 1053.77 1652.46 1091.71 1636.84 1141.87C1636.84 1141.87 1616.77 1125.12 1620.14 1083.9C1620.14 1083.9 1610.56 1106.27 1613.44 1135.16C1617.89 1179.8 1604.5 1189.77 1604.5 1189.77C1604.5 1189.77 1592.25 1196.47 1585.57 1153.03C1585.21 1150.81 1579.99 1175.26 1586.67 1209.86C1593.36 1244.46 1563.34 1282.32 1563.34 1282.32C1563.34 1282.32 1533.24 1236.61 1531.02 1176.45C1528.36 1104.61 1555.27 1047.83 1622.85 925.989C1690.43 804.164 1733.96 734.847 1742.62 682.601C1751.25 630.341 1736.56 534.313 1639.2 524.79C1541.84 515.267 1526.45 581.954 1524.5 600.242C1522.59 618.529 1521.36 659.238 1566.81 660.193C1612.27 661.161 1620.93 628.445 1618.03 606.638C1615.14 584.832 1615.67 578.828 1615.67 578.828ZM883.972 578.828C883.972 578.828 777.138 584.61 806.021 689.167C820.502 741.636 866.142 758.288 866.142 758.288C866.142 758.288 858.333 841.929 932.948 844.153C934.06 844.192 900.768 806.021 911.835 763.22C911.835 763.22 960.732 765.064 991.957 729.353C1023.16 693.641 1028.74 681.436 1028.74 681.436C1028.74 681.436 1048.81 691.404 1067.68 715.958C1068.36 716.847 1069.91 643.488 1069.91 643.488C1069.91 643.488 1094.43 646.837 1106.69 672.515C1106.69 672.515 1137.84 608.823 1085.51 574.302C1085.51 574.302 1114.49 574.302 1125.65 515.293C1125.84 514.207 1100.07 530.925 1053.26 517.53C1006.44 504.134 938.56 461.882 859.458 464.041C780.395 466.199 694.714 529.734 692.477 623.408C690.253 717.083 722.563 766.189 768.204 849.752C813.844 933.301 849.425 993.644 853.885 1023.7C858.333 1053.77 847.201 1091.71 862.793 1141.87C862.793 1141.87 882.86 1125.12 879.511 1083.9C879.511 1083.9 889.087 1106.27 886.209 1135.16C881.748 1179.8 895.13 1189.77 895.13 1189.77C895.13 1189.77 907.387 1196.47 914.072 1153.03C914.412 1150.81 919.644 1175.26 912.96 1209.86C906.262 1244.46 936.297 1282.32 936.297 1282.32C936.297 1282.32 966.383 1236.61 968.62 1176.45C971.289 1104.61 944.354 1047.83 876.79 925.989C809.213 804.164 765.679 734.847 757.019 682.601C748.373 630.341 763.063 534.313 860.439 524.79C957.815 515.267 973.198 581.954 975.121 600.242C977.044 618.529 978.274 659.238 932.843 660.193C887.36 661.161 878.726 628.445 881.604 606.638C884.482 584.793 883.972 578.828 883.972 578.828Z" fill="#FFF22D" stroke="#33348E" stroke-width="5.65482" stroke-miterlimit="2.613"/>
<path fill-rule="evenodd" clip-rule="evenodd" d="M1249.81 779.101H1540.96C1540.96 779.101 1522.87 812.157 1522.87 857.457V1363.59C1522.87 1363.59 1526.01 1408 1501.53 1428.74C1477.06 1449.46 1379.36 1494.71 1337 1527.59C1294.67 1560.48 1255.23 1572.73 1249.81 1603.83C1244.4 1572.73 1204.98 1560.48 1162.61 1527.59C1120.24 1494.71 1022.55 1449.46 998.092 1428.74C973.617 1407.99 976.757 1363.59 976.757 1363.59V1150.74V857.457C976.757 812.17 958.652 779.101 958.652 779.101H1249.81Z" fill="#FFF22D" stroke="#33348E" stroke-width="3.95578" stroke-miterlimit="2.613"/>
<path fill-rule="evenodd" clip-rule="evenodd" d="M1249.81 864.521H1435.32V1341.12C1435.32 1341.12 1440.89 1383.04 1417.17 1396.92C1393.48 1410.8 1249.81 1481.09 1249.81 1481.09C1249.81 1481.09 1106.13 1410.8 1082.45 1396.92C1058.76 1383.04 1064.32 1341.12 1064.32 1341.12V864.521H1249.81Z" fill="#33348E"/>
<path fill-rule="evenodd" clip-rule="evenodd" d="M1455.27 867.346L1475.66 837.063L1456.16 807.656H1475.27L1485.23 824.989L1494.99 807.656H1513.57L1493.97 836.788L1514.34 867.346H1494.89L1484.59 849.411L1474.22 867.346H1455.27ZM1455.27 1154.9L1475.66 1124.61L1456.16 1095.21H1475.27L1485.23 1112.54L1494.99 1095.21H1513.57L1493.97 1124.34L1514.34 1154.9H1494.89L1484.59 1136.96L1474.22 1154.9H1455.27ZM1446.23 1400.26L1466.61 1369.99L1447.12 1340.56H1466.23L1476.2 1357.9L1485.95 1340.56H1504.53L1484.91 1369.7L1505.29 1400.26H1485.85L1475.55 1382.32L1465.18 1400.26H1446.23ZM1044.35 867.346L1023.97 837.063L1043.47 807.656H1024.36L1014.37 824.989L1004.62 807.656H986.045L1005.67 836.788L985.286 867.346H1004.74L1015.03 849.411L1025.41 867.346H1044.35ZM1044.35 1154.9L1023.97 1124.61L1043.47 1095.21H1024.36L1014.37 1112.54L1004.62 1095.21H986.045L1005.67 1124.34L985.286 1154.9H1004.74L1015.03 1136.96L1025.41 1154.9H1044.35ZM1279.53 1547.79L1259.15 1517.51L1278.64 1488.1H1259.53L1249.56 1505.42L1239.81 1488.1H1221.24L1240.85 1517.23L1220.47 1547.79H1239.91L1250.22 1529.84L1260.58 1547.79H1279.53ZM1053.4 1397.93L1033.01 1367.63L1052.52 1338.23H1033.4L1023.43 1355.57L1013.69 1338.23H995.097L1014.72 1367.36L994.338 1397.93H1013.78L1024.08 1379.97L1034.45 1397.93H1053.4ZM1249.81 1128.58H1264.8C1264.8 1128.58 1263.17 1263.35 1263.17 1284.71C1263.17 1306.1 1273.73 1363.3 1281.31 1373.47H1218.31C1225.93 1363.3 1236.47 1306.1 1236.47 1284.71C1236.47 1263.35 1234.84 1128.58 1234.84 1128.58H1249.81Z" fill="#CC2229"/>
<path fill-rule="evenodd" clip-rule="evenodd" d="M1274.48 1184.55C1274.48 1184.55 1297.08 1210.2 1302.12 1212.24C1307.21 1214.28 1319.42 1209.18 1321.45 1205.13C1323.49 1201.06 1321.45 1196.18 1318.41 1189.86C1315.38 1183.56 1320.45 1182.31 1327.55 1186.59C1334.66 1190.88 1334.66 1184.56 1334.66 1179.48C1334.66 1174.37 1336.7 1163.19 1315.36 1172.36C1314.42 1172.75 1305.2 1164.21 1311.29 1159.12C1317.38 1154.03 1332.63 1150.98 1353.97 1143.86C1361.96 1141.19 1378.57 1160.14 1378.57 1160.14C1378.57 1160.14 1379.62 1175.2 1382.65 1182.52C1385.69 1189.85 1385.69 1194.95 1383.65 1201.06C1381.63 1207.15 1378.56 1213.26 1377.56 1219.37C1376.54 1225.48 1370.46 1234.64 1370.46 1234.64C1370.46 1234.64 1368.42 1243.8 1368.42 1249.9C1368.42 1256.01 1382.65 1264.36 1386.71 1266.39C1390.78 1268.43 1400.94 1264.37 1400.94 1246.84C1400.94 1236.67 1400.94 1213.47 1399.92 1193.93C1398.9 1174.37 1398.9 1162.17 1407.05 1153.01C1415.17 1143.84 1422.27 1149.95 1415.17 1166.24C1408.07 1182.52 1403.99 1177.64 1403.99 1190.87C1403.99 1204.09 1407.05 1226.49 1409.08 1242.77C1411.12 1259.06 1407.06 1274.54 1401.97 1277.58C1396.88 1280.64 1396.88 1307.12 1396.88 1313.23C1396.88 1319.34 1398.9 1325.21 1396.88 1333.57C1394.84 1341.93 1388.76 1355.16 1383.65 1359.25C1378.56 1363.32 1356.01 1366.35 1356.01 1366.35C1356.01 1366.35 1352.15 1356.19 1359.28 1355.17C1366.38 1354.15 1370.46 1351.1 1375.52 1346.02C1380.61 1340.91 1385.69 1336.65 1380.61 1330.54C1375.54 1324.43 1362.11 1317.3 1356.01 1314.24C1349.9 1311.2 1335.69 1309.15 1326.52 1318.32C1317.38 1327.46 1315.35 1332.55 1307.2 1327.46C1299.08 1322.37 1276.51 1307.12 1276.51 1307.12C1276.51 1307.12 1275.49 1287.77 1275.49 1282.7C1275.49 1277.58 1282.59 1275.57 1281.6 1280.66C1280.58 1285.75 1279.76 1291.84 1284.84 1295.91C1289.93 1299.99 1313.31 1312.21 1313.31 1312.21C1313.31 1312.21 1323.47 1309.15 1330.58 1303.04C1337.71 1296.93 1348.89 1289.8 1348.89 1285.75C1348.89 1281.69 1346.85 1279.64 1340.77 1273.53C1334.63 1267.42 1321.42 1245.84 1321.42 1245.84C1321.42 1245.84 1315.34 1253.99 1311.28 1252.97C1307.2 1251.94 1276.51 1230.58 1276.51 1230.58L1274.47 1222.43L1295.01 1233.63C1295.01 1233.63 1302.11 1237.71 1303.13 1229.56C1304.15 1221.41 1291.96 1213.28 1291.96 1213.28L1273.44 1198.01L1274.48 1184.55ZM1225.14 1184.55C1225.14 1184.55 1202.56 1210.2 1197.49 1212.24C1192.41 1214.28 1180.21 1209.18 1178.18 1205.13C1176.15 1201.06 1178.18 1196.18 1181.23 1189.86C1184.28 1183.56 1179.2 1182.31 1172.08 1186.59C1164.98 1190.88 1164.98 1184.56 1164.98 1179.48C1164.98 1174.37 1162.94 1163.19 1184.29 1172.36C1185.22 1172.75 1194.45 1164.21 1188.36 1159.12C1182.26 1154.03 1167.01 1150.98 1145.67 1143.86C1137.69 1141.19 1121.07 1160.14 1121.07 1160.14C1121.07 1160.14 1120.05 1175.2 1117 1182.52C1113.95 1189.86 1113.95 1194.95 1115.99 1201.06C1118.02 1207.15 1121.07 1213.26 1122.09 1219.37C1123.11 1225.48 1129.2 1234.64 1129.2 1234.64C1129.2 1234.64 1131.25 1243.8 1131.25 1249.9C1131.25 1256.01 1117.01 1264.36 1112.94 1266.39C1108.89 1268.43 1098.71 1264.37 1098.71 1246.84C1098.71 1236.67 1098.71 1213.47 1099.75 1193.93C1100.77 1174.37 1100.77 1162.17 1092.63 1153.01C1084.49 1143.84 1077.38 1149.95 1084.49 1166.24C1091.6 1182.52 1095.66 1177.64 1095.66 1190.87C1095.66 1204.09 1092.62 1226.49 1090.58 1242.77C1088.55 1259.06 1092.62 1274.54 1097.69 1277.58C1102.78 1280.64 1102.78 1307.12 1102.78 1313.23C1102.78 1319.34 1100.75 1325.21 1102.78 1333.57C1104.82 1341.93 1110.93 1355.16 1116.01 1359.25C1121.08 1363.32 1143.66 1366.35 1143.66 1366.35C1143.66 1366.35 1147.51 1356.19 1140.39 1355.17C1133.27 1354.15 1129.2 1351.1 1124.13 1346.02C1119.04 1340.91 1113.95 1336.65 1119.04 1330.54C1124.13 1324.43 1137.55 1317.3 1143.66 1314.24C1149.76 1311.2 1163.97 1309.15 1173.13 1318.32C1182.29 1327.46 1184.32 1332.55 1192.45 1327.46C1200.59 1322.37 1223.15 1307.12 1223.15 1307.12C1223.15 1307.12 1224.17 1287.77 1224.17 1282.7C1224.17 1277.58 1217.06 1275.57 1218.08 1280.66C1219.1 1285.75 1219.91 1291.84 1214.81 1295.91C1209.73 1299.99 1186.34 1312.21 1186.34 1312.21C1186.34 1312.21 1176.19 1309.15 1169.06 1303.04C1161.96 1296.93 1150.78 1289.8 1150.78 1285.75C1150.78 1281.69 1152.8 1279.64 1158.9 1273.53C1165.01 1267.42 1178.22 1245.84 1178.22 1245.84C1178.22 1245.84 1184.32 1253.99 1188.38 1252.97C1192.45 1251.94 1223.15 1230.58 1223.15 1230.58L1225.18 1222.43L1204.66 1233.63C1204.66 1233.63 1197.54 1237.71 1196.52 1229.56C1195.51 1221.41 1207.69 1213.28 1207.69 1213.28L1226.21 1198.01L1225.14 1184.55Z" fill="#FFF22D"/>
<path fill-rule="evenodd" clip-rule="evenodd" d="M1343.21 1061.71C1350.08 1059.42 1356.16 1056.87 1358.73 1050.26C1351.58 1049.49 1336.87 1059.15 1343.21 1061.71ZM1353.89 1017.22V1023.06H1363.8C1364.8 1020.77 1365.57 1019 1366.08 1016.46C1362.52 1015.95 1357.43 1017.22 1353.89 1017.22ZM1348.8 1035.54C1345.99 1036.81 1341.93 1037.57 1341.93 1040.88C1341.93 1043.93 1343.97 1046.73 1347.02 1046.73C1353.13 1046.73 1357.45 1042.4 1358.73 1036.3C1356.16 1035.79 1351.58 1035.79 1348.8 1035.54ZM1358.84 997.49C1355.04 999.269 1348.04 1001.45 1348.04 1005.78C1348.04 1008.07 1350.32 1009.85 1352.62 1009.85C1358.95 1009.85 1362.53 1006.56 1368.13 1003.74V997.634C1365.05 997.325 1361.94 997.277 1358.84 997.49ZM1173.54 1048.98L1170.75 1052.8C1173.29 1055.6 1175.33 1058.91 1179.38 1058.91C1182.94 1058.91 1184.73 1056.62 1187.52 1054.82C1183.96 1052.55 1178.12 1048.98 1173.54 1048.98ZM1160.33 1015.19C1159.32 1016.97 1157.54 1018.24 1157.54 1020.54C1157.54 1026.14 1162.88 1028.43 1168.21 1030.21L1172.28 1029.19C1172.8 1024.36 1173.04 1021.81 1172.28 1016.97C1168.7 1016.97 1163.88 1015.95 1160.33 1015.19ZM1248.96 921.345C1242.87 923.372 1240.58 929.233 1233.97 929.233C1228.12 929.233 1225.84 923.124 1219.99 923.124C1212.36 923.124 1210.58 930.253 1204.24 934.308C1186.68 945.506 1172.95 947.795 1159.49 963.832C1148.05 977.319 1126.71 977.829 1126.71 995.646C1126.71 999.204 1128.73 1001.24 1128.73 1004.8C1128.73 1015.49 1123.65 1021.1 1123.65 1031.78C1123.65 1040.95 1135.08 1041.7 1138.9 1049.84C1150.07 1072.75 1167.36 1084.21 1193.04 1087.5C1208.03 1089.28 1209.81 1109.88 1224.82 1109.88C1226.59 1109.88 1227.6 1107.84 1229.39 1107.84C1246.66 1107.84 1255.83 1114.97 1273.08 1114.97C1281.23 1114.97 1284.02 1107.35 1291.4 1104.79C1301.82 1100.98 1309.95 1101.73 1319.09 1095.64C1328.23 1089.53 1330.54 1078.33 1341.47 1078.33C1345.52 1078.33 1348.07 1080.37 1352.12 1080.37C1366.6 1080.37 1368.15 1062.56 1372.2 1048.81C1375.77 1036.59 1383.38 1030.49 1383.38 1017.77V1004.54C1383.38 991.054 1369.15 987.993 1364.84 975.278C1359.24 959.502 1357.22 939.397 1340.44 939.397C1333.57 939.397 1329.5 941.424 1322.64 941.424C1314.25 941.424 1311.22 933.785 1302.81 932.268L1296.72 934.295C1279.21 928.723 1267.02 923.124 1248.96 921.345Z" fill="#267D43"/>
<path fill-rule="evenodd" clip-rule="evenodd" d="M1261.99 152.265C1261.99 152.265 1279.9 171.834 1301.03 175.902C1322.18 179.971 1332.73 199.501 1333.55 210.894C1334.36 222.288 1336 296.393 1336 296.393L1337.61 319.18C1337.61 319.18 1182.27 311.044 1129.4 360.726C1129.4 360.726 1132.36 314.393 1164.39 274.43C1204.21 224.747 1249.8 222.301 1249.8 222.301V136.803L1261.99 152.265Z" fill="#CC2229" stroke="#33348E" stroke-width="5.65482" stroke-miterlimit="2.613"/>
<path fill-rule="evenodd" clip-rule="evenodd" d="M1184.72 638.269L1173.1 678.258L1249.81 733.526L1327.16 677.8L1315.53 633.612L1184.72 638.269Z" fill="white" stroke="#33348E" stroke-width="1.69904" stroke-miterlimit="2.613"/>
<path fill-rule="evenodd" clip-rule="evenodd" d="M1358.64 511.198C1356.54 550.311 1332.6 574.289 1332.6 574.289L1345.1 606.599C1345.1 606.599 1293.54 663.437 1245.64 663.437C1197.2 663.437 1150.36 605.553 1150.36 605.553L1163.88 573.242C1163.88 573.242 1138.36 570.116 1134.19 517.451C1130.02 464.786 1189.64 430.161 1189.64 430.161C1189.64 430.161 1178.04 379.484 1205.9 328.245C1205.9 328.245 1243.86 319.756 1290.98 319.756C1293.1 319.756 1318.54 285.496 1348.54 285.496C1348.54 285.496 1384.86 304.595 1414.56 377.064C1415.36 379.026 1406.89 444.354 1342.99 463.74C1343.03 463.74 1356.52 483.597 1358.64 511.198Z" fill="white" stroke="#33348E" stroke-width="5.65482" stroke-miterlimit="2.613"/>
<path fill-rule="evenodd" clip-rule="evenodd" d="M1368.55 524.75C1299.29 521.624 1250.53 465.624 1249.81 466.369C1194.09 524.75 1125.88 524.75 1125.88 524.75V580.542C1125.88 580.542 1222.75 571.659 1250.86 606.599C1250.86 606.599 1260.79 573.242 1367.5 582.621L1368.55 524.75Z" fill="white" stroke="#33348E" stroke-width="5.65482" stroke-miterlimit="2.613"/>
<path d="M1147.74 543.012C1147.74 543.012 1229 532.05 1249.81 501.819C1249.81 501.819 1280 541.978 1352.38 544.058M1190.28 430.16C1190.28 430.16 1243.82 387.817 1309.08 434.49C1330.72 449.965 1343.09 464.276 1343.09 464.276M1223.11 416.543C1223.11 416.543 1220.63 376.868 1234.85 350.261M1290.47 319.952C1290.47 319.952 1254.61 357.076 1247.82 412.226M1318.96 443.778C1318.96 443.778 1330.41 413.783 1355.14 393.886C1380.23 375.638 1407.41 365.121 1414.85 377.496" stroke="#33348E" stroke-width="5.65482" stroke-miterlimit="2.613"/>
<path d="M1301.16 397.144C1301.16 397.144 1313.24 367.92 1334.58 350.719M1319.27 407.831C1319.27 407.831 1337.47 380.478 1353.64 372.564M1299.77 458.521C1301.38 456.31 1302.2 455.028 1303.47 452.477M1308.13 460.849C1311.37 457.592 1313.34 455.63 1316.03 452.019M1316.02 468.214C1320.44 464.734 1322.74 462.523 1326.21 458.115M1321.59 482.171L1335.51 465.898M1333.19 488.686C1335.42 487.051 1336.57 485.664 1337.84 483.113M1341.08 497.986L1352.23 484.971M1191.22 466.356C1191.22 464.394 1191.34 463.334 1191.69 461.359M1175.43 497.515L1176.36 469.613M1158.25 504.03C1157.81 502.827 1157.5 501.582 1157.32 500.315M1151.74 548.126V560.214M1162.43 548.126C1162.89 554.981 1162.89 558.932 1162.89 565.799M1174.03 547.656C1173.69 550.56 1173.8 552.077 1173.8 554.981C1173.8 559.978 1173.92 562.777 1174.96 567.657M1200.05 538.368L1198.67 552.313V563.013M1223.66 531.003C1223.08 534.954 1222.72 537.047 1222.72 541.01C1222.72 552.98 1222.38 559.834 1222.26 571.803M1243.17 534.718C1242.36 540.997 1241.31 544.49 1241.31 550.769V560.658M1250.14 519.374C1250.14 530.886 1250.02 537.269 1250.02 548.794C1250.02 555.988 1247.35 559.834 1247.35 567.042V584.361M1266.84 524.489L1267.33 564.36M1296.96 539.755L1297.42 560.684M1315.53 544.411L1316.02 563.484M1326.22 546.269C1325.76 548.82 1325.76 550.56 1325.76 553.241C1325.76 555.203 1325.44 556.368 1325.76 558.356M1337.38 549.055C1337.61 550.56 1337.84 551.384 1338.29 552.77M1187.51 592.773C1193.67 605.095 1204.7 606.128 1217.7 609.045M1191.22 604.402C1196.8 618.582 1212.94 613.349 1227.33 617.771M1199.12 618.281C1202.25 623.278 1207.59 621.996 1213.51 622.925C1222.58 624.311 1227.58 624.664 1236.16 628.039M1210.73 628.51C1213.63 640.479 1228.14 635.836 1238.47 641.997M1309.04 617.81C1308.46 627.346 1298.59 628.968 1291.03 634.541M1323.92 601.602C1323.92 605.435 1324.15 607.528 1324.15 611.374C1324.15 615.102 1321.37 616.606 1318.82 619.17M1312.29 626.182C1304.06 631.637 1298.59 633.847 1292.43 641.055M1330.89 607.188C1328.67 612.996 1327.38 616.96 1322.51 620.557" stroke="#33348E" stroke-width="1.69904" stroke-miterlimit="2.613"/>
<path fill-rule="evenodd" clip-rule="evenodd" d="M1175.9 680.115L1110.01 763.207L1249.81 810.639L1387.45 763.207L1323.46 681.057L1175.9 680.115Z" fill="white" stroke="#33348E" stroke-width="5.65482" stroke-miterlimit="2.613"/>
<path d="M1174.5 718.64C1180.19 710.045 1182.05 704.813 1188.44 696.794M1185.65 723.767C1190.87 716.324 1192.74 711.445 1196.79 703.308M1161.5 722.839C1167.53 735.043 1174.84 740.851 1187.51 743.768M1150.34 741.898C1159.63 753.527 1168 757.137 1181.93 761.781M1139.28 750.27C1143.1 758.066 1149.14 759.688 1156.81 762.71C1171.09 768.413 1179.33 771.775 1194.43 775.255M1296.04 713.538C1310.55 728.071 1318.32 735.854 1331.81 751.669M1311.83 707.952L1344.79 747.013M1327.16 707.023L1354.1 754.796M1302.53 744.684C1303.93 754.56 1306.04 759.911 1309.5 769.211" stroke="#33348E" stroke-width="1.69904" stroke-miterlimit="2.613"/>
<path fill-rule="evenodd" clip-rule="evenodd" d="M1063.18 779.022C1063.18 779.022 1084.01 756.235 1111.41 761.82C1138.82 767.406 1249.81 803.667 1249.81 803.667C1249.81 803.667 1375.41 761.82 1386.54 761.35C1397.67 760.879 1418.65 761.35 1431.58 777.622C1431.58 777.622 1401.87 780.448 1354.93 803.667C1320.87 820.516 1263.44 838.201 1249.81 838.201C1236.2 838.201 1189.82 826.886 1123.96 798.552C1079.1 779.271 1063.18 779.022 1063.18 779.022Z" fill="white" stroke="#33348E" stroke-width="5.65482" stroke-miterlimit="2.613"/>
<path d="M1277.55 384.206C1277.55 384.206 1285.05 370.72 1291.46 363.277M1336.44 302.423C1336.44 302.423 1342.04 295.909 1347.61 294.522M1348.98 311.737C1348.98 311.737 1351.39 304.765 1359.68 302.436M1367.5 339.089C1367.5 339.089 1373.53 330.26 1378.18 330.718M1374.45 350.248C1374.45 350.248 1376.78 344.204 1380.97 343.275M1381.42 360.477C1381.42 360.477 1385.12 353.505 1392.1 354.434" stroke="#33348E" stroke-width="1.69904" stroke-miterlimit="2.613"/>
<path fill-rule="evenodd" clip-rule="evenodd" d="M1225.47 127.842C1225.33 124.237 1225.92 120.641 1227.21 117.269C1228.49 113.898 1230.44 110.82 1232.94 108.22C1235.45 105.621 1238.45 103.553 1241.77 102.141C1245.09 100.728 1248.66 100 1252.27 100C1255.87 100 1259.44 100.728 1262.76 102.141C1266.08 103.553 1269.08 105.621 1271.59 108.22C1274.09 110.82 1276.04 113.898 1277.32 117.269C1278.61 120.641 1279.2 124.237 1279.06 127.842C1278.91 134.846 1276.02 141.512 1271.01 146.411C1266 151.31 1259.27 154.053 1252.27 154.053C1245.26 154.053 1238.53 151.31 1233.52 146.411C1228.51 141.512 1225.62 134.846 1225.47 127.842Z" fill="#CC2229" stroke="#33348E" stroke-width="5.65482" stroke-miterlimit="2.613"/>
<path d="M1249.81 222.288C1268.48 218.207 1311.61 214.963 1333.55 217.396" stroke="#33348E" stroke-width="5.65482" stroke-miterlimit="2.613"/>
<path fill-rule="evenodd" clip-rule="evenodd" d="M1517.51 2275.11L1478.34 2323.02L1508.58 2377L1451 2354.49L1409.08 2400L1412.65 2338.19L1356.46 2312.34L1416.28 2296.66L1423.48 2235.15L1456.87 2287.25L1517.51 2275.11ZM1841.85 2093.38L1824.48 2152.79L1873.41 2190.65L1811.62 2192.49L1790.77 2250.77L1769.96 2192.49L1708.15 2190.65L1757.07 2152.79L1739.73 2093.38L1790.77 2128.28L1841.85 2093.38ZM2056.57 1829.49L2061.64 1891.18L2120.87 1908.97L2063.81 1932.86L2065.23 1994.73L2024.94 1947.81L1966.58 1968.27L1998.72 1915.38L1961.25 1866.14L2021.38 1880.38L2056.57 1829.49ZM2163.07 1484.72L2188.91 1540.96L2250.64 1537.42L2205.18 1579.37L2227.64 1637.05L2173.74 1606.75L2125.91 1645.94L2138.01 1585.27L2086 1551.82L2147.42 1544.61L2163.07 1484.72ZM2148.24 1305.8L2175.03 1250.01L2236.68 1254.65L2192 1211.89L2215.45 1154.62L2161.03 1183.98L2113.9 1143.93L2124.93 1204.84L2072.33 1237.36L2133.59 1245.65L2148.24 1305.8ZM978.484 2275.11L1017.64 2323.02L987.392 2377L1044.98 2354.49L1086.91 2400L1083.34 2338.19L1139.51 2312.34L1079.72 2296.66L1072.5 2235.15L1039.12 2287.25L978.484 2275.11ZM665.059 2104.31L682.418 2163.74L633.494 2201.58L695.29 2203.43L716.141 2261.71L736.966 2203.43L798.749 2201.58L749.851 2163.74L767.197 2104.31L716.141 2139.21L665.059 2104.31ZM443.059 1829.49L437.984 1891.18L378.765 1908.97L435.799 1932.86L434.386 1994.73L474.702 1947.81L533.044 1968.27L500.917 1915.38L538.394 1866.14L478.234 1880.38L443.059 1829.49ZM336.539 1484.72L310.717 1540.96L249 1537.42L294.431 1579.37L271.97 1637.05L325.891 1606.75L373.716 1645.94L361.603 1585.27L413.626 1551.82L352.223 1544.61L336.539 1484.72ZM351.386 1305.8L324.583 1250.01L262.931 1254.65L307.63 1211.89L284.175 1154.62L338.593 1183.98L385.737 1143.93L374.684 1204.84L427.283 1237.36L366.024 1245.65L351.386 1305.8Z" fill="#33348E"/>
<path fill-rule="evenodd" clip-rule="evenodd" d="M696.637 1207.25L674.451 1196.25C673.758 1195.92 673.522 1195.53 673.719 1195.12C673.941 1194.66 674.896 1194.48 676.596 1194.57C678.912 1194.69 681.436 1193.89 684.157 1192.22C687.022 1190.48 689.154 1188.14 690.58 1185.18C693.118 1179.91 692.124 1174.94 687.585 1170.29C684.484 1167.1 679.134 1163.61 671.534 1159.84C662.796 1155.51 656.046 1152.87 651.324 1151.9C643.396 1150.32 637.942 1152.63 634.972 1158.83C633.533 1161.83 633.049 1165.13 633.533 1168.68C633.886 1171.04 634.397 1172.75 635.116 1173.85C636.058 1175.42 636.463 1176.32 636.333 1176.6C636.136 1177.02 635.639 1177.03 634.881 1176.65L616.358 1167.48C612.708 1160.05 612.93 1152.06 617.038 1143.5C620.387 1136.52 625.266 1131.52 631.689 1128.51C638.164 1125.48 646.457 1125.35 656.569 1128.13C663.934 1130.17 672.489 1133.6 682.234 1138.44C697.631 1146.07 708.096 1153.77 713.603 1161.54C716.533 1165.75 717.998 1170.49 717.959 1175.73C717.85 1181.13 716.546 1186.44 714.139 1191.28C710.372 1199.12 704.525 1204.46 696.637 1207.25ZM689.965 1259.02L611.413 1239.11L606.56 1258.9L584.427 1253.29L594.918 1210.52L695.616 1236.01L689.965 1259.02ZM675.798 1322.2L607.397 1311.19C603.198 1310.52 600.15 1310.27 598.279 1310.5C595.454 1310.82 593.793 1312.67 593.269 1316.02C592.668 1319.9 593.675 1322.45 596.304 1323.71C597.482 1324.32 600.7 1325.07 605.958 1325.99L673.548 1336.84L669.886 1360.27L599.09 1348.85C590.928 1347.54 585.107 1345.79 581.601 1343.54C576.304 1340.24 572.464 1335.04 570.861 1329.01C569.488 1324.1 569.252 1318.55 570.22 1312.39C571.856 1301.97 576.172 1294.51 583.184 1290.01C587.116 1287.39 591.76 1286.03 596.487 1286.13C599.915 1286.21 603.983 1286.64 608.692 1287.38L679.487 1298.78L675.798 1322.2ZM565.433 1383.35L669.049 1388.87L667.204 1424.71C666.799 1432.58 663.908 1438.3 658.557 1441.87C653.927 1444.98 647.922 1446.34 640.532 1445.95C631.427 1445.47 624.834 1442.71 620.779 1437.7C618.997 1435.32 617.638 1432.66 616.763 1429.82C615.337 1433.76 613.833 1436.66 612.211 1438.56C607.986 1443.44 601.367 1445.64 592.301 1445.15C581.98 1444.59 574.249 1441.05 569.108 1434.48C565.145 1429.42 563.405 1422.26 563.902 1413.01L565.433 1383.35ZM627.307 1408.89L627.084 1411.37C626.718 1418.47 629.91 1422.2 636.633 1422.55C640.989 1422.79 643.854 1421.58 645.267 1418.98C646.104 1417.47 646.588 1415.53 646.719 1413.11L646.797 1409.94L627.307 1408.89ZM584.858 1406.64C584.773 1407.28 584.712 1407.91 584.675 1408.55C584.27 1416.68 587.88 1420.94 595.519 1421.36C599.875 1421.6 602.976 1420.64 604.872 1418.55C606.22 1417.07 606.992 1414.44 607.175 1410.67C607.214 1410.06 607.227 1409.12 607.24 1407.83L584.858 1406.64ZM576.133 1553.02L676.819 1527.53L684.746 1559.9C687.192 1569.84 685.714 1577.84 680.311 1583.95C675.866 1588.8 670.415 1592.63 664.339 1595.16C658.741 1597.46 652.723 1599.45 646.287 1601.08C627.751 1605.75 613.009 1606.45 602.06 1603.12C597.281 1601.64 593.026 1598.82 589.803 1595C586.558 1591.11 584.277 1586.5 583.145 1581.56L576.133 1553.02ZM602.635 1569.7C602.832 1570.72 603.002 1571.49 603.12 1572.05C604.558 1577.88 608.339 1581.25 614.461 1582.14C619.837 1582.95 626.914 1582.24 635.718 1580.02C644.325 1577.85 650.84 1575.47 655.287 1572.92C658.989 1570.75 660.977 1567.83 661.278 1564.15C661.357 1562.01 661.119 1559.87 660.572 1557.8C660.354 1556.93 660.118 1556.07 659.866 1555.22L602.635 1569.7ZM686.446 1643.6L670.723 1650.06L681.201 1676.4L660.049 1685.09L649.571 1658.74L632.945 1665.56L643.423 1691.9L622.27 1700.59L603.42 1653.17L699.645 1613.71L718.482 1661.1L696.924 1669.95L686.446 1643.6ZM640.087 1740.07L729.026 1685.78L744.762 1712.4C754.128 1728.24 749.027 1742.14 729.431 1754.11C716.742 1761.85 705.728 1763.89 696.336 1760.24C691.98 1758.58 687.951 1755.39 684.223 1750.7C682.548 1748.49 680.981 1746.2 679.527 1743.84L652.174 1760.54L640.087 1740.07ZM697.788 1731.33C698.102 1732 698.35 1732.43 698.507 1732.7C702.288 1739.09 708.423 1739.7 716.899 1734.55C724.33 1730 726.357 1724.9 722.995 1719.19C722.503 1718.41 721.989 1717.64 721.452 1716.89L697.788 1731.33ZM790.533 1777.19C798.735 1788.23 799.978 1798.75 794.301 1808.72C789.67 1816.84 780.003 1826.52 765.326 1837.77C753.173 1847.07 742.709 1852.7 733.957 1854.63C727.234 1856.09 721.425 1855.76 716.559 1853.64C712.256 1851.77 708.122 1848.17 704.158 1842.83C698.455 1835.14 696.087 1827.86 697.095 1820.96C698.141 1813.4 702.458 1805.63 710.084 1797.69C714.636 1792.97 720.274 1788.04 727.011 1782.9C741.257 1771.99 752.886 1765.6 761.899 1763.73C772.638 1761.47 782.188 1765.94 790.533 1777.19ZM771.016 1791.03C768.269 1787.36 764.135 1786.95 758.628 1789.88C753.087 1792.97 747.807 1796.5 742.839 1800.44C734.781 1806.6 728.986 1811.73 725.454 1815.87C721.125 1820.91 720.261 1825.18 722.812 1828.63C724.526 1830.93 726.998 1831.74 730.242 1831.06C734.991 1830.02 742.421 1825.62 752.532 1817.88C760.316 1811.92 765.901 1807.07 769.316 1803.29C771.33 1800.96 772.481 1798.82 772.756 1796.88C773.057 1794.94 772.481 1793.03 771.016 1791.03ZM753.226 1899.89L825.303 1824.09L850.641 1848.92C852.669 1850.91 854.356 1853.59 855.664 1856.96C856.972 1860.31 857.574 1863.42 857.43 1866.32C857.077 1872.56 853.441 1879.29 846.534 1886.55C840.176 1893.28 834.211 1897.25 828.678 1898.56C825.211 1899.37 821.209 1898.91 816.669 1897.19L796.315 1942.17L779.205 1925.39L793.568 1894.94C795.962 1889.82 798.186 1886.22 800.266 1884.11L799.559 1883.41C798.619 1884.39 797.703 1885.39 796.812 1886.41C795.66 1887.79 794.478 1889.15 793.267 1890.48L769.289 1915.7L753.226 1899.89ZM811.607 1871.29C812.81 1872.62 813.726 1873.59 814.341 1874.2C818.605 1878.39 823.341 1877.74 828.56 1872.27C831.582 1869.08 832.851 1866.18 832.341 1863.61C831.987 1861.76 830.666 1859.75 828.416 1857.52C827.778 1856.89 827.124 1856.28 826.454 1855.68L811.607 1871.29ZM900.677 1920.96L854.893 1987.38L835.768 1973.79L881.552 1907.36L867.359 1897.27L881.107 1877.34L928.605 1911.14L914.87 1931.07L900.677 1920.96ZM965.651 1933.72L912.201 2024.1L892.2 2011.88L945.637 1921.52L965.651 1933.72ZM983.219 1943.51L1004.59 1954.09L989.642 1999.69C986.249 2010.24 982.168 2020.56 977.424 2030.58C976.903 2031.66 976.358 2032.73 975.789 2033.79L976.678 2034.25C977.11 2033.21 977.45 2032.46 977.633 2032.05C979.478 2028.22 982.159 2023.21 985.678 2017.06C989.197 2010.91 992.219 2005.94 994.743 2002.22L1021.25 1962.33L1042.44 1972.84L980.877 2059.63L952.87 2045.75L983.219 1943.51ZM1091.56 1985.03C1104.65 1988.86 1111.9 1996.47 1113.26 2007.89C1114.37 2017.22 1112.4 2030.86 1107.32 2048.85C1103.13 2063.67 1098.11 2074.58 1092.26 2081.47C1087.76 2086.76 1082.95 2090.03 1077.78 2091.31C1073.24 2092.46 1067.8 2092.11 1061.47 2090.27C1052.35 2087.61 1046.17 2083.24 1042.88 2077.13C1039.23 2070.43 1038.09 2061.59 1039.47 2050.59C1040.3 2044.05 1041.9 2036.67 1044.22 2028.44C1049.13 2011.02 1054.64 1998.8 1060.72 1991.8C1067.97 1983.42 1078.27 1981.17 1091.56 1985.03ZM1084.21 2008.02C1079.82 2006.77 1076.29 2008.97 1073.64 2014.7C1071.5 2019.22 1069.4 2025.23 1067.27 2032.76C1064.49 2042.6 1062.91 2050.26 1062.52 2055.7C1062.06 2062.4 1063.88 2066.33 1067.97 2067.5C1070.69 2068.3 1073.15 2067.43 1075.34 2064.9C1078.5 2061.17 1081.82 2053.13 1085.33 2040.75C1088.01 2031.24 1089.59 2023.94 1090.08 2018.83C1090.33 2015.74 1089.97 2013.33 1089.03 2011.62C1088.16 2009.92 1086.55 2008.72 1084.21 2008.02ZM1253.19 2061.88L1250.91 2106.08C1247.96 2108.23 1244.88 2110.21 1241.7 2112.01C1235.97 2115.11 1229.49 2116.53 1222.98 2116.11C1209.58 2115.39 1200.48 2109.36 1195.75 2098.02C1192.12 2089.39 1190.82 2075.72 1191.77 2057.06C1192.65 2040.26 1195.75 2027.63 1201.1 2019.2C1204.19 2014.26 1208.48 2010.74 1213.98 2008.59C1218.69 2006.68 1223.86 2005.88 1229.47 2006.18C1239.75 2006.72 1247.29 2010.5 1252.1 2017.49L1250.82 2042.32C1250.77 2043.34 1250.56 2043.85 1250.21 2043.83C1249.92 2043.8 1249.32 2042.96 1248.44 2041.28C1246.91 2038.29 1244.64 2035.75 1241.83 2033.9C1238.84 2031.85 1235.34 2030.66 1231.72 2030.47C1224.08 2030.07 1219.05 2034.23 1216.63 2042.88C1215.27 2047.55 1214.31 2055.27 1213.76 2066.01C1213.21 2076.66 1213.83 2084.35 1215.61 2089.09C1216.99 2092.87 1219.92 2094.88 1224.42 2095.14C1225.42 2095.17 1226.42 2095.01 1227.35 2094.66L1229.12 2060.58L1253.19 2061.88ZM1307.06 2006.06L1317.89 2075.55C1318.55 2079.81 1319.29 2082.83 1320.06 2084.56C1321.26 2087.19 1323.49 2088.24 1326.78 2087.7C1330.59 2087.09 1332.68 2085.32 1333.05 2082.39C1333.26 2081.06 1332.97 2077.72 1332.18 2072.37L1321.48 2003.72L1344.56 2000.02L1355.74 2071.94C1357.05 2080.24 1357.2 2086.42 1356.18 2090.49C1354.75 2096.57 1351.07 2101.89 1345.88 2105.36C1341.72 2108.23 1336.58 2110.14 1330.52 2111.1C1320.25 2112.76 1311.95 2110.89 1305.56 2105.5C1301.87 2102.48 1299.17 2098.41 1297.82 2093.82C1296.7 2089.83 1295.84 2085.78 1295.22 2081.68L1284.03 2009.74L1307.06 2006.06ZM1425.48 2064.74L1411.46 2068.82L1414.54 2094.05L1391.57 2100.72L1379.26 1994.64L1414.65 1984.35L1459.46 2080.95L1436.25 2087.73L1425.48 2064.74ZM1417.89 2043.72L1407.17 2020.27C1405.27 2016.22 1403.64 2012.06 1402.29 2007.8L1401.57 2008.01C1402.85 2013.19 1403.71 2017.59 1404.09 2021.17L1407.21 2046.85L1417.89 2043.72ZM1496.86 2068.96L1451.35 1974.2L1480.87 1959.58C1489.93 1955.08 1497.96 1954.89 1504.96 1959C1510.4 1962.24 1515.1 1966.77 1519.06 1972.53C1522.46 1977.62 1525.63 1983.18 1528.52 1989.24C1536.9 2006.69 1540.63 2021.2 1539.7 2032.75C1539.29 2037.78 1537.46 2042.59 1534.42 2046.63C1531.39 2050.65 1527.43 2053.88 1522.89 2056.06L1496.86 2068.96ZM1507.41 2039.14C1508.35 2038.74 1509.04 2038.4 1509.55 2038.18C1514.89 2035.52 1517.35 2031.07 1516.9 2024.82C1516.6 2019.3 1514.43 2012.41 1510.44 2004.13C1506.56 1996.03 1502.93 1990.05 1499.56 1986.17C1496.69 1982.95 1493.48 1981.56 1489.88 1982.03C1487.79 1982.38 1485.77 1983.06 1483.9 1984.05C1483.11 1984.45 1482.32 1984.87 1481.55 1985.3L1507.41 2039.14ZM1597.65 1987.64L1585.14 1995.28L1594.54 2018.84L1574.11 2031.31L1535.17 1932.1L1566.72 1912.83L1634.59 1994.35L1613.9 2007L1597.65 1987.64ZM1584.95 1969.34L1568.63 1949.51C1565.76 1946.1 1563.12 1942.5 1560.73 1938.73L1560.08 1939.11C1562.66 1943.78 1564.58 1947.8 1565.85 1951.17L1575.43 1975.16L1584.95 1969.34ZM1614.71 1876.96L1663.44 1942.64L1679.49 1930.39L1693.2 1948.88L1658.53 1975.4L1596.1 1891.23L1614.71 1876.96ZM1732.14 1874.37L1722.38 1885.41L1738.15 1905.14L1722.17 1923.15L1656.41 1839.81L1681.02 1812.04L1769.42 1869.83L1753.28 1888.1L1732.14 1874.37ZM1714.74 1860.65L1693.41 1846.52C1689.69 1844.12 1686.14 1841.47 1682.79 1838.58L1682.28 1839.15C1686.08 1842.85 1689.09 1846.12 1691.28 1848.96L1707.35 1869.04L1714.74 1860.65ZM1725.09 1756.64L1787.61 1804.49C1793.48 1808.99 1797.29 1814.07 1799.05 1819.75C1801.35 1827.26 1799.97 1834.44 1794.89 1841.28C1790.98 1846.54 1785.38 1850.17 1778.08 1852.11L1763.82 1841.2C1763.08 1840.64 1762.83 1840.21 1763.08 1839.87C1763.16 1839.73 1763.82 1839.6 1764.97 1839.49C1766.62 1839.3 1768.21 1838.76 1769.63 1837.91C1771.06 1837.06 1772.28 1835.92 1773.23 1834.55C1775.69 1831.23 1775.78 1827.88 1773.5 1824.53C1772.53 1823.05 1771.32 1821.73 1769.93 1820.62L1765.3 1817.09L1711.04 1775.55L1725.09 1756.64ZM1824.94 1745.79L1817.43 1758.49L1836.62 1774.79L1824.31 1795.59L1744.11 1726.53L1763.04 1694.52L1860.69 1734.09L1848.25 1755.14L1824.94 1745.79ZM1805.29 1735.7L1781.68 1725.97C1777.58 1724.33 1773.59 1722.41 1769.75 1720.22L1769.34 1720.89C1773.79 1723.78 1777.36 1726.41 1780.02 1728.77L1799.56 1745.38L1805.29 1735.7ZM1877.51 1696.02L1780.02 1659.97L1792.05 1626.38C1793.02 1623.67 1794.76 1621.02 1797.23 1618.44C1799.38 1616.1 1802.01 1614.25 1804.92 1613C1810.69 1610.8 1818.24 1611.42 1827.56 1614.87C1836.16 1618.06 1842.19 1621.97 1845.62 1626.58C1847.77 1629.44 1849 1633.35 1849.27 1638.28L1898 1638.87L1889.87 1661.58L1856.63 1660.64C1851.06 1660.51 1846.93 1659.89 1844.19 1658.82L1843.84 1659.76C1845.15 1660.25 1846.39 1660.68 1847.65 1661.1C1850.15 1661.84 1851.83 1662.41 1852.74 1662.73L1885.16 1674.72L1877.51 1696.02ZM1828.05 1653.48C1828.58 1652.27 1829.07 1651.03 1829.53 1649.78C1831.55 1644.11 1829.07 1639.97 1822 1637.4C1817.91 1635.86 1814.81 1635.89 1812.7 1637.4C1811.19 1638.47 1809.88 1640.51 1808.81 1643.5C1808.6 1644.04 1808.35 1644.9 1807.97 1646.08L1828.05 1653.48ZM1891.34 1569.22L1887.83 1583.61L1910.86 1593.49L1905.09 1617.03L1808.51 1574.81L1817.4 1538.54L1922.18 1547.44L1916.34 1571.24L1891.34 1569.22ZM1869.65 1565.38L1844.29 1563.11C1839.89 1562.74 1835.52 1562.09 1831.2 1561.15L1831.02 1561.92C1836.11 1563.34 1840.27 1564.81 1843.51 1566.26L1866.97 1576.35L1869.65 1565.38ZM1904.32 1513.45L1907.31 1494.29C1909.53 1494.5 1911.17 1494.67 1912.22 1494.85C1918.94 1495.92 1926.58 1498.66 1935.13 1503C1937.04 1503.91 1941.35 1506.27 1948.03 1510L1945.68 1525.09C1932.7 1519.47 1921.36 1515.87 1911.67 1514.29C1909.23 1513.92 1906.78 1513.64 1904.32 1513.45ZM1898.01 1301.31L1900.29 1315.95L1925.3 1315.93L1929.03 1339.86L1823.89 1339.35L1818.15 1302.44L1918 1269.02L1921.78 1293.27L1898.01 1301.31ZM1876.54 1306.42L1852.32 1314.36C1848.13 1315.78 1843.85 1316.91 1839.51 1317.76L1839.64 1318.53C1844.01 1317.89 1848.42 1317.57 1852.83 1317.59L1878.27 1317.53L1876.54 1306.42ZM1885.58 1231.4C1884.41 1227.2 1884.72 1223.81 1886.5 1221.26C1887.75 1219.5 1890.07 1218.13 1893.5 1217.12C1901.14 1214.9 1906.04 1217.65 1908.21 1225.36C1910.36 1232.89 1907.6 1237.75 1899.93 1239.99C1892.62 1242.13 1887.81 1239.27 1885.58 1231.4ZM1784.03 1167.53L1807.25 1158.95C1807.97 1158.69 1808.4 1158.77 1808.56 1159.21C1808.74 1159.7 1808.21 1160.52 1806.95 1161.7C1805.24 1163.31 1804.06 1165.69 1803.35 1168.85C1802.61 1172.15 1802.77 1175.34 1803.89 1178.44C1805.85 1183.96 1810.08 1186.67 1816.51 1186.59C1820.94 1186.55 1827.12 1185.06 1835.06 1182.12C1844.21 1178.73 1850.75 1175.66 1854.74 1172.87C1861.36 1168.19 1863.5 1162.59 1861.17 1156.11C1860.02 1152.94 1857.94 1150.18 1855.2 1148.21C1853.79 1147.08 1852.16 1146.25 1850.42 1145.78C1848.66 1145.39 1847.74 1145.05 1847.63 1144.76C1847.48 1144.31 1847.82 1143.95 1848.63 1143.66L1867.98 1136.5C1875.8 1138.99 1881.29 1144.71 1884.48 1153.67C1887.11 1160.98 1887.27 1168 1884.94 1174.78C1882.59 1181.62 1876.92 1187.77 1867.92 1193.22C1861.36 1197.19 1852.97 1201.06 1842.78 1204.83C1826.69 1210.78 1813.99 1213.07 1804.64 1211.69C1799.68 1210.95 1795.09 1208.61 1791.58 1205.02C1787.81 1201.17 1784.96 1196.52 1783.22 1191.42C1780.28 1183.19 1780.53 1175.24 1784.03 1167.53ZM1834.36 1103.3C1832.46 1099.37 1832.21 1095.98 1833.55 1093.14C1834.46 1091.19 1836.54 1089.43 1839.71 1087.84C1846.86 1084.3 1852.17 1086.14 1855.65 1093.35C1859.03 1100.39 1857.13 1105.67 1849.98 1109.22C1843.1 1112.63 1837.89 1110.66 1834.36 1103.3Z" fill="white"/>
</g>
<defs>
<clipPath id="clip0_1_1136">
<rect width="2500" height="2500" fill="white"/>
</clipPath>
</defs>
</svg>
