<svg width="2500" height="2500" viewBox="0 0 2500 2500" fill="none" xmlns="http://www.w3.org/2000/svg">
<rect width="2500" height="2500" fill="white"/>
<path d="M2400 1191.05V1308.59C2399.21 1312.65 2398.08 1316.66 2397.67 1320.75C2393.94 1357.14 2392.08 1393.8 2386.36 1429.88C2365.53 1561.09 2323.91 1685.4 2259.52 1801.91C2140.32 2017.41 1970.07 2179.84 1748.49 2286.75C1543.13 2385.76 1326.48 2418.47 1100.17 2389.9C967.389 2373.53 838.667 2333.28 720.216 2271.09C494.52 2152.53 324.628 1978.47 213.632 1748.94C111.732 1538.3 79.9206 1315.84 111.962 1084.27C125.193 989.9 150.465 897.614 187.16 809.668C267.07 616.074 398.435 448.039 567.021 323.768C735.606 199.498 934.985 123.731 1143.55 104.676C1159.52 103.245 1175.44 101.559 1191.41 100H1308.95C1312.99 100.792 1317.02 101.814 1321.09 102.351C1374.59 109.275 1428.68 113.44 1481.47 123.533C1613.8 148.778 1737.19 198.322 1851.77 269.177C2036.4 383.307 2178.08 537.11 2276.82 730.586C2342.37 859.283 2382.6 999.373 2395.32 1143.24C2396.78 1159.16 2398.42 1175.11 2400 1191.05ZM1335.86 1900.51V596.977C1369.53 604.643 1402.29 610.264 1433.9 619.463C1465.5 628.661 1496.88 641.514 1529.08 653.012L1598.37 504.532C1365.67 401.508 1134.64 401.508 901.965 504.532C925.804 555.635 948.903 605 972.104 654.647C1034.37 625.978 1097.77 606.891 1164.97 599.047V1900.51C1101.27 1893.16 1041.27 1874.48 982.759 1848.8C982.018 1852.17 981.481 1853.91 981.328 1855.42C977.009 1906.26 973.126 1957.14 968.117 2007.91C967.019 2019.15 969.216 2024 980.433 2027.76C1059.94 2054.27 1142.84 2069.2 1226.6 2072.12C1283.99 2074.34 1341.45 2069.8 1397.79 2058.6C1439.72 2050.22 1480.81 2037.55 1522.25 2026.74C1529.92 2024.72 1533.55 2021.63 1532.47 2011.64C1528.49 1973.59 1526.14 1935.37 1523.02 1897.24C1521.72 1881.45 1520.01 1865.71 1518.32 1848.29C1458.76 1874.76 1399.2 1892.44 1335.86 1900.51ZM1541.62 1210.16L1543.95 1210.98C1566.66 1469.56 1589.45 1728.19 1612.32 1988.26C1617.22 1986.31 1621.99 1984.06 1626.61 1981.51C1670.61 1953.41 1714.43 1924.97 1758.58 1897.04C1768.37 1890.86 1770.1 1883.04 1769.11 1872.33C1763.51 1813.1 1758.58 1753.8 1753.19 1694.54C1746.03 1615.82 1738.52 1537.12 1731.5 1458.4C1725.11 1386.85 1719.23 1315.31 1713.02 1243.76C1708.76 1194.67 1704.39 1145.59 1699.91 1096.51C1695.16 1044.46 1689.69 992.438 1685.71 940.339C1684.56 925.519 1681.62 910.801 1688.98 895.419C1727.3 814.906 1764.43 733.755 1802.4 653.037C1806.16 645.04 1804.39 640.875 1798.16 636.046C1771.56 615.604 1745.45 594.371 1718.57 574.236C1703.39 562.866 1687.06 553.029 1670.96 542.271C1669.15 545.261 1668.15 546.641 1667.44 548.148C1583.42 727.827 1499.48 907.539 1415.6 1087.29C1412.39 1094.16 1410.65 1101.62 1410.49 1109.21C1410.18 1230.56 1410.12 1351.91 1410.31 1473.27C1410.31 1477.2 1410.75 1481.14 1411 1485.07L1413.35 1485.35C1456.13 1393.61 1498.88 1301.88 1541.62 1210.16ZM830.114 542.271C783.545 570.678 739.64 603.236 698.932 639.546C696.607 641.616 696.632 648.872 698.268 652.475C736.033 734.24 774.207 815.801 812.023 897.54C814.841 903.199 816.228 909.464 816.06 915.784C812.662 961.138 808.727 1006.44 804.69 1051.74C799.069 1114.83 793.064 1177.87 787.443 1240.82C782.792 1292.9 778.602 1345.02 773.951 1397.1C768.356 1459.75 762.376 1522.3 756.806 1585.03C752.846 1629.49 749.447 1674.03 745.538 1718.49C740.837 1771.84 735.65 1825.16 731.357 1878.54C731.357 1881.32 731.95 1884.07 733.095 1886.6C734.241 1889.14 735.913 1891.4 738 1893.23C758.237 1908.74 778.627 1924.23 800.091 1937.97C827.891 1955.86 856.764 1971.96 887.809 1990.38C910.805 1727.96 933.674 1469.13 956.44 1210.42L958.74 1210.04C1001.45 1301.71 1044.15 1393.38 1086.86 1485.05L1089.59 1484.51V1471.12C1089.59 1351.03 1089.59 1230.94 1089.33 1110.84C1089.21 1101.6 1087.16 1092.48 1083.3 1084.07C1025.68 960.073 967.819 836.165 909.732 712.342C883.465 656.18 857.147 600.043 830.114 542.271ZM634.67 705.239C497.279 856.325 399.366 1091.65 435.112 1359.82C458.467 1535.1 532.208 1686.88 655.929 1818.49C658.484 1792.46 660.732 1770.28 662.726 1748.05C666.916 1700.62 671.336 1653.23 674.862 1605.75C676.089 1589.35 679.564 1573.66 670.595 1556.54C604.647 1430.42 580.935 1296.65 601.249 1155.38C614.958 1057.82 650.887 964.712 706.265 883.231C710.89 876.383 711.708 871.069 708.105 863.505C692.953 831.694 678.44 799.627 663.645 767.559C654.242 747.22 644.788 726.958 634.67 705.239ZM1843.85 1816.55C2128.8 1534.18 2158.79 1028.13 1865.92 705.878C1863.62 710.298 1861.35 714.208 1859.46 718.296C1837.41 766.128 1815.71 814.114 1793.02 861.691C1788.76 870.685 1789.55 876.639 1794.94 884.688C1882.17 1015.59 1917.43 1160.01 1902.95 1316.02C1894.77 1404 1867.74 1487.01 1826.29 1565.2C1823.73 1570.4 1822.61 1576.19 1823.05 1581.96C1826.6 1624.28 1830.71 1666.56 1834.57 1708.85C1837.79 1743.88 1840.65 1778.89 1843.85 1816.55Z" fill="black"/>
<path d="M1250 2233.5C1793.22 2233.5 2233.58 1793.14 2233.58 1249.92C2233.58 706.704 1793.22 266.34 1250 266.34C706.783 266.34 266.419 706.704 266.419 1249.92C266.419 1793.14 706.783 2233.5 1250 2233.5Z" fill="#00259A"/>
<path d="M1335.98 1900.49C1399.32 1892.41 1458.91 1874.71 1518.57 1848.26C1520.26 1865.66 1521.97 1881.48 1523.28 1897.19C1526.39 1935.34 1528.74 1973.57 1532.73 2011.61C1533.75 2021.45 1530.17 2024.69 1522.51 2026.69C1481.06 2037.52 1439.98 2050.17 1398.05 2058.58C1341.71 2069.76 1284.25 2074.29 1226.85 2072.07C1143.1 2069.15 1060.2 2054.22 980.689 2027.74C969.446 2023.98 967.274 2019.1 968.373 2007.88C973.483 1957.11 977.265 1906.21 981.583 1855.39C981.736 1853.73 982.273 1852.12 982.988 1848.75C1041.53 1874.45 1101.52 1893.13 1165.22 1900.46V599.047C1098.02 606.866 1034.63 625.953 972.333 654.647C949.158 605.001 926.059 555.584 902.194 504.506C1134.84 401.508 1365.83 401.508 1598.52 504.506C1574.81 555.252 1551.89 604.439 1529.23 652.961C1497.03 641.463 1466.04 628.712 1434.05 619.437C1402.06 610.162 1369.69 604.515 1335.98 596.926V1900.49Z" fill="white"/>
<path d="M1541.75 1210.11C1499.02 1301.84 1456.29 1393.56 1413.56 1485.28L1411.2 1485C1410.97 1481.06 1410.54 1477.13 1410.51 1473.19C1410.51 1351.86 1410.58 1230.51 1410.72 1109.16C1410.85 1101.57 1412.59 1094.1 1415.83 1087.24C1499.59 907.438 1583.53 727.725 1667.67 548.098C1668.35 546.59 1669.38 545.236 1671.17 542.247C1687.29 552.978 1703.62 562.841 1718.77 574.186C1745.67 594.346 1771.79 615.503 1798.39 636.021C1804.62 640.824 1806.38 645.015 1802.63 652.987C1764.66 733.73 1727.58 814.856 1689.18 895.369C1681.85 910.7 1684.78 925.494 1685.93 940.314C1690 992.413 1695.39 1044.41 1700.12 1096.48C1704.6 1145.54 1708.96 1194.63 1713.22 1243.74C1719.46 1315.28 1725.33 1386.83 1731.72 1458.37C1738.75 1537.12 1746.26 1615.79 1753.42 1694.52C1758.78 1753.8 1763.64 1813.08 1769.31 1872.33C1770.33 1883.01 1768.57 1890.86 1758.81 1897.04C1714.65 1924.94 1670.83 1953.38 1626.81 1981.51C1622.19 1984.04 1617.43 1986.29 1612.55 1988.26C1589.66 1728.14 1566.84 1469.56 1544.1 1210.93L1541.75 1210.11ZM830.265 542.247C857.298 600.019 883.616 656.155 909.858 712.292C967.774 836.217 1025.64 960.167 1083.45 1084.14C1087.31 1092.55 1089.36 1101.67 1089.46 1110.92C1089.84 1231.01 1089.71 1351.11 1089.71 1471.2V1484.61L1086.98 1485.12C1044.29 1393.46 1001.59 1301.8 958.865 1210.14L956.591 1210.5C933.825 1469.28 911.059 1728.04 887.96 1990.48C856.915 1972.03 828.042 1955.86 800.241 1938.05C778.778 1924.3 758.388 1908.84 738.151 1893.31C736.068 1891.47 734.396 1889.22 733.247 1886.69C732.097 1884.16 731.496 1881.42 731.482 1878.64C735.801 1825.24 740.987 1771.94 745.689 1718.59C749.598 1674.1 752.997 1629.59 756.957 1585.11C762.527 1522.45 768.507 1459.9 774.102 1397.2C778.753 1345.13 782.943 1293 787.594 1240.9C793.215 1177.84 799.194 1114.81 804.841 1051.82C808.878 1006.52 812.813 961.19 816.211 915.836C816.378 909.524 814.992 903.268 812.174 897.617C774.358 815.852 736.158 734.292 698.419 652.527C696.758 648.95 696.732 641.668 699.057 639.598C739.775 603.266 783.689 570.683 830.265 542.247Z" fill="white"/>
<path d="M634.822 705.214C644.915 726.933 654.395 747.195 663.772 767.508C678.567 799.499 693.08 831.617 708.257 863.455C711.835 870.992 711.043 876.23 706.418 883.18C651.039 964.644 615.102 1057.73 601.375 1155.28C581.087 1296.6 604.774 1430.37 670.748 1556.44C679.716 1573.58 676.216 1589.27 675.015 1605.65C671.463 1653.12 667.068 1700.52 662.852 1747.95C660.885 1770.18 658.611 1792.38 656.081 1818.39C532.412 1686.75 458.619 1535.05 435.265 1359.69C399.518 1091.6 497.406 856.326 634.822 705.214ZM1844 1816.5C1840.78 1778.86 1837.94 1743.83 1834.8 1708.85C1831.02 1666.54 1826.83 1624.28 1823.3 1581.94C1822.85 1576.17 1823.97 1570.38 1826.55 1565.2C1868.02 1486.99 1895.05 1404 1903.2 1316.02C1917.69 1159.98 1882.43 1015.56 1795.19 884.662C1789.8 876.588 1789.01 870.66 1793.28 861.666C1815.84 814.089 1837.53 766.103 1859.58 718.296C1861.45 714.208 1863.72 710.299 1866.05 705.878C2158.92 1028.08 2128.95 1534.16 1844 1816.5Z" fill="white"/>
</svg>
