<svg width="2500" height="2500" viewBox="0 0 2500 2500" fill="none" xmlns="http://www.w3.org/2000/svg">
<rect width="2500" height="2500" fill="white"/>
<path d="M1249.77 2400C1249.77 2400 417.751 2103 370.389 1129.49C370.389 1129.49 334.53 764.393 360.344 340.47C360.344 340.47 688.582 348.517 824.23 312.237C1015.02 261.214 1249.77 100 1249.77 100C1249.77 100 1484.54 261.214 1675.33 312.226C1810.96 348.495 2139.2 340.46 2139.2 340.46C2165.03 764.393 2129.17 1129.48 2129.17 1129.48C2081.8 2103 1249.77 2400 1249.77 2400Z" fill="#33348E"/>
<path d="M836.469 357.978C996.602 315.164 1181.56 201.172 1249.77 156.834C1317.98 201.161 1502.95 315.164 1663.08 357.978C1773.8 387.594 1997.45 389.268 2094.27 388.48C2098.83 478.105 2101.11 567.832 2101.11 657.573C2101.11 925.92 2082.27 1122.2 2082.02 1124.85L2081.91 1126.01L2081.85 1127.17C2062.91 1516.55 1915.11 1841.25 1642.57 2092.25C1470.7 2250.54 1300.96 2327.87 1249.76 2349.04C1198.58 2327.87 1028.84 2250.53 856.958 2092.25C584.42 1841.25 436.621 1516.55 417.687 1127.17L417.633 1126.01L417.514 1124.85C417.255 1122.19 398.418 925.92 398.418 657.573C398.418 573.736 400.449 482.674 405.266 388.48C502.095 389.268 725.749 387.594 836.469 357.978Z" fill="white"/>
<path d="M472.511 1119.47L472.76 1121.99L472.879 1124.49C491.013 1497.22 631.727 1808.11 891.11 2048.56C1038.41 2185.12 1184.86 2259.77 1249.77 2288.89C1314.68 2259.77 1461.14 2185.12 1608.44 2048.56C1867.83 1808.11 2008.55 1497.22 2026.68 1124.49L2026.8 1121.98L2027.05 1119.47C2027.24 1117.5 2037.85 1006.51 2043.06 838.25H456.494C461.7 1006.51 472.317 1117.5 472.511 1119.47ZM2045.87 657.627C2045.87 590.37 2044.57 518.361 2041.58 443.91C1928.22 443.489 1749.15 438.197 1648.81 411.357C1501.2 371.88 1335.44 275.914 1249.77 222.288C1164.11 275.914 998.351 371.88 850.747 411.357C750.407 438.186 571.339 443.489 457.973 443.91C455.12 515.114 453.691 586.367 453.686 657.627C453.686 693.497 454.031 728.006 454.614 760.959H2044.94C2045.53 728.006 2045.87 693.497 2045.87 657.627Z" fill="#33348E"/>
<path d="M2018.57 861.936C2013.17 1015.79 2003.58 1116.12 2003.47 1117.13L2003.18 1120.23L2003.03 1123.32C1985.22 1489.67 1847.03 1795.12 1592.35 2031.22C1452.68 2160.69 1312.42 2233.89 1249.79 2262.87C1187.16 2233.89 1046.89 2160.7 907.226 2031.22C652.53 1795.12 514.366 1489.67 496.555 1123.36L496.404 1120.27L496.102 1117.17C495.994 1116.13 486.424 1016.23 481.002 861.947L2018.57 861.936Z" fill="white"/>
<path d="M679.759 567.159C679.759 541.582 674.077 522.26 662.132 508.056C650.769 494.415 633.725 487.6 610.417 487.6H504.137V747.89H568.359V651.276H603.029C629.167 651.276 647.929 643.888 660.998 629.102C673.494 614.326 679.759 593.869 679.759 567.159ZM609.845 590.467C608.187 592.236 606.208 593.673 604.012 594.701C603.314 595.038 602.601 595.341 601.874 595.608C598.939 596.681 595.897 597.434 592.801 597.855C592.196 597.974 591.602 597.995 590.997 598.06C588.762 598.293 586.516 598.415 584.268 598.427H568.359V540.448H586.547C592.38 540.448 597.24 541.15 601.236 542.511C603.057 543.121 604.795 543.956 606.41 544.995C606.637 545.125 606.885 545.255 607.091 545.395C608.581 546.432 609.888 547.62 610.979 548.981C614.964 554.662 617.233 561.477 617.233 569.999C617.233 577.96 614.964 585.347 609.845 590.467ZM785.92 461.57C781.514 462.444 777.161 463.233 772.959 463.719C768.941 464.529 765.031 465.166 761.186 465.717C757.579 466.171 753.961 466.635 750.526 466.927C749.586 467.013 748.679 467.067 747.739 467.132C742.922 467.478 738.224 467.704 733.741 467.704L657.585 747.89H722.941L736.582 700.15H809.326L820.688 747.89H886.044L803.634 457.476C797.531 459.031 791.666 460.371 785.92 461.57ZM772.949 637.634H750.213L772.949 550.115L795.684 637.634H772.949ZM1015.06 494.987L1025.85 524.539L1084.39 486.465C1063.93 408.03 1013.93 372.797 952.545 422.805C909.914 465.425 894.577 506.35 888.323 545.568C882.07 589.322 883.204 625.699 887.189 659.798C903.11 706.403 919.019 728.567 935.501 739.368C970.161 754.143 1003.13 754.143 1034.96 739.368C1066.21 715.498 1079.28 675.146 1084.39 627.978L1025.85 599.561C1021.88 619.457 1017.33 639.913 1009.95 659.798C993.47 677.997 976.977 677.997 959.933 659.798C943.451 610.924 943.451 562.05 959.933 513.738C978.683 484.187 996.872 478.494 1015.06 494.987ZM1240.11 487.027H1171.35V358.022L1108.26 371.652V747.89H1171.35V591.601H1240.11V747.89H1303.2V359.717L1240.11 355.743V487.027ZM1473.13 597.855C1473.13 618.884 1470.27 635.366 1464.6 646.729C1458.34 658.091 1450.4 663.772 1439.6 663.772C1429.37 663.772 1420.84 658.091 1415.16 646.729C1408.9 634.794 1406.06 618.884 1406.06 597.855V379.613L1345.24 363.141V592.746C1345.24 610.924 1347.53 632.526 1350.93 656.957C1353.2 671.733 1357.75 686.508 1364 700.722C1370.26 714.925 1377.65 725.726 1385.03 733.686C1392.42 741.085 1402.08 746.194 1413.44 749.024C1424.8 751.292 1435.04 753.009 1444.7 753.009C1461.18 753.009 1475.39 748.462 1487.32 739.94C1495.85 734.27 1503.8 723.469 1511.19 708.682C1519.14 693.907 1524.83 676.28 1528.24 656.395C1532.23 635.939 1533.92 614.909 1533.92 592.746V414.283L1473.11 397.801L1473.13 597.855ZM1696.48 666.051C1690.23 675.718 1681.14 680.827 1668.63 680.827C1656.13 680.827 1646.47 674.573 1639.65 662.638C1632.25 650.703 1628.85 628.54 1628.85 596.71C1628.85 570.572 1631.7 551.249 1637.95 539.314C1645.33 522.843 1656.71 514.883 1670.91 514.883C1677.17 514.883 1683.42 516.589 1688.54 519.991C1693.66 523.977 1697.63 529.086 1701.61 535.912C1703.86 540.459 1705.58 546.713 1707.86 555.807L1764.12 537.618C1756.73 507.484 1745.93 484.759 1730.59 469.983C1715.81 455.208 1695.35 447.82 1669.21 447.82C1636.25 447.82 1610.67 460.327 1592.49 486.476C1574.3 512.053 1565.2 548.992 1565.2 597.293C1565.2 633.098 1570.31 662.66 1580.55 685.957C1590.78 708.682 1603.28 725.165 1617.49 734.27C1631.7 743.353 1649.88 747.9 1672.62 747.9C1690.81 747.9 1706.14 743.926 1718.08 736.538C1730 729.139 1740.24 717.777 1748.2 703.001C1756.15 688.226 1762.39 670.037 1765.81 647.874L1710.12 624.004C1707.27 642.754 1702.73 656.395 1696.48 666.051ZM1917.55 487.6H1847.66L1770.35 747.89H1835.15L1845.39 705.269H1918.13L1928.37 747.89H1995.42L1917.55 487.6ZM1881.75 648.435H1859.01L1881.75 555.235L1905.04 648.435H1881.75Z" fill="white"/>
<path d="M648.466 1030.34C657.55 1023.52 664.376 1016.14 668.923 1007.62C673.47 999.657 675.177 990.001 675.177 979.201C675.177 962.718 669.495 948.515 656.988 937.153C644.491 925.218 630.278 919.526 613.223 919.526C595.034 919.526 580.259 925.207 567.762 936.58C555.266 948.515 549.012 962.718 549.012 979.201C549.012 990.001 551.28 999.085 555.827 1007.62C559.802 1015.57 566.056 1022.97 574.577 1029.21V1046.26C562.07 1039.45 552.414 1030.35 545.588 1018.99C538.2 1007.63 534.787 994.549 534.787 980.346C534.787 958.744 542.737 940.566 557.512 925.79C572.288 911.015 591.038 903.627 613.201 903.627C624.002 903.627 633.669 905.895 642.753 909.881C652.334 913.795 661.032 919.594 668.329 926.935C675.155 934.323 680.836 942.272 684.249 950.794C688.224 959.899 689.931 969.555 689.931 979.784C689.931 994.559 686.518 1007.64 679.13 1019.56C671.742 1031.5 661.514 1040.59 648.445 1047.42V1030.34H648.466ZM549.563 1158.79V1091.72H698.474V1106.5H563.777V1158.79H549.563ZM703.011 1186.63L704.717 1201.41L611.516 1213.91C605.939 1214.29 600.415 1215.24 595.034 1216.75C591.862 1217.73 588.812 1219.07 585.94 1220.73C580.841 1224 576.873 1228.76 574.577 1234.37C571.737 1239.49 571.175 1245.74 571.737 1251.99C573.443 1263.35 578.552 1270.74 586.512 1275.28C595.034 1279.83 606.969 1280.98 622.89 1278.69L713.25 1266.76L715.518 1280.98L621.183 1293.47C602.433 1295.74 587.657 1294.05 576.856 1287.79C566.628 1281.54 560.374 1270.18 558.668 1254.83C556.4 1238.35 559.24 1225.28 567.2 1216.75C575.722 1207.66 589.375 1201.98 609.259 1199.14L703.011 1186.63ZM696.195 1414.53V1399.76C698.463 1399.76 700.732 1399.19 703.572 1398.62C712.105 1397.47 717.214 1393.49 720.054 1387.26C722.906 1380.99 723.467 1371.9 721.188 1359.4L718.348 1347.47L696.195 1351.45V1337.24L729.721 1330.98L734.841 1358.27C738.243 1374.75 737.681 1387.26 732.572 1396.34C728.025 1405.43 718.931 1411.12 705.851 1413.38C702.449 1414.53 699.036 1414.53 696.195 1414.53ZM655.282 1359.4L630.278 1364.51V1350.31L696.206 1337.24V1351.45L669.485 1357.13L671.191 1365.66C674.032 1379.85 677.445 1388.94 682.554 1394.06C685.967 1397.46 690.514 1399.19 696.195 1399.76V1414.53C693.344 1414.53 690.514 1413.96 687.662 1412.82C682.369 1411.1 677.65 1407.95 674.021 1403.73C672.314 1412.25 668.912 1419.08 663.793 1424.2C658.684 1429.3 651.285 1432.72 642.763 1434.41C638.628 1435.08 634.453 1435.45 630.267 1435.55V1420.77C633.107 1420.77 635.386 1420.21 638.227 1419.65C647.883 1417.93 654.137 1413.96 657.539 1407.14C660.963 1400.33 661.524 1391.23 659.245 1379.86L655.282 1359.4ZM630.278 1364.51L600.143 1370.2L604.118 1390.66C606.386 1402.59 610.372 1410.55 616.053 1415.67C620.028 1418.5 624.575 1420.78 630.256 1420.78V1435.56C621.162 1435.56 613.774 1433.29 608.093 1428.17C599.56 1421.34 593.317 1409.41 589.904 1391.79L583.65 1359.4L630.256 1350.31V1364.51H630.278Z" fill="#33348E"/>
<path d="M801.335 1557.75L763.823 1581.05V1563.99L806.454 1537.85L828.045 1574.23C834.299 1583.89 838.846 1592.97 840.553 1600.94C842.821 1608.9 843.404 1616.86 842.259 1624.81C840.494 1635.77 836.426 1646.23 830.324 1655.5C823.509 1664.58 815.549 1672.54 805.32 1678.8C794.519 1685.62 782.595 1689.59 770.649 1690.74C768.381 1691.31 766.113 1691.31 763.834 1691.31V1676.54C774.635 1675.96 786.008 1672.55 797.371 1665.16C805.903 1660.04 812.719 1653.8 817.828 1646.4C822.743 1639.39 826.22 1631.47 828.056 1623.1C828.628 1616.29 828.628 1610.6 826.922 1604.35C825.215 1598.09 821.813 1590.15 815.559 1580.48L801.335 1557.75ZM763.823 1581.05L698.478 1620.85L714.388 1646.41C724.616 1662.91 736.551 1672.55 750.754 1675.4C755.301 1676.54 759.287 1676.54 763.834 1676.54V1691.31C754.178 1691.31 745.073 1689.59 736.551 1685.62C729.661 1682.74 723.316 1678.71 717.79 1673.69C712.67 1668 705.855 1658.92 697.895 1646.4L679.145 1615.72L763.823 1563.99V1581.05ZM816.683 1745.87L861.02 1790.18L850.219 1800.43L805.893 1756.08L768.37 1793.6L812.708 1837.93L802.48 1848.15L747.924 1793.6L853.049 1687.9L908.177 1742.45L897.376 1753.24L853.622 1708.93L816.683 1745.87Z" fill="#33348E"/>
<path d="M1728.13 1790.82L1621.87 1686.82L1673.57 1633.97L1683.81 1644.19L1642.33 1686.82L1679.84 1723.19L1720.75 1681.14L1731.55 1691.37L1690.06 1733.42L1738.37 1780.59L1728.13 1790.82ZM1675.86 1582.82L1684.4 1570.88L1761.68 1624.88C1767.94 1628.86 1772.48 1631.69 1775.33 1633.41C1778.73 1635.11 1782.13 1636.25 1784.99 1636.25C1790.9 1637.41 1797.02 1636.82 1802.6 1634.54C1808.28 1632.27 1812.83 1628.29 1816.81 1623.18C1823.06 1613.51 1824.77 1605 1821.35 1595.91C1818.51 1587.38 1809.99 1578.28 1796.92 1568.62L1722.46 1516.91L1730.42 1504.98L1808.27 1558.98C1824.18 1570.34 1833.85 1581.7 1837.25 1593.63C1840.1 1605.01 1837.82 1617.51 1828.73 1630.02C1819.06 1643.65 1808.27 1651.05 1796.33 1652.17C1783.83 1653.3 1769.61 1648.18 1753.71 1636.83L1675.86 1582.82ZM1867.96 1460.63L1864.53 1474.84L1734.39 1441.32L1727 1469.72L1712.79 1466.31L1731.55 1394.71L1745.76 1398.11L1737.81 1427.09L1867.96 1460.63ZM1854.88 1346.39L1879.88 1350.93L1883.86 1331.04C1885.56 1319.11 1885 1309.44 1881.59 1303.19C1878.18 1296.94 1871.93 1292.39 1862.84 1290.69C1860 1290.11 1857.15 1290.11 1854.88 1290.11V1274.78C1857.72 1274.78 1860.56 1275.34 1863.4 1275.91C1878.18 1278.75 1888.4 1285.01 1894.1 1294.1C1899.2 1303.76 1900.35 1317.4 1897.51 1335.01L1891.24 1367.4L1854.88 1360.59V1346.39ZM1824.75 1340.72L1854.88 1346.39V1360.61L1787.82 1348.1V1333.9L1810.55 1338.45L1812.25 1329.35C1815.1 1315.15 1814.53 1304.92 1811.69 1298.67C1808.84 1292.41 1803.15 1288.44 1794.07 1286.73C1791.8 1286.17 1789.52 1286.17 1787.82 1286.17V1270.82C1790.66 1270.82 1794.07 1271.4 1797.49 1271.96C1804.3 1273.09 1809.99 1275.37 1813.96 1278.78C1818.5 1282.77 1821.35 1287.32 1823.62 1292.99C1828.16 1285.59 1833.86 1280.48 1840.66 1277.64C1845.21 1275.93 1849.76 1274.8 1854.88 1274.8V1290.14C1849.2 1290.14 1844.08 1292.4 1840.1 1295.83C1834.42 1300.36 1830.44 1308.9 1828.16 1320.83L1824.75 1340.72ZM1787.82 1270.8V1286.15C1782.12 1286.15 1778.15 1287.86 1774.16 1291.26C1769.62 1296.38 1765.64 1304.33 1763.95 1316.84L1761.67 1328.77L1787.82 1333.88V1348.08L1744.61 1340.13L1749.73 1312.85C1753.13 1296.38 1758.26 1285.01 1766.2 1278.19C1771.91 1273.08 1779.29 1270.8 1787.82 1270.8ZM1837.82 1221.94C1850.74 1222.6 1863.51 1219.01 1874.19 1211.71C1888.39 1202.62 1896.93 1189.55 1900.34 1172.49C1903.17 1155.44 1899.77 1140.67 1889.54 1126.46C1879.3 1112.82 1865.66 1104.3 1848.05 1101.44C1844.64 1100.32 1841.23 1100.32 1837.82 1100.32V1084.97C1842.37 1084.97 1846.35 1085.53 1850.9 1086.68C1860.5 1088.25 1869.73 1091.52 1878.16 1096.35C1886.46 1101.23 1893.63 1107.81 1899.19 1115.67C1906.02 1124.2 1911.14 1133.86 1913.41 1144.09C1915.67 1154.31 1915.67 1165.12 1913.98 1175.91C1910.01 1196.93 1899.19 1213.43 1881.58 1224.79C1868.52 1233.31 1853.73 1237.86 1837.82 1237.3V1221.94ZM1825.89 1220.79C1829.87 1221.93 1833.85 1221.94 1837.82 1221.94V1237.28C1833.28 1237.28 1828.16 1236.7 1823.05 1236.14C1812.82 1233.86 1803.73 1230.46 1795.19 1224.78C1786.6 1218.93 1779.1 1211.62 1773.04 1203.18C1767.36 1194.65 1763.95 1185.56 1761.67 1176.47C1759.96 1167.37 1759.96 1157.71 1761.67 1147.48C1763.21 1137.52 1766.89 1128.02 1772.47 1119.63C1777.59 1111.68 1784.4 1104.86 1792.94 1098.6C1801.24 1093.02 1810.47 1088.98 1820.21 1086.68C1826.01 1085.55 1831.91 1084.97 1837.82 1084.97V1100.32C1824.75 1099.75 1812.82 1103.16 1801.46 1111.12C1787.24 1120.22 1778.72 1133.86 1775.32 1150.34C1774.17 1156.92 1774.17 1163.65 1775.32 1170.22C1776.45 1177.04 1778.72 1183.29 1782.12 1189.56C1787.24 1197.51 1792.92 1204.33 1800.88 1210.01C1808.84 1215.69 1817.37 1219.09 1825.89 1220.79ZM1916.82 953.105L1917.39 1020.75L1768.49 1021.89V1007.11L1903.17 1005.96L1902.62 953.689L1916.82 953.105Z" fill="#33348E"/>
<path d="M1175.89 1274.72V1292.34H1214.54L1215.67 1187.77L1207.15 1169.03L1196.35 1166.17L1173.62 1159.36L1154.87 1180.38H1174.76L1184.42 1188.9V1206.53H1173.62V1222.43H1190.67V1274.72H1175.89Z" fill="#33348E"/>
<path d="M1466.31 1753.82V1670.85L1453.8 1660.62L1446.41 1453.75L1437.88 1448.64L1375.94 1415.1L1381.05 1392.93L1430.49 1427.6C1433.33 1428.17 1435.6 1428.17 1437.88 1428.73C1463.46 1431.56 1470.84 1420.21 1460.05 1395.21L1437.88 1358.83L1412.88 1317.89L1402.07 1300.85V1209.92C1435.6 1140.02 1421.97 1091.14 1375.94 1057.6C1375.36 1057.03 1374.8 1057.03 1374.23 1056.47C1365.09 1053.19 1355.8 1050.34 1346.39 1047.95C1328.2 1043.4 1310.58 1041.13 1294.09 1041.7C1277.04 1042.83 1261.13 1046.8 1246.93 1054.76C1240.68 1057.6 1235 1061.58 1229.3 1066.13C1220.78 1041.7 1209.98 1026.92 1196.35 1027.49C1182.15 1028.62 1164.52 1045.68 1142.36 1086.02C1136.1 1086.58 1130.42 1087.16 1125.3 1087.73C1114.5 1089.44 1105.98 1091.7 1099.74 1095.12C1075.29 1106.49 1083.25 1126.38 1099.74 1140.02C1107.12 1146.27 1116.21 1151.38 1125.3 1153.66C1146.33 1158.78 1163.96 1147.98 1144.63 1101.94L1178.15 1120.69L1196.34 1108.2L1234.41 1082.05H1246.92C1266.24 1083.18 1281.58 1089.44 1294.08 1099.66C1300.91 1105.34 1307.16 1111.6 1312.27 1119.56L1313.97 1310.51L1294.08 1316.76L1262.83 1325.84L1246.92 1338.35L1238.96 1344.03L1196.34 1345.74L1166.22 1346.86C1157.69 1363.92 1144.05 1367.32 1125.29 1357.66C1123.14 1356.65 1121.06 1355.51 1119.04 1354.25L1099.72 1354.81L1061.63 1355.38L1060.5 1357.66L1029.23 1413.93L1053.1 1436.09L1045.71 1544.08L1037.75 1625.91L1030.36 1704.35L1007.05 1770.28V1817.46H1492.4V1782.79L1466.31 1753.82ZM1126.45 1146.85C1125.87 1146.85 1125.31 1146.29 1125.31 1146.29C1117.36 1142.31 1112.24 1136.62 1109.98 1129.24C1105.43 1120.14 1109.4 1111.05 1122.48 1103.1C1123.62 1103.67 1124.19 1103.67 1125.32 1104.23C1136.12 1108.22 1139.53 1115.59 1142.38 1122.99C1140.09 1133.77 1134.97 1141.17 1126.45 1146.85ZM1414.58 1561.72L1437.88 1578.78L1445.27 1583.89L1444.13 1607.76H1437.88L1414.58 1608.89V1561.72ZM1444.13 1645.84L1437.88 1646.4L1374.23 1647.54L1346.39 1648.11L1341.25 1648.68L1342.4 1624.81L1346.39 1625.38L1374.23 1628.21L1389.58 1629.92L1436.75 1633.33L1437.88 1635.6L1444.13 1645.84ZM1406.63 1615.15L1374.23 1616.29L1346.39 1617.99L1327.62 1618.55L1341.27 1592.42L1346.4 1595.26L1369.68 1607.76H1406.63V1615.15ZM1322.52 1575.37V1445.79L1346.4 1416.8L1347.52 1416.24V1575.37H1322.52ZM1389.58 1457.15L1391.85 1560.58H1382.18V1567.97H1389.58L1392.99 1583.89L1391.86 1599.81H1382.19L1374.24 1597.53L1357.19 1592.42V1571.39H1364.58V1552.64H1354.92V1453.75L1371.98 1444.08L1374.24 1445.23L1389.58 1457.15ZM1329.9 1216.18L1336.15 1151.97L1346.39 1163.33L1348.64 1165.59L1349.79 1267.33H1329.9V1216.18ZM1310.02 1341.79L1341.27 1335.53L1346.4 1330.99L1364.58 1315.65L1374.24 1319.05L1385.6 1323.04L1384.47 1339.51L1414.59 1340.65L1408.34 1357.7L1374.24 1358.84L1346.4 1359.96L1295.24 1361.68L1310.02 1341.79ZM1256.59 1445.8L1290.11 1426.47L1294.09 1412.26L1300.35 1388.95L1321.38 1404.87V1601.51L1294.09 1599.82L1274.2 1598.68L1256.59 1591.3V1445.8ZM1196.35 1608.9H1190.67V1617.42H1113.95L1115.08 1607.76H1169.65L1182.15 1601.5H1241.81L1242.95 1607.76L1246.93 1607.2L1294.09 1606.62L1307.73 1606.05V1616.29H1230.45V1608.89L1196.35 1608.9ZM1246.93 1428.74L1254.33 1429.88V1592.42H1193.5L1164.52 1598.67H1115.07V1575.38H1190.66L1195.78 1561.74H1196.34L1231.57 1560.59L1233.28 1544.12H1213.38L1198.04 1551.51L1199.74 1450.91L1216.8 1431.02L1234.41 1426.48L1246.93 1428.74ZM1060.52 1384.41L1085.52 1362.82L1099.74 1362.24L1104.85 1361.68L1099.74 1366.23L1060.52 1399.18L1057.68 1401.45H1040.62L1060.52 1384.41ZM1042.9 1409.98L1060.53 1406.58L1099.75 1398.06L1107.7 1396.35L1125.31 1394.08L1164.53 1388.96L1196.36 1387.28L1230.46 1385L1233.31 1402.62L1217.96 1424.79H1203.19L1213.42 1404.9L1196.36 1407.16L1148.62 1412.28L1134.98 1418.54L1125.31 1419.11L1099.75 1419.68L1085.53 1420.25L1081.56 1433.9H1055.41L1042.9 1409.98ZM1051.99 1606.05V1569.11H1074.16V1560.58H1049.15V1551.49L1057.68 1538.98V1452.03L1060.52 1450.89L1095.18 1433.85V1473.63H1102.57L1106.55 1448.63H1113.94V1490.69L1099.74 1492.96L1099.16 1493.52L1095.19 1512.85L1099.74 1511.73L1113.94 1507.17V1603.78H1091.2L1080.4 1639.58H1039.48L1051.99 1606.05ZM1080.41 1811.22H1018.46L1016.75 1794.74H1080.41V1811.22ZM1080.41 1789.05H1018.46L1016.75 1772.58H1080.41V1789.05ZM1083.83 1745.3H1037.79L1036.66 1706.64L1046.89 1673.11H1083.83V1745.3ZM1085.52 1646.98L1099.74 1636.17L1116.21 1623.67H1125.3L1196.35 1623.11H1246.93L1294.09 1622.53H1333.89V1644.71L1294.09 1645.28L1246.93 1645.84L1196.35 1646.4L1125.3 1646.98H1085.52ZM1101.43 1675.95V1659.48H1169.64V1675.95H1101.43ZM1229.3 1732.79L1219.08 1749.27H1163.39L1164.52 1708.36L1177.03 1678.22L1196.35 1677.66L1229.3 1677.09V1732.79ZM1254.33 1814.63H1246.93L1233.29 1813.5L1241.81 1723.13L1246.93 1706.08L1258.86 1663.46L1260.56 1792.47L1254.33 1814.63ZM1325.93 1751.55H1261.7L1284.99 1665.74L1294.08 1667.44L1317.4 1670.86L1325.92 1691.89L1325.93 1751.55ZM1359.47 1749.27H1333.89V1727.67L1346.4 1682.78L1347.52 1680.51H1359.47V1749.27ZM1388.44 1706.64H1370.82L1374.23 1685.04L1375.94 1671.97L1437.88 1678.79L1457.77 1680.5L1458.91 1693H1445.27V1685.61H1389.58L1388.44 1706.64ZM1437.88 1814.63H1394.68L1392.98 1794.74H1481.63L1482.77 1814.63H1437.88Z" fill="#33348E"/>
<path d="M1088.37 1153.1L1072.45 1230.96V1350.31L1128.15 1313.37V1194.03H1117.92V1295.74L1110.53 1313.37L1083.25 1327.01V1240.05L1094.62 1171.86L1088.37 1153.1ZM1233.86 1115.59L1261.13 1122.98V1333.25L1224.77 1356.56L1220.22 1335.53V1134.35L1227.61 1135.49L1228.74 1342.92L1250.9 1328.14V1128.09L1229.89 1124.69L1233.86 1115.59ZM1146.9 1294.62C1144.06 1243.47 1149.75 1209.94 1163.96 1195.15H1153.16C1139.52 1220.73 1137.81 1241.76 1134.4 1294.62H1146.9ZM1223.62 1434.99H1234.98V1598.66H1223.62V1434.99ZM1128.71 1002.5V1036.02L1101.43 1048.53C1123.03 1065.01 1133.26 1063.31 1154.86 1036.02L1146.33 1018.98L1167.92 1033.76L1183.27 1018.98C1167.36 1016.14 1165.64 987.162 1188.38 995.111C1229.86 1060.46 1254.88 1040 1300.34 1004.21C1342.4 1014.43 1304.89 1071.84 1390.7 1038.88C1373.65 1025.8 1358.88 1008.75 1348.63 982.615C1352.06 934.302 1344.66 912.711 1308.85 926.925C1290.66 898.497 1256 892.827 1241.8 920.672C1202.58 882.599 1176.44 900.776 1170.75 944.542C1114.49 940.567 1132.68 984.321 1101.42 984.321L1128.71 1002.5Z" fill="#33348E"/>
<path d="M1241.25 929.744C1243.52 929.744 1241.25 928.048 1243.52 928.048C1244.65 924.635 1247.49 921.795 1243.52 925.78L1248.63 920.661C1248.63 919.526 1249.76 918.392 1249.76 915.541C1249.76 913.262 1252.03 910.994 1249.76 913.262C1249.76 913.262 1252.03 910.994 1252.03 909.86C1252.03 905.874 1253.73 901.899 1253.73 898.486C1253.73 897.363 1256 893.378 1256 891.109V921.795C1256 921.795 1253.73 925.78 1253.73 926.914L1241.25 929.744Z" fill="#33348E"/>
</svg>
