<?xml version="1.0" encoding="UTF-8"?>
<svg id="Layer_2" data-name="Layer 2" xmlns="http://www.w3.org/2000/svg" xmlns:xlink="http://www.w3.org/1999/xlink" version="1.1" viewBox="0 0 1600 900">
  <defs>
    <style>
      .cls-1 {
        stroke: url(#linear-gradient-3);
      }

      .cls-1, .cls-2 {
        stroke-width: 2px;
      }

      .cls-1, .cls-2, .cls-3, .cls-4, .cls-5, .cls-6, .cls-7 {
        fill: #fff;
        fill-opacity: 0;
        stroke-miterlimit: 10;
      }

      .cls-2 {
        stroke: url(#linear-gradient);
      }

      .cls-3 {
        stroke: url(#linear-gradient-7);
      }

      .cls-3, .cls-4, .cls-5, .cls-6 {
        stroke-width: 4px;
      }

      .cls-4 {
        stroke: url(#linear-gradient-5);
      }

      .cls-5 {
        stroke: url(#linear-gradient-2);
      }

      .cls-6 {
        stroke: url(#linear-gradient-4);
      }

      .cls-7 {
        stroke: url(#linear-gradient-6);
        stroke-width: 5px;
      }

      .cls-8 {
        fill: #f1f1f1;
        stroke-width: 0px;
      }
    </style>
    <linearGradient id="linear-gradient" x1="746.7" y1="-5" x2="746.7" y2="-6" gradientTransform="translate(-59206.1 806.6) scale(81 70)" gradientUnits="userSpaceOnUse">
      <stop offset="0" stop-color="#170cb4"/>
      <stop offset="1" stop-color="#830aaf"/>
    </linearGradient>
    <linearGradient id="linear-gradient-2" x1="758.2" y1="-1.9" x2="758.2" y2="-2.9" gradientTransform="translate(-59397.1 355.7) scale(80)" gradientUnits="userSpaceOnUse">
      <stop offset="0" stop-color="#170cb4"/>
      <stop offset="1" stop-color="#830aaf"/>
    </linearGradient>
    <linearGradient id="linear-gradient-3" x1="757.5" y1="-9.1" x2="757.5" y2="-10.1" gradientTransform="translate(-57365.8 25245.9) rotate(-22.5) scale(83.7 41.9)" gradientUnits="userSpaceOnUse">
      <stop offset="0" stop-color="#170cb4"/>
      <stop offset="1" stop-color="#830aaf"/>
    </linearGradient>
    <linearGradient id="linear-gradient-4" x1="743.6" y1="-1.6" x2="743.6" y2="-.6" gradientTransform="translate(-46701.1 640.8) scale(62.8 89.2)" gradientUnits="userSpaceOnUse">
      <stop offset="0" stop-color="#170cb4"/>
      <stop offset="1" stop-color="#830aaf"/>
    </linearGradient>
    <linearGradient id="linear-gradient-5" x1="752.9" y1="-6.4" x2="752.9" y2="-5.4" xlink:href="#linear-gradient-4"/>
    <linearGradient id="linear-gradient-6" x1="746.2" y1="-4.9" x2="746.2" y2="-4.3" gradientTransform="translate(181.3 -74067.7) rotate(90) scale(100)" gradientUnits="userSpaceOnUse">
      <stop offset="0" stop-color="#170cb4"/>
      <stop offset="1" stop-color="#830aaf"/>
    </linearGradient>
    <linearGradient id="linear-gradient-7" x1="742.9" y1="-1.3" x2="742.9" y2="-.3" gradientTransform="translate(-61622.2 391.6) scale(84.1 72.8)" gradientUnits="userSpaceOnUse">
      <stop offset="0" stop-color="#170cb4"/>
      <stop offset="1" stop-color="#830aaf"/>
    </linearGradient>
  </defs>
  <rect class="cls-8" width="1600" height="900"/>
  <path class="cls-2" d="M1240.1,461.5l41.3-70,39.7,70h-81Z"/>
  <circle class="cls-5" cx="1258.6" cy="161.1" r="40"/>
  <path class="cls-1" d="M1097.4,590.5l-77.3,32.1c-8.9-21.3,1.2-45.9,22.6-54.8,21.4-8.9,45.9,1.3,54.8,22.6h0Z"/>
  <path class="cls-6" d="M0,498l-31.4,44.6L0,587.2l31.4-44.6L0,498Z"/>
  <path class="cls-4" d="M578.6,71.9l-31.4,44.6,31.4,44.6,31.4-44.6-31.4-44.6Z"/>
  <rect class="cls-7" x="619.5" y="532.7" width="39.9" height="39.9" transform="translate(-117.1 929.3) rotate(-67.3)"/>
  <path class="cls-3" d="M893.5,335.1l-21.1,36.4h-42l-21-36.4,21-36.4h42l21.1,36.4Z"/>
</svg>